<svg width="612" height="612" viewBox="0 0 612 612" fill="none" xmlns="http://www.w3.org/2000/svg">
<path d="M329.201 160.996C367.51 138.062 416.279 165.199 416.986 209.842L419.976 398.595C420.683 443.238 372.797 471.905 333.782 450.196L168.822 358.409C129.806 336.7 128.923 280.896 167.231 257.962L329.201 160.996Z" fill="#C4C4C4"/>
<g clip-path="url(#clip0_220_237)">
<path d="M476.589 207.386H153.585C153.105 207.385 152.645 207.193 152.306 206.853C151.967 206.512 151.776 206.05 151.775 205.568V194.877C151.776 194.395 151.967 193.933 152.306 193.592C152.645 193.252 153.105 193.06 153.585 193.059H476.589C477.068 193.06 477.528 193.252 477.867 193.592C478.206 193.933 478.397 194.395 478.398 194.877V205.568C478.397 206.05 478.206 206.512 477.867 206.853C477.528 207.193 477.068 207.385 476.589 207.386Z" fill="#E4E4E4"/>
<path d="M162.276 202.281C163.694 202.281 164.844 201.126 164.844 199.701C164.844 198.276 163.694 197.121 162.276 197.121C160.857 197.121 159.707 198.276 159.707 199.701C159.707 201.126 160.857 202.281 162.276 202.281Z" fill="white"/>
<path d="M172.025 202.281C173.443 202.281 174.593 201.126 174.593 199.701C174.593 198.276 173.443 197.121 172.025 197.121C170.606 197.121 169.456 198.276 169.456 199.701C169.456 201.126 170.606 202.281 172.025 202.281Z" fill="white"/>
<path d="M181.776 202.281C183.194 202.281 184.344 201.126 184.344 199.701C184.344 198.276 183.194 197.121 181.776 197.121C180.357 197.121 179.207 198.276 179.207 199.701C179.207 201.126 180.357 202.281 181.776 202.281Z" fill="white"/>
<path d="M467.036 197.925H455.808C455.588 197.924 455.377 197.836 455.221 197.679C455.066 197.523 454.979 197.311 454.979 197.089C454.979 196.868 455.066 196.656 455.221 196.499C455.377 196.343 455.588 196.254 455.808 196.254H467.036C467.256 196.254 467.467 196.341 467.624 196.498C467.78 196.654 467.867 196.866 467.868 197.088C467.868 197.309 467.781 197.522 467.626 197.679C467.47 197.836 467.259 197.924 467.039 197.925H467.036Z" fill="white"/>
<path d="M467.036 201.058H455.808C455.588 201.057 455.377 200.969 455.221 200.813C455.066 200.656 454.979 200.444 454.979 200.222C454.979 200.001 455.066 199.789 455.221 199.632C455.377 199.476 455.588 199.387 455.808 199.387H467.036C467.256 199.387 467.467 199.475 467.624 199.631C467.78 199.787 467.867 199.999 467.868 200.221C467.868 200.442 467.781 200.655 467.626 200.812C467.47 200.969 467.259 201.057 467.039 201.058H467.036Z" fill="white"/>
<path d="M467.036 204.191H455.808C455.588 204.191 455.376 204.103 455.22 203.946C455.064 203.789 454.977 203.577 454.977 203.355C454.977 203.134 455.064 202.921 455.22 202.764C455.376 202.608 455.588 202.52 455.808 202.52H467.036C467.256 202.519 467.468 202.607 467.624 202.763C467.78 202.92 467.868 203.132 467.869 203.354C467.869 203.575 467.782 203.788 467.626 203.945C467.471 204.102 467.259 204.19 467.039 204.191H467.036Z" fill="white"/>
<path d="M243.876 405.509C245.064 395.908 250.987 386.449 260.102 383.324C256.507 393.206 256.508 404.047 260.104 413.929C261.505 417.735 263.457 421.821 262.14 425.657C261.32 428.044 259.315 429.87 257.073 431.012C254.831 432.153 252.344 432.697 249.887 433.231L249.404 433.633C245.504 424.786 242.687 415.11 243.876 405.509Z" fill="#BDE5AA"/>
<path d="M260.193 383.506C254.885 389.48 251.585 396.983 250.764 404.949C250.557 406.66 250.619 408.394 250.95 410.086C251.324 411.724 252.129 413.231 253.279 414.451C254.33 415.61 255.537 416.673 256.289 418.069C256.663 418.789 256.881 419.58 256.929 420.391C256.978 421.201 256.855 422.013 256.569 422.773C255.906 424.684 254.598 426.242 253.267 427.721C251.789 429.363 250.227 431.045 249.599 433.222C249.523 433.486 249.12 433.351 249.196 433.088C250.289 429.301 253.949 427.149 255.694 423.738C256.509 422.146 256.851 420.298 256.087 418.618C255.42 417.149 254.175 416.051 253.102 414.887C251.962 413.713 251.125 412.277 250.665 410.704C250.25 409.035 250.121 407.306 250.284 405.593C250.588 401.73 251.495 397.94 252.971 394.36C254.633 390.265 256.981 386.486 259.912 383.186C260.093 382.982 260.373 383.303 260.193 383.506L260.193 383.506Z" fill="white"/>
<path d="M250.878 402.368C249.566 402.049 248.411 401.271 247.617 400.174C246.824 399.077 246.444 397.732 246.547 396.38C246.551 396.325 246.577 396.274 246.619 396.238C246.66 396.201 246.714 396.183 246.769 396.185C246.824 396.188 246.876 396.212 246.913 396.253C246.951 396.293 246.972 396.346 246.971 396.402C246.873 397.66 247.227 398.913 247.968 399.933C248.709 400.953 249.788 401.673 251.011 401.963C251.277 402.027 251.142 402.432 250.878 402.368Z" fill="white"/>
<path d="M252.67 413.934C255.039 412.513 256.788 410.247 257.568 407.588C257.645 407.325 258.048 407.459 257.971 407.722C257.154 410.487 255.33 412.841 252.861 414.315C252.626 414.455 252.436 414.073 252.67 413.934Z" fill="white"/>
<path d="M255.027 390.669C255.509 390.899 256.04 391.005 256.573 390.978C257.106 390.951 257.623 390.791 258.079 390.513C258.313 390.37 258.502 390.752 258.27 390.894C257.765 391.199 257.193 391.374 256.604 391.406C256.016 391.437 255.429 391.323 254.894 391.074C254.842 391.054 254.799 391.016 254.773 390.966C254.748 390.916 254.743 390.858 254.759 390.804C254.777 390.751 254.815 390.707 254.865 390.681C254.915 390.656 254.974 390.651 255.027 390.669Z" fill="white"/>
<path d="M287.885 400.473C287.742 400.566 287.598 400.66 287.455 400.757C285.535 402.025 283.721 403.448 282.031 405.011C281.899 405.13 281.766 405.252 281.637 405.374C277.605 409.184 274.312 413.713 271.925 418.73C270.977 420.727 270.182 422.794 269.546 424.913C268.668 427.838 267.949 431.081 266.211 433.474C266.032 433.726 265.839 433.966 265.631 434.194H249.929C249.893 434.176 249.857 434.161 249.821 434.143L249.194 434.172C249.22 434.061 249.248 433.946 249.273 433.834C249.288 433.769 249.305 433.704 249.32 433.64C249.33 433.596 249.341 433.553 249.348 433.514C249.352 433.499 249.356 433.485 249.359 433.474C249.366 433.435 249.377 433.399 249.384 433.363C249.542 432.718 249.704 432.074 249.871 431.43C249.871 431.426 249.871 431.426 249.875 431.423C251.102 426.502 252.906 421.745 255.249 417.251C255.32 417.117 255.392 416.981 255.471 416.847C256.556 414.858 257.801 412.961 259.193 411.176C259.959 410.2 260.773 409.265 261.633 408.372C263.859 406.07 266.431 404.134 269.256 402.636C274.888 399.649 281.408 398.504 287.426 400.329C287.58 400.376 287.731 400.422 287.885 400.473Z" fill="#BDE5AA"/>
<path d="M287.85 400.673C280.031 402.233 272.9 406.228 267.47 412.091C266.279 413.333 265.29 414.755 264.539 416.306C263.857 417.84 263.596 419.53 263.784 421.2C263.928 422.76 264.255 424.34 264.018 425.909C263.885 426.71 263.586 427.473 263.138 428.15C262.691 428.826 262.106 429.4 261.423 429.834C259.748 430.959 257.77 431.412 255.821 431.787C253.656 432.204 251.402 432.603 249.595 433.961C249.376 434.126 249.135 433.775 249.354 433.611C252.496 431.248 256.708 431.744 260.146 430.076C261.75 429.297 263.131 428.029 263.528 426.225C263.876 424.648 263.54 423.019 263.381 421.44C263.174 419.814 263.367 418.161 263.942 416.627C264.611 415.043 265.544 413.585 266.701 412.315C269.258 409.415 272.254 406.937 275.579 404.971C279.36 402.707 283.499 401.11 287.817 400.248C288.084 400.195 288.115 400.62 287.85 400.673H287.85Z" fill="white"/>
<path d="M269.108 410.1C268.253 409.051 267.796 407.731 267.82 406.376C267.844 405.02 268.347 403.717 269.239 402.699C269.42 402.494 269.746 402.767 269.565 402.973C268.732 403.919 268.264 405.133 268.244 406.395C268.225 407.658 268.655 408.886 269.457 409.857C269.632 410.069 269.282 410.31 269.108 410.1Z" fill="white"/>
<path d="M263.608 420.418C266.351 420.716 269.105 419.965 271.321 418.314C271.541 418.15 271.782 418.501 271.563 418.665C269.253 420.378 266.386 421.154 263.532 420.838C263.26 420.807 263.337 420.388 263.608 420.418Z" fill="white"/>
<path d="M279.433 403.268C279.68 403.743 280.04 404.149 280.482 404.45C280.924 404.75 281.433 404.936 281.963 404.99C282.236 405.017 282.158 405.436 281.888 405.41C281.301 405.347 280.739 405.141 280.251 404.81C279.762 404.479 279.361 404.033 279.084 403.511C279.054 403.464 279.042 403.407 279.052 403.352C279.062 403.297 279.093 403.248 279.138 403.214C279.184 403.182 279.241 403.17 279.296 403.18C279.352 403.19 279.401 403.222 279.433 403.268L279.433 403.268Z" fill="white"/>
<path d="M257.643 267.604H205.694C204.088 267.602 202.549 266.96 201.414 265.82C200.279 264.679 199.64 263.133 199.639 261.521V233.097C199.64 231.485 200.279 229.938 201.414 228.798C202.549 227.658 204.088 227.016 205.694 227.015H257.643C259.248 227.016 260.787 227.658 261.923 228.798C263.058 229.938 263.696 231.484 263.698 233.097V261.521C263.696 263.133 263.058 264.679 261.923 265.82C260.787 266.96 259.248 267.602 257.643 267.604Z" fill="#E6E6E6"/>
<path d="M336.955 267.604H285.005C283.4 267.602 281.861 266.96 280.726 265.82C279.59 264.679 278.952 263.133 278.95 261.521V233.097C278.952 231.485 279.591 229.938 280.726 228.798C281.861 227.658 283.4 227.016 285.005 227.015H336.955C338.56 227.016 340.099 227.658 341.234 228.798C342.369 229.938 343.008 231.484 343.01 233.097V261.521C343.008 263.133 342.369 264.679 341.234 265.82C340.099 266.96 338.56 267.602 336.955 267.604Z" fill="#FF7A31"/>
<path d="M416.267 267.604H364.318C362.712 267.602 361.173 266.96 360.038 265.82C358.903 264.679 358.264 263.133 358.263 261.521V233.097C358.264 231.485 358.903 229.938 360.038 228.798C361.173 227.658 362.712 227.016 364.318 227.015H416.267C417.872 227.016 419.411 227.658 420.547 228.798C421.682 229.938 422.32 231.484 422.322 233.097V261.521C422.32 263.133 421.682 264.679 420.547 265.82C419.411 266.96 417.872 267.602 416.267 267.604Z" fill="#E6E6E6"/>
<path d="M257.643 330.934H205.694C204.088 330.933 202.549 330.291 201.414 329.151C200.279 328.01 199.64 326.464 199.639 324.851V296.428C199.64 294.815 200.279 293.269 201.414 292.129C202.549 290.989 204.088 290.347 205.694 290.345H257.643C259.248 290.347 260.787 290.989 261.923 292.129C263.058 293.269 263.696 294.815 263.698 296.428V324.851C263.696 326.464 263.058 328.01 261.923 329.151C260.787 330.291 259.248 330.933 257.643 330.934Z" fill="#F2F2F2"/>
<path d="M336.955 330.934H285.005C283.4 330.933 281.861 330.291 280.726 329.151C279.59 328.01 278.952 326.464 278.95 324.851V296.428C278.952 294.815 279.591 293.269 280.726 292.129C281.861 290.989 283.4 290.347 285.005 290.345H336.955C338.56 290.347 340.099 290.989 341.234 292.129C342.369 293.269 343.008 294.815 343.01 296.428V324.851C343.008 326.464 342.369 328.01 341.234 329.151C340.099 330.291 338.56 330.933 336.955 330.934Z" fill="#E6E6E6"/>
<path d="M340.623 336.165C345.747 336.165 349.901 331.992 349.901 326.844C349.901 321.696 345.747 317.523 340.623 317.523C335.499 317.523 331.345 321.696 331.345 326.844C331.345 331.992 335.499 336.165 340.623 336.165Z" fill="#FF7A31"/>
<path d="M344.476 326.061H341.321V322.892C341.321 322.794 341.302 322.697 341.264 322.607C341.227 322.516 341.173 322.434 341.104 322.365C341.035 322.296 340.953 322.241 340.863 322.203C340.773 322.166 340.676 322.146 340.579 322.146C340.481 322.146 340.385 322.166 340.295 322.203C340.205 322.241 340.123 322.296 340.054 322.365C339.985 322.434 339.93 322.516 339.893 322.607C339.856 322.697 339.836 322.794 339.836 322.892V326.061H336.682C336.584 326.061 336.488 326.081 336.398 326.118C336.308 326.156 336.226 326.21 336.157 326.28C336.088 326.349 336.033 326.431 335.996 326.522C335.959 326.612 335.939 326.709 335.939 326.807C335.939 326.905 335.959 327.002 335.996 327.092C336.033 327.183 336.088 327.265 336.157 327.334C336.226 327.404 336.308 327.458 336.398 327.496C336.488 327.533 336.584 327.553 336.682 327.553H339.836V330.722C339.836 330.82 339.856 330.917 339.893 331.007C339.93 331.098 339.985 331.18 340.054 331.249C340.123 331.318 340.205 331.373 340.295 331.411C340.385 331.448 340.481 331.467 340.579 331.467C340.776 331.467 340.964 331.389 341.104 331.249C341.243 331.109 341.321 330.92 341.321 330.722V327.553H344.476C344.573 327.553 344.67 327.533 344.76 327.496C344.85 327.458 344.932 327.403 345 327.334C345.069 327.265 345.124 327.183 345.161 327.092C345.199 327.002 345.218 326.905 345.218 326.807C345.218 326.709 345.199 326.612 345.161 326.522C345.124 326.431 345.069 326.349 345 326.28C344.932 326.21 344.85 326.155 344.76 326.118C344.67 326.081 344.573 326.061 344.476 326.061L344.476 326.061Z" fill="white"/>
<path d="M421.154 274.468C426.279 274.468 430.433 270.295 430.433 265.147C430.433 260 426.279 255.827 421.154 255.827C416.03 255.827 411.876 260 411.876 265.147C411.876 270.295 416.03 274.468 421.154 274.468Z" fill="#FF7A31"/>
<path d="M425.007 264.365H421.852V261.196C421.852 261.098 421.833 261.001 421.796 260.91C421.758 260.82 421.704 260.738 421.635 260.668C421.566 260.599 421.484 260.544 421.394 260.507C421.304 260.469 421.207 260.45 421.11 260.45C421.012 260.45 420.916 260.469 420.826 260.507C420.736 260.544 420.654 260.599 420.585 260.668C420.516 260.738 420.461 260.82 420.424 260.91C420.387 261.001 420.368 261.098 420.368 261.196V264.365H417.213C417.116 264.365 417.019 264.384 416.929 264.421C416.839 264.459 416.757 264.514 416.688 264.583C416.619 264.652 416.565 264.735 416.527 264.825C416.49 264.916 416.471 265.013 416.471 265.11C416.471 265.208 416.49 265.305 416.527 265.396C416.565 265.486 416.619 265.568 416.688 265.638C416.757 265.707 416.839 265.762 416.929 265.799C417.019 265.837 417.116 265.856 417.213 265.856H420.368V269.025C420.368 269.123 420.387 269.22 420.424 269.311C420.461 269.401 420.516 269.483 420.585 269.552C420.654 269.622 420.736 269.677 420.826 269.714C420.916 269.752 421.012 269.771 421.11 269.771C421.307 269.771 421.496 269.692 421.635 269.552C421.774 269.413 421.852 269.223 421.852 269.025V265.856H425.007C425.104 265.856 425.201 265.837 425.291 265.799C425.381 265.762 425.463 265.707 425.532 265.638C425.601 265.568 425.655 265.486 425.693 265.396C425.73 265.305 425.749 265.208 425.749 265.11C425.749 265.012 425.73 264.916 425.693 264.825C425.655 264.735 425.601 264.652 425.532 264.583C425.463 264.514 425.381 264.459 425.291 264.421C425.201 264.384 425.104 264.365 425.007 264.365L425.007 264.365Z" fill="white"/>
<path d="M261.312 273.651C266.436 273.651 270.59 269.478 270.59 264.33C270.59 259.183 266.436 255.01 261.312 255.01C256.187 255.01 252.033 259.183 252.033 264.33C252.033 269.478 256.187 273.651 261.312 273.651Z" fill="#FF7A31"/>
<path d="M265.164 263.548H262.009V260.379C262.009 260.281 261.99 260.184 261.953 260.093C261.916 260.003 261.861 259.92 261.792 259.851C261.723 259.782 261.641 259.727 261.551 259.69C261.461 259.652 261.365 259.633 261.267 259.633C261.17 259.633 261.073 259.652 260.983 259.69C260.893 259.727 260.811 259.782 260.742 259.851C260.673 259.92 260.619 260.003 260.581 260.093C260.544 260.184 260.525 260.281 260.525 260.379V263.548H257.37C257.273 263.548 257.176 263.567 257.086 263.604C256.996 263.642 256.914 263.697 256.845 263.766C256.776 263.835 256.722 263.917 256.684 264.008C256.647 264.098 256.628 264.195 256.628 264.293C256.628 264.491 256.706 264.681 256.845 264.821C256.985 264.96 257.173 265.039 257.37 265.039H260.525V268.208C260.525 268.306 260.544 268.403 260.581 268.493C260.619 268.584 260.673 268.666 260.742 268.735C260.811 268.805 260.893 268.86 260.983 268.897C261.073 268.934 261.17 268.954 261.267 268.954C261.365 268.954 261.461 268.934 261.551 268.897C261.641 268.86 261.723 268.805 261.792 268.735C261.861 268.666 261.916 268.584 261.953 268.493C261.99 268.403 262.009 268.306 262.009 268.208V265.039H265.164C265.262 265.039 265.358 265.02 265.448 264.982C265.538 264.945 265.62 264.89 265.689 264.821C265.758 264.751 265.813 264.669 265.85 264.579C265.887 264.488 265.906 264.391 265.906 264.293C265.906 264.095 265.828 263.906 265.689 263.766C265.55 263.626 265.361 263.548 265.164 263.548V263.548Z" fill="white"/>
<path d="M330.776 251.454C330.945 251.969 331 252.514 330.937 253.052C330.874 253.59 330.694 254.108 330.41 254.568C330.126 255.029 329.745 255.421 329.294 255.718C328.843 256.015 328.332 256.209 327.799 256.286L323.508 285.704L316.471 282.251L323.549 252.886C323.48 251.977 323.745 251.073 324.294 250.347C324.843 249.621 325.639 249.122 326.53 248.946C327.42 248.769 328.345 248.927 329.127 249.389C329.91 249.852 330.497 250.587 330.776 251.454L330.776 251.454Z" fill="#9E616A"/>
<path d="M279.535 345.674C279.848 345.233 280.061 344.729 280.159 344.196C280.257 343.663 280.238 343.115 280.103 342.591C279.967 342.067 279.719 341.578 279.376 341.161C279.032 340.743 278.601 340.406 278.114 340.174L281.009 308.882L274.947 312.003L273.054 342.157C272.719 343.005 272.706 343.947 273.017 344.804C273.327 345.661 273.94 346.374 274.739 346.808C275.538 347.241 276.467 347.365 277.351 347.156C278.235 346.947 279.012 346.42 279.535 345.674H279.535Z" fill="#9E616A"/>
<path d="M283.676 329.847L309.691 328.842L311.192 301.704H281.175L283.676 329.847Z" fill="#9E616A"/>
<path d="M278.847 425.69L283.293 425.69L285.408 408.465H278.847L278.847 425.69Z" fill="#9E616A"/>
<path fill-rule="evenodd" clip-rule="evenodd" d="M318.558 308.543C318.243 308.197 317.869 307.963 317.427 307.849C317.281 307.81 316.755 307.79 315.873 307.776L315.849 307.756C315.099 307.751 314.408 307.751 313.874 307.753C313.833 307.752 313.793 307.752 313.751 307.751L313.753 307.753C313.182 307.755 312.818 307.762 312.804 307.77C312.728 307.814 313.23 308.661 313.504 308.973C313.82 309.319 314.193 309.553 314.635 309.667C314.875 309.731 316.129 309.773 318.312 309.794L318.274 309.763C318.865 309.76 319.244 309.754 319.258 309.746C319.335 309.702 318.832 308.855 318.558 308.543Z" fill="black"/>
<path fill-rule="evenodd" clip-rule="evenodd" d="M318.558 308.543C318.243 308.197 317.869 307.963 317.427 307.849C317.281 307.81 316.755 307.79 315.873 307.776L315.849 307.756C315.099 307.751 314.408 307.751 313.874 307.753C313.833 307.752 313.793 307.752 313.751 307.751L313.753 307.753C313.182 307.755 312.818 307.762 312.804 307.77C312.728 307.814 313.23 308.661 313.504 308.973C313.82 309.319 314.193 309.553 314.635 309.667C314.875 309.731 316.129 309.773 318.312 309.794L318.274 309.763C318.865 309.76 319.244 309.754 319.258 309.746C319.335 309.702 318.832 308.855 318.558 308.543Z" fill="black"/>
<path fill-rule="evenodd" clip-rule="evenodd" d="M318.558 308.543C318.243 308.197 317.869 307.963 317.427 307.849C317.281 307.81 316.755 307.79 315.873 307.776L315.849 307.756C315.099 307.751 314.408 307.751 313.874 307.753C313.833 307.752 313.793 307.752 313.751 307.751L313.753 307.753C313.182 307.755 312.818 307.762 312.804 307.77C312.728 307.814 313.23 308.661 313.504 308.973C313.82 309.319 314.193 309.553 314.635 309.667C314.875 309.731 316.129 309.773 318.312 309.794L318.274 309.763C318.865 309.76 319.244 309.754 319.258 309.746C319.335 309.702 318.832 308.855 318.558 308.543Z" fill="black"/>
<path fill-rule="evenodd" clip-rule="evenodd" d="M312.587 313.185C312.136 313.146 311.74 313.178 311.395 313.288C311.273 313.327 310.918 313.532 310.332 313.888C310.179 313.981 309.977 313.932 309.886 313.776C309.794 313.618 309.698 313.453 309.598 313.283C309.003 312.274 307.762 310.159 306.842 308.591C305.733 306.709 305.068 305.642 304.893 305.467C304.574 305.141 304.185 304.934 303.728 304.833C303.321 304.752 302.337 304.739 302.337 304.827C302.337 304.859 303.013 306.05 303.847 307.475C304.68 308.899 305.727 310.699 306.178 311.477C307.738 314.168 307.876 314.388 308.108 314.62C308.267 314.78 308.444 314.906 308.644 315.008C308.648 315.014 308.663 315.022 308.69 315.032C309.08 315.218 309.559 315.304 310.181 315.304C310.223 315.304 310.259 315.304 310.295 315.304C310.305 315.304 310.316 315.304 310.326 315.304C310.418 315.302 310.49 315.3 310.546 315.295C310.77 315.281 310.979 315.247 311.17 315.185C311.359 315.125 312.12 314.685 313.404 313.894L313.28 313.893C313.671 313.644 313.923 313.479 313.925 313.47C313.934 313.421 312.988 313.225 312.587 313.185Z" fill="black"/>
<path fill-rule="evenodd" clip-rule="evenodd" d="M312.587 313.185C312.136 313.146 311.74 313.178 311.395 313.288C311.273 313.327 310.918 313.532 310.332 313.888C310.179 313.981 309.977 313.932 309.886 313.776C309.794 313.618 309.698 313.453 309.598 313.283C309.003 312.274 307.762 310.159 306.842 308.591C305.733 306.709 305.068 305.642 304.893 305.467C304.574 305.141 304.185 304.934 303.728 304.833C303.321 304.752 302.337 304.739 302.337 304.827C302.337 304.859 303.013 306.05 303.847 307.475C304.68 308.899 305.727 310.699 306.178 311.477C307.738 314.168 307.876 314.388 308.108 314.62C308.267 314.78 308.444 314.906 308.644 315.008C308.648 315.014 308.663 315.022 308.69 315.032C309.08 315.218 309.559 315.304 310.181 315.304C310.223 315.304 310.259 315.304 310.295 315.304C310.305 315.304 310.316 315.304 310.326 315.304C310.418 315.302 310.49 315.3 310.546 315.295C310.77 315.281 310.979 315.247 311.17 315.185C311.359 315.125 312.12 314.685 313.404 313.894L313.28 313.893C313.671 313.644 313.923 313.479 313.925 313.47C313.934 313.421 312.988 313.225 312.587 313.185Z" fill="black"/>
<path fill-rule="evenodd" clip-rule="evenodd" d="M312.587 313.185C312.136 313.146 311.74 313.178 311.395 313.288C311.273 313.327 310.918 313.532 310.332 313.888C310.179 313.981 309.977 313.932 309.886 313.776C309.794 313.618 309.698 313.453 309.598 313.283C309.003 312.274 307.762 310.159 306.842 308.591C305.733 306.709 305.068 305.642 304.893 305.467C304.574 305.141 304.185 304.934 303.728 304.833C303.321 304.752 302.337 304.739 302.337 304.827C302.337 304.859 303.013 306.05 303.847 307.475C304.68 308.899 305.727 310.699 306.178 311.477C307.738 314.168 307.876 314.388 308.108 314.62C308.267 314.78 308.444 314.906 308.644 315.008C308.648 315.014 308.663 315.022 308.69 315.032C309.08 315.218 309.559 315.304 310.181 315.304C310.223 315.304 310.259 315.304 310.295 315.304C310.305 315.304 310.316 315.304 310.326 315.304C310.418 315.302 310.49 315.3 310.546 315.295C310.77 315.281 310.979 315.247 311.17 315.185C311.359 315.125 312.12 314.685 313.404 313.894L313.28 313.893C313.671 313.644 313.923 313.479 313.925 313.47C313.934 313.421 312.988 313.225 312.587 313.185Z" fill="black"/>
<path fill-rule="evenodd" clip-rule="evenodd" d="M312.3 305.882C312.588 306.198 312.927 306.41 313.329 306.514C313.547 306.572 314.689 306.611 316.676 306.63C318.33 306.643 320.559 306.66 321.626 306.67C322.697 306.677 323.606 306.679 323.654 306.671C323.72 306.659 323.689 306.571 323.481 306.21C323.039 305.444 322.591 305.043 321.999 304.884C321.71 304.807 321.475 304.798 318.646 304.792C317.828 304.79 315.934 304.783 314.433 304.773C312.933 304.764 311.686 304.772 311.661 304.787C311.592 304.827 312.05 305.598 312.3 305.882Z" fill="black"/>
<path fill-rule="evenodd" clip-rule="evenodd" d="M312.3 305.882C312.588 306.198 312.927 306.41 313.329 306.514C313.547 306.572 314.689 306.611 316.676 306.63C318.33 306.643 320.559 306.66 321.626 306.67C322.697 306.677 323.606 306.679 323.654 306.671C323.72 306.659 323.689 306.571 323.481 306.21C323.039 305.444 322.591 305.043 321.999 304.884C321.71 304.807 321.475 304.798 318.646 304.792C317.828 304.79 315.934 304.783 314.433 304.773C312.933 304.764 311.686 304.772 311.661 304.787C311.592 304.827 312.05 305.598 312.3 305.882Z" fill="black"/>
<path fill-rule="evenodd" clip-rule="evenodd" d="M312.3 305.882C312.588 306.198 312.927 306.41 313.329 306.514C313.547 306.572 314.689 306.611 316.676 306.63C318.33 306.643 320.559 306.66 321.626 306.67C322.697 306.677 323.606 306.679 323.654 306.671C323.72 306.659 323.689 306.571 323.481 306.21C323.039 305.444 322.591 305.043 321.999 304.884C321.71 304.807 321.475 304.798 318.646 304.792C317.828 304.79 315.934 304.783 314.433 304.773C312.933 304.764 311.686 304.772 311.661 304.787C311.592 304.827 312.05 305.598 312.3 305.882Z" fill="black"/>
<path fill-rule="evenodd" clip-rule="evenodd" d="M314.783 313.823C313.82 314.453 313.034 314.984 313.03 315.002C313.02 315.051 313.956 315.245 314.353 315.282C314.799 315.319 315.193 315.282 315.536 315.164C315.724 315.102 316.483 314.638 317.763 313.807" fill="black"/>
<path fill-rule="evenodd" clip-rule="evenodd" d="M314.783 313.823C313.82 314.453 313.034 314.984 313.03 315.002C313.02 315.051 313.956 315.245 314.353 315.282C314.799 315.319 315.193 315.282 315.536 315.164C315.724 315.102 316.483 314.638 317.763 313.807" fill="black"/>
<path fill-rule="evenodd" clip-rule="evenodd" d="M314.783 313.823C313.82 314.453 313.034 314.984 313.03 315.002C313.02 315.051 313.956 315.245 314.353 315.282C314.799 315.319 315.193 315.282 315.536 315.164C315.724 315.102 316.483 314.638 317.763 313.807" fill="black"/>
<path fill-rule="evenodd" clip-rule="evenodd" d="M318.231 313.64C318.595 313.158 317.242 313.241 316.85 313.241C316.398 313.24 316.002 313.233 315.658 313.344C315.542 313.38 315.219 313.566 314.691 313.886C314.548 313.972 314.363 313.926 314.278 313.782C314.185 313.622 314.088 313.455 313.987 313.283C313.392 312.274 312.151 310.159 311.23 308.591C310.122 306.709 309.457 305.642 309.282 305.467C308.962 305.141 308.574 304.934 308.117 304.833C307.71 304.752 306.726 304.739 306.726 304.827C306.726 304.859 307.402 306.05 308.236 307.475C309.069 308.899 310.115 310.699 310.566 311.477C312.127 314.168 312.264 314.388 312.496 314.62C312.972 315.097 313.599 315.304 314.57 315.304C315.027 315.304 315.128 315.285 315.102 315.216C315.093 315.191 314.972 314.977 314.782 314.649L316.429 314.648C317.395 314.047 318.21 313.668 318.231 313.64Z" fill="black"/>
<path fill-rule="evenodd" clip-rule="evenodd" d="M318.231 313.64C318.595 313.158 317.242 313.241 316.85 313.241C316.398 313.24 316.002 313.233 315.658 313.344C315.542 313.38 315.219 313.566 314.691 313.886C314.548 313.972 314.363 313.926 314.278 313.782C314.185 313.622 314.088 313.455 313.987 313.283C313.392 312.274 312.151 310.159 311.23 308.591C310.122 306.709 309.457 305.642 309.282 305.467C308.962 305.141 308.574 304.934 308.117 304.833C307.71 304.752 306.726 304.739 306.726 304.827C306.726 304.859 307.402 306.05 308.236 307.475C309.069 308.899 310.115 310.699 310.566 311.477C312.127 314.168 312.264 314.388 312.496 314.62C312.972 315.097 313.599 315.304 314.57 315.304C315.027 315.304 315.128 315.285 315.102 315.216C315.093 315.191 314.972 314.977 314.782 314.649L316.429 314.648C317.395 314.047 318.21 313.668 318.231 313.64Z" fill="black"/>
<path fill-rule="evenodd" clip-rule="evenodd" d="M318.231 313.64C318.595 313.158 317.242 313.241 316.85 313.241C316.398 313.24 316.002 313.233 315.658 313.344C315.542 313.38 315.219 313.566 314.691 313.886C314.548 313.972 314.363 313.926 314.278 313.782C314.185 313.622 314.088 313.455 313.987 313.283C313.392 312.274 312.151 310.159 311.23 308.591C310.122 306.709 309.457 305.642 309.282 305.467C308.962 305.141 308.574 304.934 308.117 304.833C307.71 304.752 306.726 304.739 306.726 304.827C306.726 304.859 307.402 306.05 308.236 307.475C309.069 308.899 310.115 310.699 310.566 311.477C312.127 314.168 312.264 314.388 312.496 314.62C312.972 315.097 313.599 315.304 314.57 315.304C315.027 315.304 315.128 315.285 315.102 315.216C315.093 315.191 314.972 314.977 314.782 314.649L316.429 314.648C317.395 314.047 318.21 313.668 318.231 313.64Z" fill="black"/>
<path d="M277.744 423.487L284.772 423.065V426.09L291.453 430.725C291.783 430.954 292.031 431.283 292.162 431.664C292.293 432.045 292.299 432.458 292.18 432.842C292.06 433.227 291.822 433.563 291.499 433.802C291.176 434.041 290.785 434.169 290.384 434.169H282.018L280.576 431.177L280.013 434.169H276.858L277.744 423.487Z" fill="#2F2E41"/>
<path d="M298.62 425.69L303.065 425.69L305.18 408.465H298.619L298.62 425.69Z" fill="#9E616A"/>
<path d="M283.315 323.477C283.315 323.477 275.531 329.79 279.751 352.335C279.108 352.412 279.836 353.684 279.836 353.684L280.445 372.054L280.915 374.159L279.351 377.556L279.996 381.248L278.008 414.748L285.352 415.702L292.38 380.914L293.719 377.003L295.061 373.574L294.337 369.918L294.931 364.244L298.983 345.11L299.975 378.295L298.591 381.463L299.361 384.941L297.645 386.787L296.967 417.835L304.798 418.203L311.278 386.904L310.775 382.91L311.637 379.957V373.059L313.114 369.803L316.333 352.051C316.333 352.051 317.304 338.176 310.219 321.849L283.315 323.477Z" fill="#2F2E41"/>
<path d="M286.487 279.149C286.487 279.149 276.656 281.102 274.962 289.525C273.268 297.947 272.178 317.007 272.178 317.007L272.549 319.662L282.059 321.877L288.128 295.17L286.487 279.149Z" fill="#3F3D56"/>
<path d="M308.924 281.992C308.924 281.992 309.92 280.589 315.501 280.373C315.731 280.364 315.446 279.906 315.446 279.906L318.13 266.728L327.074 271.702L325.565 285.518L310.867 302.311L308.924 281.992Z" fill="#3F3D56"/>
<path d="M303.348 321.278C299.138 321.278 292.8 320.811 283.258 319.388C282.643 319.295 282.074 319.007 281.634 318.566C281.194 318.125 280.906 317.554 280.812 316.937C280.5 316.607 280.298 316.188 280.231 315.737C280.165 315.287 280.238 314.827 280.441 314.42L280.45 314.403L280.234 314.147C279.9 313.752 279.703 313.258 279.675 312.741C279.646 312.224 279.788 311.711 280.077 311.282L277.122 290.046C276.822 287.937 277.281 285.79 278.416 283.991C279.552 282.191 281.289 280.858 283.315 280.231L284.406 279.89L288.531 274.469L288.613 274.47L301.856 274.647L306.154 280.13L313.101 281.775L313.119 281.882L314.732 291.244C315.571 296.113 313.647 298.029 311.191 302.311L311.912 314.338L312.239 314.934C312.42 315.265 312.481 315.649 312.411 316.019C312.34 316.39 312.143 316.724 311.853 316.964C312.073 317.593 312.088 318.276 311.896 318.914L311.726 319.478C311.727 319.494 311.681 319.724 311.314 320.004C310.653 320.508 308.754 321.278 303.348 321.278Z" fill="#3F3D56"/>
<path d="M297.518 423.487L304.545 423.065V426.09L311.226 430.725C311.556 430.954 311.805 431.283 311.936 431.664C312.066 432.045 312.073 432.458 311.953 432.842C311.834 433.227 311.595 433.563 311.272 433.802C310.949 434.041 310.559 434.169 310.158 434.169H301.791L300.349 431.177L299.786 434.169H296.632L297.518 423.487Z" fill="#2F2E41"/>
<path d="M304.898 262.657C305.816 256.971 301.973 251.614 296.313 250.691C290.653 249.769 285.32 253.63 284.401 259.316C283.483 265.002 287.327 270.359 292.987 271.281C298.647 272.204 303.979 268.343 304.898 262.657Z" fill="#9E616A"/>
<path d="M300.721 250.795C296.916 248.166 293.565 247.765 290.812 248.511C290.456 247.957 289.955 247.51 289.365 247.22C287.218 241.786 280.685 238.522 275.078 240.109C269.435 241.705 265.541 247.985 266.603 253.777C267.261 257.367 269.51 260.476 270.415 264.012C272.166 270.856 267.894 278.696 261.211 280.903C267.539 282.179 274.504 278.296 276.774 272.227C277.876 269.279 277.943 266.06 278.083 262.914C278.12 260.743 278.385 258.581 278.873 256.466C279.116 255.517 279.458 254.596 279.895 253.72C280.846 251.794 282.426 250.254 284.371 249.357C284.197 249.898 284.154 250.473 284.244 251.035C284.335 251.596 284.557 252.128 284.893 252.586C283.409 254.453 282.601 256.473 282.601 257.682C279.518 263.342 283.926 268.204 289.561 271.301C291.808 272.542 294.403 272.997 296.936 272.592L297.172 271.582L297.491 272.492L298.557 275.545C299.787 276.142 301.006 276.798 302.215 277.51C301.756 275.344 301.384 273.182 301.129 271.068C300.775 268.191 302.008 263.907 302.898 261.302C303.45 259.697 303.733 258.011 303.736 256.313V256.238L304.603 259.034L307.757 257.682C307.17 254.301 307.757 250.462 300.721 250.795Z" fill="#2F2E41"/>
<path d="M430.453 434.687H199.72C199.592 434.686 199.47 434.635 199.379 434.544C199.289 434.453 199.238 434.329 199.238 434.201C199.238 434.072 199.289 433.949 199.379 433.857C199.47 433.766 199.592 433.715 199.72 433.714H430.453C430.581 433.715 430.704 433.766 430.794 433.857C430.885 433.949 430.935 434.072 430.935 434.201C430.935 434.329 430.885 434.453 430.794 434.544C430.704 434.635 430.581 434.686 430.453 434.687Z" fill="#CCCCCC"/>
<path d="M260.251 337.39C265.375 337.39 269.529 333.217 269.529 328.069C269.529 322.921 265.375 318.748 260.251 318.748C255.127 318.748 250.973 322.921 250.973 328.069C250.973 333.217 255.127 337.39 260.251 337.39Z" fill="#E6E6E6"/>
<path d="M399.853 322.712H367.31C366.304 322.711 365.34 322.309 364.629 321.595C363.918 320.88 363.518 319.912 363.517 318.901V301.096C363.518 300.086 363.918 299.117 364.629 298.403C365.34 297.688 366.304 297.287 367.31 297.285H399.853C400.859 297.287 401.823 297.688 402.534 298.403C403.245 299.117 403.645 300.086 403.646 301.096V318.901C403.645 319.912 403.245 320.88 402.534 321.595C401.823 322.309 400.859 322.711 399.853 322.712Z" fill="#F2F2F2"/>
<path d="M400.333 315.479C403.054 315.479 405.26 313.263 405.26 310.529C405.26 307.796 403.054 305.58 400.333 305.58C397.611 305.58 395.405 307.796 395.405 310.529C395.405 313.263 397.611 315.479 400.333 315.479Z" fill="#FF7A31"/>
<path d="M402.379 310.114H400.704V308.431C400.704 308.379 400.693 308.327 400.674 308.279C400.654 308.231 400.625 308.188 400.588 308.151C400.552 308.114 400.508 308.085 400.46 308.065C400.412 308.045 400.361 308.035 400.309 308.035C400.205 308.035 400.105 308.077 400.031 308.151C399.957 308.225 399.915 308.326 399.915 308.431V310.114H398.24C398.135 310.114 398.035 310.156 397.961 310.23C397.887 310.304 397.846 310.405 397.846 310.51C397.846 310.562 397.856 310.613 397.876 310.661C397.896 310.709 397.925 310.753 397.961 310.79C397.998 310.827 398.041 310.856 398.089 310.876C398.137 310.896 398.188 310.906 398.24 310.906H399.915V312.589C399.915 312.641 399.925 312.692 399.945 312.74C399.965 312.788 399.994 312.832 400.031 312.869C400.067 312.906 400.111 312.935 400.159 312.955C400.206 312.975 400.258 312.985 400.309 312.985C400.414 312.985 400.514 312.943 400.588 312.869C400.662 312.795 400.704 312.694 400.704 312.589V310.906H402.379C402.483 310.906 402.584 310.864 402.658 310.79C402.732 310.716 402.773 310.615 402.773 310.51C402.773 310.458 402.763 310.406 402.743 310.358C402.723 310.31 402.694 310.267 402.658 310.23C402.621 310.193 402.578 310.164 402.53 310.144C402.482 310.124 402.431 310.114 402.379 310.114L402.379 310.114Z" fill="white"/>
<path d="M413.112 317.659H386.293C385.155 317.658 384.064 317.203 383.259 316.394C382.454 315.586 382.001 314.49 382 313.346V297.264C382 297.054 382.084 296.852 382.232 296.704C382.381 296.555 382.582 296.471 382.791 296.471C383 296.471 383.201 296.555 383.35 296.704C383.498 296.852 383.581 297.054 383.582 297.264V301.571L414.733 304.416C415.356 304.427 415.949 304.683 416.385 305.129C416.821 305.574 417.066 306.174 417.067 306.799C417.067 306.849 417.062 306.898 417.053 306.946L415.484 315.356C415.462 315.974 415.203 316.559 414.76 316.989C414.318 317.418 413.727 317.658 413.112 317.659ZM383.582 303.167V313.346C383.583 314.068 383.869 314.761 384.377 315.271C384.885 315.782 385.575 316.069 386.293 316.07H413.112C413.322 316.07 413.523 315.986 413.671 315.837C413.819 315.688 413.903 315.486 413.903 315.275C413.903 315.226 413.908 315.177 413.917 315.129L415.483 306.738C415.467 306.539 415.377 306.352 415.231 306.217C415.085 306.081 414.893 306.005 414.694 306.005C414.67 306.005 414.646 306.004 414.623 306.001L383.582 303.167Z" fill="#FF7A31"/>
<path d="M379.167 325.075C379.895 325.075 380.485 324.482 380.485 323.751C380.485 323.019 379.895 322.427 379.167 322.427C378.439 322.427 377.849 323.019 377.849 323.751C377.849 324.482 378.439 325.075 379.167 325.075Z" fill="#FF7A31"/>
<path d="M412.058 325.075C412.786 325.075 413.376 324.482 413.376 323.751C413.376 323.019 412.786 322.427 412.058 322.427C411.329 322.427 410.739 323.019 410.739 323.751C410.739 324.482 411.329 325.075 412.058 325.075Z" fill="#FF7A31"/>
<path d="M413.376 322.427H378.112C377.902 322.427 377.701 322.343 377.553 322.194C377.405 322.045 377.321 321.843 377.321 321.632C377.321 321.421 377.405 321.219 377.553 321.07C377.701 320.921 377.902 320.837 378.112 320.837H413.376C413.585 320.837 413.787 320.921 413.935 321.07C414.083 321.219 414.167 321.421 414.167 321.632C414.167 321.843 414.083 322.045 413.935 322.194C413.787 322.343 413.585 322.427 413.376 322.427Z" fill="#FF7A31"/>
<path d="M384.9 297.794H378.045C377.836 297.794 377.635 297.71 377.487 297.561C377.339 297.412 377.256 297.21 377.256 296.999C377.256 296.789 377.339 296.587 377.487 296.438C377.635 296.289 377.836 296.205 378.045 296.205H384.9C385.11 296.205 385.31 296.289 385.458 296.438C385.606 296.587 385.689 296.789 385.689 296.999C385.689 297.21 385.606 297.412 385.458 297.561C385.31 297.71 385.11 297.794 384.9 297.794Z" fill="#FF7A31"/>
<path d="M390.399 322.022C390.21 322.022 390.027 321.954 389.884 321.83L384.685 317.342C384.606 317.274 384.541 317.191 384.494 317.098C384.447 317.005 384.418 316.903 384.411 316.799C384.403 316.695 384.415 316.59 384.448 316.491C384.48 316.392 384.531 316.3 384.599 316.22C384.667 316.141 384.75 316.076 384.843 316.029C384.935 315.982 385.037 315.954 385.14 315.946C385.244 315.938 385.348 315.951 385.447 315.984C385.546 316.016 385.637 316.068 385.716 316.137L390.915 320.625C391.038 320.731 391.125 320.872 391.165 321.029C391.206 321.186 391.197 321.352 391.141 321.504C391.085 321.656 390.984 321.787 390.851 321.88C390.718 321.973 390.561 322.022 390.399 322.022V322.022Z" fill="#FF7A31"/>
<path d="M391.495 317.171C391.391 317.171 391.288 317.15 391.192 317.11C391.096 317.071 391.009 317.012 390.936 316.938C390.862 316.864 390.804 316.777 390.764 316.68C390.725 316.584 390.704 316.481 390.704 316.376V303.621C390.704 303.41 390.787 303.208 390.936 303.059C391.084 302.91 391.285 302.826 391.495 302.826C391.705 302.826 391.906 302.91 392.054 303.059C392.203 303.208 392.286 303.41 392.286 303.621V316.376C392.286 316.481 392.266 316.584 392.226 316.68C392.186 316.777 392.128 316.864 392.054 316.938C391.981 317.012 391.894 317.07 391.798 317.11C391.702 317.15 391.599 317.171 391.495 317.171H391.495Z" fill="#FF7A31"/>
<path d="M408.204 317.171C408.1 317.171 407.997 317.15 407.901 317.11C407.805 317.071 407.718 317.012 407.645 316.938C407.571 316.864 407.513 316.777 407.473 316.68C407.434 316.584 407.413 316.481 407.413 316.376V304.681C407.414 304.47 407.497 304.268 407.645 304.12C407.794 303.971 407.995 303.888 408.204 303.888C408.414 303.888 408.614 303.971 408.763 304.12C408.911 304.268 408.995 304.47 408.995 304.681V316.376C408.995 316.481 408.975 316.584 408.935 316.68C408.895 316.777 408.837 316.864 408.763 316.938C408.69 317.012 408.603 317.07 408.507 317.11C408.411 317.15 408.308 317.171 408.204 317.171H408.204Z" fill="#FF7A31"/>
<path fill-rule="evenodd" clip-rule="evenodd" d="M316.131 246.618C315.815 246.272 315.442 246.038 315 245.924C314.853 245.885 314.327 245.865 313.445 245.851L313.421 245.831C312.671 245.826 311.981 245.826 311.446 245.828C311.405 245.827 311.365 245.827 311.323 245.826L311.325 245.828C310.754 245.831 310.39 245.837 310.376 245.845C310.3 245.889 310.802 246.736 311.077 247.048C311.392 247.394 311.766 247.628 312.208 247.742C312.447 247.806 313.702 247.849 315.884 247.87L315.846 247.838C316.437 247.835 316.817 247.829 316.831 247.821C316.907 247.777 316.405 246.93 316.131 246.618Z" fill="white"/>
<path fill-rule="evenodd" clip-rule="evenodd" d="M310.159 251.26C309.709 251.221 309.312 251.253 308.967 251.364C308.845 251.402 308.49 251.607 307.905 251.963C307.751 252.056 307.55 252.007 307.459 251.851C307.367 251.693 307.27 251.528 307.17 251.359C306.575 250.349 305.335 248.235 304.414 246.666C303.305 244.784 302.641 243.718 302.465 243.542C302.146 243.216 301.758 243.009 301.3 242.909C300.893 242.827 299.909 242.815 299.909 242.902C299.909 242.934 300.586 244.125 301.419 245.55C302.252 246.974 303.299 248.774 303.75 249.552C305.31 252.244 305.448 252.463 305.68 252.695C305.839 252.855 306.017 252.981 306.216 253.083C306.22 253.089 306.235 253.097 306.262 253.107C306.653 253.293 307.132 253.38 307.754 253.38C307.795 253.38 307.831 253.38 307.867 253.379C307.878 253.379 307.888 253.379 307.898 253.379C307.99 253.377 308.062 253.375 308.118 253.371C308.342 253.357 308.551 253.322 308.743 253.26C308.931 253.2 309.693 252.76 310.976 251.969L310.852 251.968C311.244 251.719 311.495 251.554 311.497 251.545C311.506 251.496 310.56 251.3 310.159 251.26Z" fill="white"/>
<path fill-rule="evenodd" clip-rule="evenodd" d="M309.872 243.957C310.16 244.273 310.499 244.485 310.902 244.589C311.12 244.647 312.262 244.686 314.248 244.705C315.903 244.718 318.132 244.735 319.198 244.746C320.269 244.752 321.178 244.755 321.226 244.746C321.292 244.734 321.261 244.647 321.053 244.286C320.611 243.519 320.163 243.118 319.571 242.959C319.283 242.882 319.047 242.873 316.218 242.867C315.4 242.865 313.506 242.858 312.005 242.849C310.505 242.839 309.259 242.847 309.234 242.862C309.165 242.902 309.623 243.673 309.872 243.957Z" fill="white"/>
<path fill-rule="evenodd" clip-rule="evenodd" d="M312.356 251.898C311.393 252.528 310.606 253.059 310.603 253.077C310.592 253.127 311.528 253.32 311.925 253.357C312.372 253.394 312.766 253.357 313.108 253.24C313.296 253.177 314.055 252.713 315.335 251.882" fill="white"/>
<path fill-rule="evenodd" clip-rule="evenodd" d="M315.804 251.715C316.168 251.233 314.815 251.316 314.422 251.316C313.97 251.315 313.575 251.309 313.23 251.419C313.115 251.456 312.791 251.641 312.263 251.961C312.121 252.047 311.935 252.001 311.851 251.857C311.757 251.697 311.66 251.53 311.559 251.359C310.964 250.349 309.723 248.235 308.803 246.666C307.694 244.784 307.029 243.718 306.854 243.542C306.535 243.216 306.146 243.009 305.689 242.909C305.282 242.827 304.298 242.815 304.298 242.902C304.298 242.934 304.974 244.125 305.808 245.55C306.641 246.974 307.688 248.774 308.139 249.552C309.699 252.244 309.837 252.463 310.068 252.695C310.544 253.172 311.171 253.379 312.142 253.379C312.6 253.379 312.7 253.36 312.675 253.291C312.666 253.267 312.544 253.052 312.354 252.724L314.001 252.723C314.967 252.122 315.782 251.743 315.804 251.715Z" fill="white"/>
<path fill-rule="evenodd" clip-rule="evenodd" d="M237.207 246.618C236.891 246.272 236.518 246.038 236.076 245.924C235.93 245.885 235.404 245.865 234.521 245.851L234.497 245.831C233.747 245.826 233.057 245.826 232.522 245.828C232.481 245.827 232.442 245.827 232.399 245.826L232.401 245.828C231.831 245.831 231.466 245.837 231.452 245.845C231.376 245.889 231.879 246.736 232.153 247.048C232.468 247.394 232.842 247.628 233.284 247.742C233.523 247.806 234.778 247.849 236.96 247.87L236.922 247.838C237.514 247.835 237.893 247.829 237.907 247.821C237.983 247.777 237.481 246.93 237.207 246.618Z" fill="black"/>
<path fill-rule="evenodd" clip-rule="evenodd" d="M237.207 246.618C236.891 246.272 236.518 246.038 236.076 245.924C235.93 245.885 235.404 245.865 234.521 245.851L234.497 245.831C233.747 245.826 233.057 245.826 232.522 245.828C232.481 245.827 232.442 245.827 232.399 245.826L232.401 245.828C231.831 245.831 231.466 245.837 231.452 245.845C231.376 245.889 231.879 246.736 232.153 247.048C232.468 247.394 232.842 247.628 233.284 247.742C233.523 247.806 234.778 247.849 236.96 247.87L236.922 247.838C237.514 247.835 237.893 247.829 237.907 247.821C237.983 247.777 237.481 246.93 237.207 246.618Z" fill="black"/>
<path fill-rule="evenodd" clip-rule="evenodd" d="M237.207 246.618C236.891 246.272 236.518 246.038 236.076 245.924C235.93 245.885 235.404 245.865 234.521 245.851L234.497 245.831C233.747 245.826 233.057 245.826 232.522 245.828C232.481 245.827 232.442 245.827 232.399 245.826L232.401 245.828C231.831 245.831 231.466 245.837 231.452 245.845C231.376 245.889 231.879 246.736 232.153 247.048C232.468 247.394 232.842 247.628 233.284 247.742C233.523 247.806 234.778 247.849 236.96 247.87L236.922 247.838C237.514 247.835 237.893 247.829 237.907 247.821C237.983 247.777 237.481 246.93 237.207 246.618Z" fill="black"/>
<path fill-rule="evenodd" clip-rule="evenodd" d="M231.236 251.26C230.785 251.221 230.388 251.253 230.044 251.364C229.921 251.402 229.566 251.607 228.981 251.963C228.827 252.056 228.626 252.007 228.535 251.851C228.443 251.693 228.346 251.528 228.247 251.359C227.652 250.349 226.411 248.235 225.49 246.666C224.381 244.784 223.717 243.718 223.541 243.542C223.222 243.216 222.834 243.009 222.377 242.909C221.969 242.827 220.985 242.815 220.985 242.902C220.985 242.934 221.662 244.125 222.496 245.55C223.329 246.974 224.375 248.774 224.826 249.552C226.386 252.244 226.524 252.463 226.756 252.695C226.915 252.855 227.093 252.981 227.293 253.083C227.296 253.089 227.311 253.097 227.338 253.107C227.729 253.293 228.208 253.38 228.83 253.38C228.872 253.38 228.907 253.38 228.943 253.379C228.954 253.379 228.964 253.379 228.975 253.379C229.066 253.377 229.138 253.375 229.195 253.371C229.419 253.357 229.627 253.322 229.819 253.26C230.007 253.2 230.769 252.76 232.052 251.969L231.928 251.968C232.32 251.719 232.571 251.554 232.573 251.545C232.582 251.496 231.637 251.3 231.236 251.26Z" fill="black"/>
<path fill-rule="evenodd" clip-rule="evenodd" d="M231.236 251.26C230.785 251.221 230.388 251.253 230.044 251.364C229.921 251.402 229.566 251.607 228.981 251.963C228.827 252.056 228.626 252.007 228.535 251.851C228.443 251.693 228.346 251.528 228.247 251.359C227.652 250.349 226.411 248.235 225.49 246.666C224.381 244.784 223.717 243.718 223.541 243.542C223.222 243.216 222.834 243.009 222.377 242.909C221.969 242.827 220.985 242.815 220.985 242.902C220.985 242.934 221.662 244.125 222.496 245.55C223.329 246.974 224.375 248.774 224.826 249.552C226.386 252.244 226.524 252.463 226.756 252.695C226.915 252.855 227.093 252.981 227.293 253.083C227.296 253.089 227.311 253.097 227.338 253.107C227.729 253.293 228.208 253.38 228.83 253.38C228.872 253.38 228.907 253.38 228.943 253.379C228.954 253.379 228.964 253.379 228.975 253.379C229.066 253.377 229.138 253.375 229.195 253.371C229.419 253.357 229.627 253.322 229.819 253.26C230.007 253.2 230.769 252.76 232.052 251.969L231.928 251.968C232.32 251.719 232.571 251.554 232.573 251.545C232.582 251.496 231.637 251.3 231.236 251.26Z" fill="black"/>
<path fill-rule="evenodd" clip-rule="evenodd" d="M231.236 251.26C230.785 251.221 230.388 251.253 230.044 251.364C229.921 251.402 229.566 251.607 228.981 251.963C228.827 252.056 228.626 252.007 228.535 251.851C228.443 251.693 228.346 251.528 228.247 251.359C227.652 250.349 226.411 248.235 225.49 246.666C224.381 244.784 223.717 243.718 223.541 243.542C223.222 243.216 222.834 243.009 222.377 242.909C221.969 242.827 220.985 242.815 220.985 242.902C220.985 242.934 221.662 244.125 222.496 245.55C223.329 246.974 224.375 248.774 224.826 249.552C226.386 252.244 226.524 252.463 226.756 252.695C226.915 252.855 227.093 252.981 227.293 253.083C227.296 253.089 227.311 253.097 227.338 253.107C227.729 253.293 228.208 253.38 228.83 253.38C228.872 253.38 228.907 253.38 228.943 253.379C228.954 253.379 228.964 253.379 228.975 253.379C229.066 253.377 229.138 253.375 229.195 253.371C229.419 253.357 229.627 253.322 229.819 253.26C230.007 253.2 230.769 252.76 232.052 251.969L231.928 251.968C232.32 251.719 232.571 251.554 232.573 251.545C232.582 251.496 231.637 251.3 231.236 251.26Z" fill="black"/>
<path fill-rule="evenodd" clip-rule="evenodd" d="M230.949 243.957C231.236 244.273 231.576 244.485 231.978 244.589C232.196 244.647 233.338 244.686 235.325 244.705C236.979 244.718 239.208 244.735 240.274 244.746C241.345 244.752 242.255 244.755 242.303 244.746C242.368 244.734 242.337 244.647 242.129 244.286C241.687 243.519 241.239 243.118 240.647 242.959C240.359 242.882 240.123 242.873 237.294 242.867C236.476 242.865 234.582 242.858 233.082 242.849C231.581 242.839 230.335 242.847 230.31 242.862C230.241 242.902 230.699 243.673 230.949 243.957Z" fill="black"/>
<path fill-rule="evenodd" clip-rule="evenodd" d="M230.949 243.957C231.236 244.273 231.576 244.485 231.978 244.589C232.196 244.647 233.338 244.686 235.325 244.705C236.979 244.718 239.208 244.735 240.274 244.746C241.345 244.752 242.255 244.755 242.303 244.746C242.368 244.734 242.337 244.647 242.129 244.286C241.687 243.519 241.239 243.118 240.647 242.959C240.359 242.882 240.123 242.873 237.294 242.867C236.476 242.865 234.582 242.858 233.082 242.849C231.581 242.839 230.335 242.847 230.31 242.862C230.241 242.902 230.699 243.673 230.949 243.957Z" fill="black"/>
<path fill-rule="evenodd" clip-rule="evenodd" d="M230.949 243.957C231.236 244.273 231.576 244.485 231.978 244.589C232.196 244.647 233.338 244.686 235.325 244.705C236.979 244.718 239.208 244.735 240.274 244.746C241.345 244.752 242.255 244.755 242.303 244.746C242.368 244.734 242.337 244.647 242.129 244.286C241.687 243.519 241.239 243.118 240.647 242.959C240.359 242.882 240.123 242.873 237.294 242.867C236.476 242.865 234.582 242.858 233.082 242.849C231.581 242.839 230.335 242.847 230.31 242.862C230.241 242.902 230.699 243.673 230.949 243.957Z" fill="black"/>
<path fill-rule="evenodd" clip-rule="evenodd" d="M233.432 251.898C232.469 252.528 231.682 253.059 231.679 253.077C231.668 253.127 232.604 253.32 233.001 253.357C233.448 253.394 233.842 253.357 234.184 253.24C234.372 253.177 235.131 252.713 236.411 251.882" fill="black"/>
<path fill-rule="evenodd" clip-rule="evenodd" d="M233.432 251.898C232.469 252.528 231.682 253.059 231.679 253.077C231.668 253.127 232.604 253.32 233.001 253.357C233.448 253.394 233.842 253.357 234.184 253.24C234.372 253.177 235.131 252.713 236.411 251.882" fill="black"/>
<path fill-rule="evenodd" clip-rule="evenodd" d="M233.432 251.898C232.469 252.528 231.682 253.059 231.679 253.077C231.668 253.127 232.604 253.32 233.001 253.357C233.448 253.394 233.842 253.357 234.184 253.24C234.372 253.177 235.131 252.713 236.411 251.882" fill="black"/>
<path fill-rule="evenodd" clip-rule="evenodd" d="M236.88 251.715C237.244 251.233 235.891 251.316 235.498 251.316C235.046 251.315 234.651 251.309 234.306 251.419C234.191 251.456 233.867 251.641 233.34 251.961C233.197 252.047 233.011 252.001 232.927 251.857C232.834 251.697 232.736 251.53 232.635 251.359C232.04 250.349 230.799 248.235 229.879 246.666C228.77 244.784 228.106 243.718 227.93 243.542C227.611 243.216 227.222 243.009 226.765 242.909C226.358 242.827 225.374 242.815 225.374 242.902C225.374 242.934 226.05 244.125 226.884 245.55C227.717 246.974 228.764 248.774 229.215 249.552C230.775 252.244 230.913 252.463 231.145 252.695C231.621 253.172 232.247 253.379 233.219 253.379C233.676 253.379 233.776 253.36 233.751 253.291C233.742 253.267 233.62 253.052 233.43 252.724L235.077 252.723C236.043 252.122 236.858 251.743 236.88 251.715Z" fill="black"/>
<path fill-rule="evenodd" clip-rule="evenodd" d="M236.88 251.715C237.244 251.233 235.891 251.316 235.498 251.316C235.046 251.315 234.651 251.309 234.306 251.419C234.191 251.456 233.867 251.641 233.34 251.961C233.197 252.047 233.011 252.001 232.927 251.857C232.834 251.697 232.736 251.53 232.635 251.359C232.04 250.349 230.799 248.235 229.879 246.666C228.77 244.784 228.106 243.718 227.93 243.542C227.611 243.216 227.222 243.009 226.765 242.909C226.358 242.827 225.374 242.815 225.374 242.902C225.374 242.934 226.05 244.125 226.884 245.55C227.717 246.974 228.764 248.774 229.215 249.552C230.775 252.244 230.913 252.463 231.145 252.695C231.621 253.172 232.247 253.379 233.219 253.379C233.676 253.379 233.776 253.36 233.751 253.291C233.742 253.267 233.62 253.052 233.43 252.724L235.077 252.723C236.043 252.122 236.858 251.743 236.88 251.715Z" fill="black"/>
<path fill-rule="evenodd" clip-rule="evenodd" d="M236.88 251.715C237.244 251.233 235.891 251.316 235.498 251.316C235.046 251.315 234.651 251.309 234.306 251.419C234.191 251.456 233.867 251.641 233.34 251.961C233.197 252.047 233.011 252.001 232.927 251.857C232.834 251.697 232.736 251.53 232.635 251.359C232.04 250.349 230.799 248.235 229.879 246.666C228.77 244.784 228.106 243.718 227.93 243.542C227.611 243.216 227.222 243.009 226.765 242.909C226.358 242.827 225.374 242.815 225.374 242.902C225.374 242.934 226.05 244.125 226.884 245.55C227.717 246.974 228.764 248.774 229.215 249.552C230.775 252.244 230.913 252.463 231.145 252.695C231.621 253.172 232.247 253.379 233.219 253.379C233.676 253.379 233.776 253.36 233.751 253.291C233.742 253.267 233.62 253.052 233.43 252.724L235.077 252.723C236.043 252.122 236.858 251.743 236.88 251.715Z" fill="black"/>
<path fill-rule="evenodd" clip-rule="evenodd" d="M237.207 309.757C236.891 309.411 236.518 309.177 236.076 309.063C235.93 309.024 235.404 309.004 234.521 308.99L234.497 308.97C233.747 308.965 233.057 308.965 232.522 308.967C232.481 308.966 232.442 308.966 232.399 308.965L232.401 308.967C231.831 308.97 231.466 308.976 231.452 308.984C231.376 309.028 231.879 309.875 232.153 310.187C232.468 310.533 232.842 310.767 233.284 310.881C233.523 310.945 234.778 310.988 236.96 311.009L236.922 310.977C237.514 310.974 237.893 310.968 237.907 310.96C237.983 310.916 237.481 310.069 237.207 309.757Z" fill="black"/>
<path fill-rule="evenodd" clip-rule="evenodd" d="M237.207 309.757C236.891 309.411 236.518 309.177 236.076 309.063C235.93 309.024 235.404 309.004 234.521 308.99L234.497 308.97C233.747 308.965 233.057 308.965 232.522 308.967C232.481 308.966 232.442 308.966 232.399 308.965L232.401 308.967C231.831 308.97 231.466 308.976 231.452 308.984C231.376 309.028 231.879 309.875 232.153 310.187C232.468 310.533 232.842 310.767 233.284 310.881C233.523 310.945 234.778 310.988 236.96 311.009L236.922 310.977C237.514 310.974 237.893 310.968 237.907 310.96C237.983 310.916 237.481 310.069 237.207 309.757Z" fill="black"/>
<path fill-rule="evenodd" clip-rule="evenodd" d="M237.207 309.757C236.891 309.411 236.518 309.177 236.076 309.063C235.93 309.024 235.404 309.004 234.521 308.99L234.497 308.97C233.747 308.965 233.057 308.965 232.522 308.967C232.481 308.966 232.442 308.966 232.399 308.965L232.401 308.967C231.831 308.97 231.466 308.976 231.452 308.984C231.376 309.028 231.879 309.875 232.153 310.187C232.468 310.533 232.842 310.767 233.284 310.881C233.523 310.945 234.778 310.988 236.96 311.009L236.922 310.977C237.514 310.974 237.893 310.968 237.907 310.96C237.983 310.916 237.481 310.069 237.207 309.757Z" fill="black"/>
<path fill-rule="evenodd" clip-rule="evenodd" d="M231.236 314.399C230.785 314.36 230.388 314.392 230.044 314.502C229.921 314.541 229.566 314.746 228.981 315.102C228.827 315.195 228.626 315.146 228.535 314.99C228.443 314.832 228.346 314.667 228.247 314.498C227.652 313.488 226.411 311.374 225.49 309.805C224.381 307.923 223.717 306.857 223.541 306.681C223.222 306.355 222.834 306.148 222.377 306.048C221.969 305.966 220.985 305.953 220.985 306.041C220.985 306.073 221.662 307.264 222.496 308.689C223.329 310.113 224.375 311.913 224.826 312.691C226.386 315.383 226.524 315.602 226.756 315.834C226.915 315.994 227.093 316.12 227.293 316.222C227.296 316.228 227.311 316.236 227.338 316.246C227.729 316.432 228.208 316.518 228.83 316.518C228.872 316.518 228.907 316.518 228.943 316.518C228.954 316.518 228.964 316.518 228.975 316.518C229.066 316.516 229.138 316.514 229.195 316.509C229.419 316.495 229.627 316.461 229.819 316.399C230.007 316.339 230.769 315.899 232.052 315.108L231.928 315.107C232.32 314.858 232.571 314.693 232.573 314.684C232.582 314.635 231.637 314.439 231.236 314.399Z" fill="black"/>
<path fill-rule="evenodd" clip-rule="evenodd" d="M231.236 314.399C230.785 314.36 230.388 314.392 230.044 314.502C229.921 314.541 229.566 314.746 228.981 315.102C228.827 315.195 228.626 315.146 228.535 314.99C228.443 314.832 228.346 314.667 228.247 314.498C227.652 313.488 226.411 311.374 225.49 309.805C224.381 307.923 223.717 306.857 223.541 306.681C223.222 306.355 222.834 306.148 222.377 306.048C221.969 305.966 220.985 305.953 220.985 306.041C220.985 306.073 221.662 307.264 222.496 308.689C223.329 310.113 224.375 311.913 224.826 312.691C226.386 315.383 226.524 315.602 226.756 315.834C226.915 315.994 227.093 316.12 227.293 316.222C227.296 316.228 227.311 316.236 227.338 316.246C227.729 316.432 228.208 316.518 228.83 316.518C228.872 316.518 228.907 316.518 228.943 316.518C228.954 316.518 228.964 316.518 228.975 316.518C229.066 316.516 229.138 316.514 229.195 316.509C229.419 316.495 229.627 316.461 229.819 316.399C230.007 316.339 230.769 315.899 232.052 315.108L231.928 315.107C232.32 314.858 232.571 314.693 232.573 314.684C232.582 314.635 231.637 314.439 231.236 314.399Z" fill="black"/>
<path fill-rule="evenodd" clip-rule="evenodd" d="M231.236 314.399C230.785 314.36 230.388 314.392 230.044 314.502C229.921 314.541 229.566 314.746 228.981 315.102C228.827 315.195 228.626 315.146 228.535 314.99C228.443 314.832 228.346 314.667 228.247 314.498C227.652 313.488 226.411 311.374 225.49 309.805C224.381 307.923 223.717 306.857 223.541 306.681C223.222 306.355 222.834 306.148 222.377 306.048C221.969 305.966 220.985 305.953 220.985 306.041C220.985 306.073 221.662 307.264 222.496 308.689C223.329 310.113 224.375 311.913 224.826 312.691C226.386 315.383 226.524 315.602 226.756 315.834C226.915 315.994 227.093 316.12 227.293 316.222C227.296 316.228 227.311 316.236 227.338 316.246C227.729 316.432 228.208 316.518 228.83 316.518C228.872 316.518 228.907 316.518 228.943 316.518C228.954 316.518 228.964 316.518 228.975 316.518C229.066 316.516 229.138 316.514 229.195 316.509C229.419 316.495 229.627 316.461 229.819 316.399C230.007 316.339 230.769 315.899 232.052 315.108L231.928 315.107C232.32 314.858 232.571 314.693 232.573 314.684C232.582 314.635 231.637 314.439 231.236 314.399Z" fill="black"/>
<path fill-rule="evenodd" clip-rule="evenodd" d="M230.948 307.096C231.235 307.412 231.575 307.624 231.977 307.728C232.195 307.786 233.337 307.825 235.324 307.844C236.978 307.857 239.207 307.874 240.273 307.884C241.344 307.891 242.254 307.894 242.302 307.885C242.367 307.873 242.336 307.785 242.128 307.425C241.686 306.658 241.238 306.257 240.646 306.098C240.358 306.021 240.122 306.012 237.293 306.006C236.475 306.004 234.581 305.997 233.081 305.988C231.58 305.978 230.334 305.986 230.309 306.001C230.24 306.041 230.698 306.812 230.948 307.096Z" fill="black"/>
<path fill-rule="evenodd" clip-rule="evenodd" d="M230.948 307.096C231.235 307.412 231.575 307.624 231.977 307.728C232.195 307.786 233.337 307.825 235.324 307.844C236.978 307.857 239.207 307.874 240.273 307.884C241.344 307.891 242.254 307.894 242.302 307.885C242.367 307.873 242.336 307.785 242.128 307.425C241.686 306.658 241.238 306.257 240.646 306.098C240.358 306.021 240.122 306.012 237.293 306.006C236.475 306.004 234.581 305.997 233.081 305.988C231.58 305.978 230.334 305.986 230.309 306.001C230.24 306.041 230.698 306.812 230.948 307.096Z" fill="black"/>
<path fill-rule="evenodd" clip-rule="evenodd" d="M230.948 307.096C231.235 307.412 231.575 307.624 231.977 307.728C232.195 307.786 233.337 307.825 235.324 307.844C236.978 307.857 239.207 307.874 240.273 307.884C241.344 307.891 242.254 307.894 242.302 307.885C242.367 307.873 242.336 307.785 242.128 307.425C241.686 306.658 241.238 306.257 240.646 306.098C240.358 306.021 240.122 306.012 237.293 306.006C236.475 306.004 234.581 305.997 233.081 305.988C231.58 305.978 230.334 305.986 230.309 306.001C230.24 306.041 230.698 306.812 230.948 307.096Z" fill="black"/>
<path fill-rule="evenodd" clip-rule="evenodd" d="M233.432 315.037C232.469 315.667 231.682 316.198 231.679 316.216C231.668 316.266 232.604 316.459 233.001 316.496C233.448 316.533 233.842 316.496 234.184 316.378C234.372 316.316 235.131 315.852 236.411 315.021" fill="black"/>
<path fill-rule="evenodd" clip-rule="evenodd" d="M233.432 315.037C232.469 315.667 231.682 316.198 231.679 316.216C231.668 316.266 232.604 316.459 233.001 316.496C233.448 316.533 233.842 316.496 234.184 316.378C234.372 316.316 235.131 315.852 236.411 315.021" fill="black"/>
<path fill-rule="evenodd" clip-rule="evenodd" d="M233.432 315.037C232.469 315.667 231.682 316.198 231.679 316.216C231.668 316.266 232.604 316.459 233.001 316.496C233.448 316.533 233.842 316.496 234.184 316.378C234.372 316.316 235.131 315.852 236.411 315.021" fill="black"/>
<path fill-rule="evenodd" clip-rule="evenodd" d="M236.88 314.854C237.244 314.372 235.891 314.455 235.498 314.455C235.046 314.454 234.651 314.447 234.306 314.558C234.191 314.594 233.867 314.78 233.34 315.1C233.197 315.186 233.011 315.14 232.927 314.996C232.834 314.836 232.736 314.669 232.635 314.498C232.04 313.488 230.799 311.374 229.879 309.805C228.77 307.923 228.106 306.857 227.93 306.681C227.611 306.355 227.222 306.148 226.765 306.048C226.358 305.966 225.374 305.953 225.374 306.041C225.374 306.073 226.05 307.264 226.884 308.689C227.717 310.113 228.764 311.913 229.215 312.691C230.775 315.383 230.913 315.602 231.145 315.834C231.621 316.311 232.247 316.518 233.219 316.518C233.676 316.518 233.776 316.499 233.751 316.43C233.742 316.406 233.62 316.191 233.43 315.863L235.077 315.862C236.043 315.261 236.858 314.882 236.88 314.854Z" fill="black"/>
<path fill-rule="evenodd" clip-rule="evenodd" d="M236.88 314.854C237.244 314.372 235.891 314.455 235.498 314.455C235.046 314.454 234.651 314.447 234.306 314.558C234.191 314.594 233.867 314.78 233.34 315.1C233.197 315.186 233.011 315.14 232.927 314.996C232.834 314.836 232.736 314.669 232.635 314.498C232.04 313.488 230.799 311.374 229.879 309.805C228.77 307.923 228.106 306.857 227.93 306.681C227.611 306.355 227.222 306.148 226.765 306.048C226.358 305.966 225.374 305.953 225.374 306.041C225.374 306.073 226.05 307.264 226.884 308.689C227.717 310.113 228.764 311.913 229.215 312.691C230.775 315.383 230.913 315.602 231.145 315.834C231.621 316.311 232.247 316.518 233.219 316.518C233.676 316.518 233.776 316.499 233.751 316.43C233.742 316.406 233.62 316.191 233.43 315.863L235.077 315.862C236.043 315.261 236.858 314.882 236.88 314.854Z" fill="black"/>
<path fill-rule="evenodd" clip-rule="evenodd" d="M236.88 314.854C237.244 314.372 235.891 314.455 235.498 314.455C235.046 314.454 234.651 314.447 234.306 314.558C234.191 314.594 233.867 314.78 233.34 315.1C233.197 315.186 233.011 315.14 232.927 314.996C232.834 314.836 232.736 314.669 232.635 314.498C232.04 313.488 230.799 311.374 229.879 309.805C228.77 307.923 228.106 306.857 227.93 306.681C227.611 306.355 227.222 306.148 226.765 306.048C226.358 305.966 225.374 305.953 225.374 306.041C225.374 306.073 226.05 307.264 226.884 308.689C227.717 310.113 228.764 311.913 229.215 312.691C230.775 315.383 230.913 315.602 231.145 315.834C231.621 316.311 232.247 316.518 233.219 316.518C233.676 316.518 233.776 316.499 233.751 316.43C233.742 316.406 233.62 316.191 233.43 315.863L235.077 315.862C236.043 315.261 236.858 314.882 236.88 314.854Z" fill="black"/>
<path fill-rule="evenodd" clip-rule="evenodd" d="M397.482 246.618C397.167 246.272 396.793 246.038 396.351 245.924C396.205 245.885 395.679 245.865 394.796 245.851L394.773 245.831C394.023 245.826 393.332 245.826 392.798 245.828C392.757 245.827 392.717 245.827 392.675 245.826L392.677 245.828C392.106 245.831 391.741 245.837 391.727 245.845C391.652 245.889 392.154 246.736 392.428 247.048C392.743 247.394 393.117 247.628 393.559 247.742C393.799 247.806 395.053 247.849 397.236 247.87L397.197 247.838C397.789 247.835 398.168 247.829 398.182 247.821C398.259 247.777 397.756 246.93 397.482 246.618Z" fill="black"/>
<path fill-rule="evenodd" clip-rule="evenodd" d="M397.482 246.618C397.167 246.272 396.793 246.038 396.351 245.924C396.205 245.885 395.679 245.865 394.796 245.851L394.773 245.831C394.023 245.826 393.332 245.826 392.798 245.828C392.757 245.827 392.717 245.827 392.675 245.826L392.677 245.828C392.106 245.831 391.741 245.837 391.727 245.845C391.652 245.889 392.154 246.736 392.428 247.048C392.743 247.394 393.117 247.628 393.559 247.742C393.799 247.806 395.053 247.849 397.236 247.87L397.197 247.838C397.789 247.835 398.168 247.829 398.182 247.821C398.259 247.777 397.756 246.93 397.482 246.618Z" fill="black"/>
<path fill-rule="evenodd" clip-rule="evenodd" d="M397.482 246.618C397.167 246.272 396.793 246.038 396.351 245.924C396.205 245.885 395.679 245.865 394.796 245.851L394.773 245.831C394.023 245.826 393.332 245.826 392.798 245.828C392.757 245.827 392.717 245.827 392.675 245.826L392.677 245.828C392.106 245.831 391.741 245.837 391.727 245.845C391.652 245.889 392.154 246.736 392.428 247.048C392.743 247.394 393.117 247.628 393.559 247.742C393.799 247.806 395.053 247.849 397.236 247.87L397.197 247.838C397.789 247.835 398.168 247.829 398.182 247.821C398.259 247.777 397.756 246.93 397.482 246.618Z" fill="black"/>
<path fill-rule="evenodd" clip-rule="evenodd" d="M391.511 251.26C391.06 251.221 390.663 251.253 390.319 251.364C390.196 251.402 389.842 251.607 389.256 251.963C389.102 252.056 388.901 252.007 388.81 251.851C388.718 251.693 388.622 251.528 388.522 251.359C387.927 250.349 386.686 248.235 385.765 246.666C384.657 244.784 383.992 243.718 383.817 243.542C383.497 243.216 383.109 243.009 382.652 242.909C382.245 242.827 381.261 242.815 381.261 242.902C381.261 242.934 381.937 244.125 382.771 245.55C383.604 246.974 384.651 248.774 385.102 249.552C386.662 252.244 386.8 252.463 387.031 252.695C387.191 252.855 387.368 252.981 387.568 253.083C387.571 253.089 387.587 253.097 387.614 253.107C388.004 253.293 388.483 253.38 389.105 253.38C389.147 253.38 389.182 253.38 389.219 253.379C389.229 253.379 389.24 253.379 389.25 253.379C389.342 253.377 389.414 253.375 389.47 253.371C389.694 253.357 389.903 253.322 390.094 253.26C390.283 253.2 391.044 252.76 392.327 251.969L392.204 251.968C392.595 251.719 392.847 251.554 392.849 251.545C392.858 251.496 391.912 251.3 391.511 251.26Z" fill="black"/>
<path fill-rule="evenodd" clip-rule="evenodd" d="M391.511 251.26C391.06 251.221 390.663 251.253 390.319 251.364C390.196 251.402 389.842 251.607 389.256 251.963C389.102 252.056 388.901 252.007 388.81 251.851C388.718 251.693 388.622 251.528 388.522 251.359C387.927 250.349 386.686 248.235 385.765 246.666C384.657 244.784 383.992 243.718 383.817 243.542C383.497 243.216 383.109 243.009 382.652 242.909C382.245 242.827 381.261 242.815 381.261 242.902C381.261 242.934 381.937 244.125 382.771 245.55C383.604 246.974 384.651 248.774 385.102 249.552C386.662 252.244 386.8 252.463 387.031 252.695C387.191 252.855 387.368 252.981 387.568 253.083C387.571 253.089 387.587 253.097 387.614 253.107C388.004 253.293 388.483 253.38 389.105 253.38C389.147 253.38 389.182 253.38 389.219 253.379C389.229 253.379 389.24 253.379 389.25 253.379C389.342 253.377 389.414 253.375 389.47 253.371C389.694 253.357 389.903 253.322 390.094 253.26C390.283 253.2 391.044 252.76 392.327 251.969L392.204 251.968C392.595 251.719 392.847 251.554 392.849 251.545C392.858 251.496 391.912 251.3 391.511 251.26Z" fill="black"/>
<path fill-rule="evenodd" clip-rule="evenodd" d="M391.511 251.26C391.06 251.221 390.663 251.253 390.319 251.364C390.196 251.402 389.842 251.607 389.256 251.963C389.102 252.056 388.901 252.007 388.81 251.851C388.718 251.693 388.622 251.528 388.522 251.359C387.927 250.349 386.686 248.235 385.765 246.666C384.657 244.784 383.992 243.718 383.817 243.542C383.497 243.216 383.109 243.009 382.652 242.909C382.245 242.827 381.261 242.815 381.261 242.902C381.261 242.934 381.937 244.125 382.771 245.55C383.604 246.974 384.651 248.774 385.102 249.552C386.662 252.244 386.8 252.463 387.031 252.695C387.191 252.855 387.368 252.981 387.568 253.083C387.571 253.089 387.587 253.097 387.614 253.107C388.004 253.293 388.483 253.38 389.105 253.38C389.147 253.38 389.182 253.38 389.219 253.379C389.229 253.379 389.24 253.379 389.25 253.379C389.342 253.377 389.414 253.375 389.47 253.371C389.694 253.357 389.903 253.322 390.094 253.26C390.283 253.2 391.044 252.76 392.327 251.969L392.204 251.968C392.595 251.719 392.847 251.554 392.849 251.545C392.858 251.496 391.912 251.3 391.511 251.26Z" fill="black"/>
<path fill-rule="evenodd" clip-rule="evenodd" d="M391.224 243.957C391.511 244.273 391.851 244.485 392.253 244.589C392.471 244.647 393.613 244.686 395.6 244.705C397.254 244.718 399.483 244.735 400.549 244.746C401.62 244.752 402.53 244.755 402.578 244.746C402.643 244.734 402.613 244.647 402.405 244.286C401.963 243.519 401.515 243.118 400.922 242.959C400.634 242.882 400.398 242.873 397.569 242.867C396.752 242.865 394.857 242.858 393.357 242.849C391.857 242.839 390.61 242.847 390.585 242.862C390.516 242.902 390.974 243.673 391.224 243.957Z" fill="black"/>
<path fill-rule="evenodd" clip-rule="evenodd" d="M391.224 243.957C391.511 244.273 391.851 244.485 392.253 244.589C392.471 244.647 393.613 244.686 395.6 244.705C397.254 244.718 399.483 244.735 400.549 244.746C401.62 244.752 402.53 244.755 402.578 244.746C402.643 244.734 402.613 244.647 402.405 244.286C401.963 243.519 401.515 243.118 400.922 242.959C400.634 242.882 400.398 242.873 397.569 242.867C396.752 242.865 394.857 242.858 393.357 242.849C391.857 242.839 390.61 242.847 390.585 242.862C390.516 242.902 390.974 243.673 391.224 243.957Z" fill="black"/>
<path fill-rule="evenodd" clip-rule="evenodd" d="M391.224 243.957C391.511 244.273 391.851 244.485 392.253 244.589C392.471 244.647 393.613 244.686 395.6 244.705C397.254 244.718 399.483 244.735 400.549 244.746C401.62 244.752 402.53 244.755 402.578 244.746C402.643 244.734 402.613 244.647 402.405 244.286C401.963 243.519 401.515 243.118 400.922 242.959C400.634 242.882 400.398 242.873 397.569 242.867C396.752 242.865 394.857 242.858 393.357 242.849C391.857 242.839 390.61 242.847 390.585 242.862C390.516 242.902 390.974 243.673 391.224 243.957Z" fill="black"/>
<path fill-rule="evenodd" clip-rule="evenodd" d="M393.707 251.898C392.744 252.528 391.958 253.059 391.954 253.077C391.944 253.127 392.88 253.32 393.276 253.357C393.723 253.394 394.117 253.357 394.46 253.24C394.647 253.177 395.407 252.713 396.686 251.882" fill="black"/>
<path fill-rule="evenodd" clip-rule="evenodd" d="M393.707 251.898C392.744 252.528 391.958 253.059 391.954 253.077C391.944 253.127 392.88 253.32 393.276 253.357C393.723 253.394 394.117 253.357 394.46 253.24C394.647 253.177 395.407 252.713 396.686 251.882" fill="black"/>
<path fill-rule="evenodd" clip-rule="evenodd" d="M393.707 251.898C392.744 252.528 391.958 253.059 391.954 253.077C391.944 253.127 392.88 253.32 393.276 253.357C393.723 253.394 394.117 253.357 394.46 253.24C394.647 253.177 395.407 252.713 396.686 251.882" fill="black"/>
<path fill-rule="evenodd" clip-rule="evenodd" d="M397.155 251.715C397.519 251.233 396.166 251.316 395.774 251.316C395.321 251.315 394.926 251.309 394.582 251.419C394.466 251.456 394.143 251.641 393.615 251.961C393.472 252.047 393.287 252.001 393.202 251.857C393.109 251.697 393.012 251.53 392.911 251.359C392.316 250.349 391.075 248.235 390.154 246.666C389.046 244.784 388.381 243.718 388.206 243.542C387.886 243.216 387.498 243.009 387.041 242.909C386.633 242.827 385.649 242.815 385.649 242.902C385.649 242.934 386.326 244.125 387.16 245.55C387.993 246.974 389.039 248.774 389.49 249.552C391.051 252.244 391.188 252.463 391.42 252.695C391.896 253.172 392.522 253.379 393.494 253.379C393.951 253.379 394.051 253.36 394.026 253.291C394.017 253.267 393.895 253.052 393.705 252.724L395.353 252.723C396.319 252.122 397.134 251.743 397.155 251.715Z" fill="black"/>
<path fill-rule="evenodd" clip-rule="evenodd" d="M397.155 251.715C397.519 251.233 396.166 251.316 395.774 251.316C395.321 251.315 394.926 251.309 394.582 251.419C394.466 251.456 394.143 251.641 393.615 251.961C393.472 252.047 393.287 252.001 393.202 251.857C393.109 251.697 393.012 251.53 392.911 251.359C392.316 250.349 391.075 248.235 390.154 246.666C389.046 244.784 388.381 243.718 388.206 243.542C387.886 243.216 387.498 243.009 387.041 242.909C386.633 242.827 385.649 242.815 385.649 242.902C385.649 242.934 386.326 244.125 387.16 245.55C387.993 246.974 389.039 248.774 389.49 249.552C391.051 252.244 391.188 252.463 391.42 252.695C391.896 253.172 392.522 253.379 393.494 253.379C393.951 253.379 394.051 253.36 394.026 253.291C394.017 253.267 393.895 253.052 393.705 252.724L395.353 252.723C396.319 252.122 397.134 251.743 397.155 251.715Z" fill="black"/>
<path fill-rule="evenodd" clip-rule="evenodd" d="M397.155 251.715C397.519 251.233 396.166 251.316 395.774 251.316C395.321 251.315 394.926 251.309 394.582 251.419C394.466 251.456 394.143 251.641 393.615 251.961C393.472 252.047 393.287 252.001 393.202 251.857C393.109 251.697 393.012 251.53 392.911 251.359C392.316 250.349 391.075 248.235 390.154 246.666C389.046 244.784 388.381 243.718 388.206 243.542C387.886 243.216 387.498 243.009 387.041 242.909C386.633 242.827 385.649 242.815 385.649 242.902C385.649 242.934 386.326 244.125 387.16 245.55C387.993 246.974 389.039 248.774 389.49 249.552C391.051 252.244 391.188 252.463 391.42 252.695C391.896 253.172 392.522 253.379 393.494 253.379C393.951 253.379 394.051 253.36 394.026 253.291C394.017 253.267 393.895 253.052 393.705 252.724L395.353 252.723C396.319 252.122 397.134 251.743 397.155 251.715Z" fill="black"/>
</g>
<defs>
<clipPath id="clip0_220_237">
<rect width="326.622" height="241.628" fill="white" transform="translate(151.775 193.059)"/>
</clipPath>
</defs>
</svg>
