<svg width="549" height="549" viewBox="0 0 549 549" fill="none" xmlns="http://www.w3.org/2000/svg">
<path d="M186.114 370.125C141.666 365.894 118.466 315.135 144.353 278.757L235.88 150.143C261.767 113.765 317.327 119.053 335.887 159.661L401.507 303.232C420.067 343.84 387.708 389.312 343.26 385.082L186.114 370.125Z" fill="#C4C4C4"/>
<g clip-path="url(#clip0_220_365)">
<path d="M261.073 350.725H249.402V260.812H258.893C259.353 260.812 259.794 260.994 260.12 261.319C260.446 261.643 260.63 262.084 260.632 262.544L261.073 350.725Z" fill="#CCCCCC"/>
<path d="M250.493 351.201H125.169V287.167H250.493V351.201Z" fill="white"/>
<path d="M201.096 350.963H125.406V287.406H250.254V301.753C250.24 314.799 245.056 327.308 235.84 336.533C226.624 345.759 214.129 350.948 201.096 350.963Z" fill="#D96666"/>
<path fill-rule="evenodd" clip-rule="evenodd" d="M204.233 318.491C203.378 317.552 202.365 316.919 201.167 316.609C200.77 316.503 199.344 316.448 196.951 316.411L196.887 316.358C194.852 316.344 192.98 316.343 191.531 316.348C191.419 316.346 191.312 316.346 191.197 316.344L191.202 316.348C189.655 316.356 188.666 316.373 188.628 316.396C188.423 316.515 189.785 318.811 190.529 319.657C191.384 320.596 192.397 321.229 193.595 321.539C194.245 321.713 197.647 321.828 203.565 321.885L203.462 321.8C205.066 321.792 206.094 321.775 206.132 321.753C206.339 321.634 204.977 319.338 204.233 318.491Z" fill="white"/>
<path fill-rule="evenodd" clip-rule="evenodd" d="M188.04 331.08C186.817 330.973 185.742 331.06 184.808 331.36C184.476 331.464 183.513 332.022 181.926 332.985C181.509 333.238 180.963 333.104 180.716 332.683C180.467 332.254 180.205 331.806 179.935 331.347C178.321 328.609 174.957 322.875 172.46 318.622C169.454 313.518 167.651 310.626 167.176 310.15C166.31 309.266 165.256 308.705 164.017 308.432C162.913 308.211 160.244 308.177 160.244 308.415C160.244 308.5 162.078 311.732 164.339 315.594C166.598 319.457 169.437 324.338 170.659 326.449C174.891 333.747 175.264 334.342 175.893 334.971C176.325 335.404 176.806 335.746 177.348 336.022C177.357 336.039 177.399 336.062 177.472 336.088C178.531 336.593 179.829 336.827 181.516 336.827C181.63 336.827 181.726 336.827 181.824 336.825C181.852 336.825 181.881 336.825 181.909 336.825C182.158 336.821 182.352 336.816 182.505 336.802C183.113 336.765 183.679 336.67 184.198 336.502C184.71 336.341 186.774 335.147 190.254 333.002L189.918 333C190.981 332.324 191.662 331.876 191.668 331.851C191.692 331.719 189.127 331.188 188.04 331.08Z" fill="white"/>
<path fill-rule="evenodd" clip-rule="evenodd" d="M187.259 311.276C188.039 312.133 188.96 312.707 190.05 312.989C190.641 313.147 193.738 313.253 199.126 313.304C203.612 313.34 209.656 313.385 212.547 313.414C215.452 313.433 217.918 313.438 218.048 313.416C218.226 313.383 218.143 313.145 217.579 312.167C216.38 310.088 215.165 309.001 213.559 308.57C212.778 308.361 212.138 308.336 204.466 308.319C202.249 308.313 197.112 308.296 193.043 308.27C188.975 308.244 185.595 308.266 185.527 308.306C185.34 308.415 186.582 310.505 187.259 311.276Z" fill="white"/>
<path fill-rule="evenodd" clip-rule="evenodd" d="M193.995 332.809C191.383 334.518 189.251 335.958 189.241 336.007C189.213 336.141 191.751 336.666 192.827 336.766C194.039 336.867 195.107 336.766 196.035 336.447C196.545 336.277 198.604 335.02 202.074 332.766" fill="white"/>
<path fill-rule="evenodd" clip-rule="evenodd" d="M203.345 332.313C204.332 331.007 200.664 331.232 199.599 331.232C198.373 331.23 197.301 331.211 196.366 331.511C196.053 331.61 195.176 332.112 193.745 332.98C193.358 333.214 192.854 333.089 192.626 332.698C192.373 332.265 192.109 331.812 191.835 331.347C190.222 328.609 186.857 322.875 184.36 318.622C181.354 313.518 179.552 310.626 179.076 310.15C178.21 309.266 177.157 308.705 175.917 308.432C174.813 308.211 172.145 308.177 172.145 308.415C172.145 308.5 173.979 311.732 176.24 315.594C178.499 319.457 181.337 324.338 182.56 326.449C186.791 333.747 187.165 334.342 187.793 334.971C189.084 336.264 190.782 336.825 193.417 336.825C194.657 336.825 194.928 336.774 194.86 336.587C194.836 336.521 194.506 335.939 193.991 335.049L198.457 335.047C201.077 333.418 203.287 332.39 203.345 332.313Z" fill="white"/>
<path d="M259.171 263.366C259.109 263.485 259.06 263.611 259.026 263.742L254.704 280.417L250.017 289.304H125.645V287.09L132.725 280.417L140.986 264.6C141.35 263.902 141.829 263.27 142.402 262.73C143.71 261.498 145.438 260.812 147.234 260.812H257.634C257.934 260.812 258.228 260.89 258.489 261.037C258.75 261.185 258.969 261.397 259.123 261.654C259.278 261.911 259.364 262.204 259.372 262.504C259.381 262.804 259.311 263.101 259.171 263.366Z" fill="#F2F2F2"/>
<path d="M250.493 351.201H125.169V287.167H250.493V351.201ZM126.12 350.249H249.541V288.12H126.12V350.249Z" fill="#E6E6E6"/>
<path d="M257.013 271.896L254.704 280.417H132.726L136.667 273.325L257.013 271.896Z" fill="#CCCCCC"/>
<path d="M137.529 308.394C141.497 308.394 144.715 305.173 144.715 301.2C144.715 297.227 141.497 294.007 137.529 294.007C133.56 294.007 130.343 297.227 130.343 301.2C130.343 305.173 133.56 308.394 137.529 308.394Z" fill="white"/>
<path d="M216.289 275.584H210.186V228.564H215.149C215.389 228.564 215.62 228.659 215.79 228.829C215.961 228.999 216.057 229.229 216.058 229.47L216.289 275.584Z" fill="#CCCCCC"/>
<path d="M210.756 275.833H145.218V242.347H210.756V275.833Z" fill="white"/>
<path d="M184.924 275.709H145.342V242.471H210.632V249.974C210.624 256.797 207.913 263.338 203.094 268.163C198.274 272.987 191.74 275.701 184.924 275.709Z" fill="#F2F2F2"/>
<path d="M215.294 229.9C215.261 229.962 215.236 230.028 215.218 230.096L212.958 238.817L210.507 243.464H145.466V242.306L149.169 238.817L153.489 230.545C153.679 230.18 153.93 229.85 154.229 229.567C154.913 228.923 155.817 228.564 156.756 228.564H214.49C214.647 228.564 214.801 228.605 214.937 228.682C215.074 228.759 215.188 228.87 215.269 229.005C215.35 229.139 215.395 229.292 215.399 229.449C215.404 229.606 215.367 229.761 215.294 229.9Z" fill="#F2F2F2"/>
<path d="M210.756 275.833H145.218V242.347H210.756V275.833ZM145.715 275.335H210.259V242.845H145.715V275.335Z" fill="#E6E6E6"/>
<path d="M214.165 234.361L212.958 238.816H149.169L151.23 235.107L214.165 234.361Z" fill="#CCCCCC"/>
<path d="M158.081 259.894H147.634V260.473H158.081V259.894Z" fill="white"/>
<path d="M158.081 261.92H147.634V262.499H158.081V261.92Z" fill="white"/>
<path d="M158.081 263.945H147.634V264.524H158.081V263.945Z" fill="white"/>
<path d="M151.681 253.447C153.756 253.447 155.439 251.763 155.439 249.685C155.439 247.608 153.756 245.924 151.681 245.924C149.605 245.924 147.923 247.608 147.923 249.685C147.923 251.763 149.605 253.447 151.681 253.447Z" fill="white"/>
<path d="M396.152 351.168L396.114 350.965C395.496 347.557 395.628 344.055 396.499 340.702C397.37 337.349 398.96 334.227 401.158 331.552C402.403 330.061 403.831 328.733 405.407 327.599L405.558 327.491L405.623 327.664C406.408 329.733 407.397 331.806 407.848 332.724L408.153 325.875L408.326 325.783C409.122 325.356 410.027 325.177 410.925 325.27C411.823 325.363 412.673 325.723 413.365 326.303C414.081 326.879 414.608 327.656 414.878 328.535C415.149 329.413 415.151 330.352 414.883 331.231C414.647 332.036 414.423 332.871 414.207 333.678C413.465 336.452 412.697 339.32 411.209 341.735C410.065 343.552 408.53 345.09 406.717 346.237C404.903 347.385 402.856 348.112 400.725 348.366L396.152 351.168Z" fill="#BDE5AA"/>
<path d="M415.08 351.084C415.08 351.159 415.066 351.233 415.038 351.302C415.009 351.37 414.968 351.433 414.915 351.486C414.862 351.538 414.8 351.58 414.731 351.608C414.662 351.637 414.589 351.651 414.514 351.651H111.846C111.696 351.651 111.552 351.591 111.446 351.485C111.34 351.379 111.28 351.235 111.28 351.084C111.28 350.934 111.34 350.79 111.446 350.684C111.552 350.578 111.696 350.518 111.846 350.518H414.514C414.589 350.518 414.662 350.532 414.731 350.561C414.8 350.589 414.862 350.631 414.915 350.683C414.968 350.736 415.009 350.799 415.038 350.867C415.066 350.936 415.08 351.01 415.08 351.084Z" fill="#CCCCCC"/>
<path d="M346.428 206.101L337.765 204.859C334.835 209.764 333.793 222.818 333.793 222.818L325.315 242.991C324.753 243.373 324.302 243.896 324.007 244.508C323.712 245.119 323.583 245.798 323.633 246.476C323.683 247.154 323.91 247.806 324.292 248.368C324.674 248.929 325.197 249.38 325.809 249.675C326.42 249.97 327.099 250.099 327.776 250.048C328.452 249.997 329.104 249.768 329.665 249.385C330.225 249.002 330.675 248.478 330.969 247.865C331.263 247.253 331.39 246.574 331.339 245.896L345.259 222.416L346.428 206.101Z" fill="#FFB8B8"/>
<path d="M345.049 182.025C346.39 182.233 347.668 182.734 348.794 183.493C349.919 184.251 350.864 185.249 351.56 186.415C352.257 187.581 352.688 188.886 352.823 190.237C352.959 191.589 352.795 192.954 352.343 194.235L350.505 199.451C350.505 199.451 349.504 215.158 345.688 219.591L333.976 218.53C333.976 218.53 336.117 210.606 334.474 206.772C333.467 204.424 333.523 196.314 334.515 189.717C334.701 188.519 335.121 187.369 335.751 186.334C336.381 185.299 337.209 184.398 338.188 183.683C339.166 182.969 340.276 182.455 341.453 182.17C342.631 181.885 343.852 181.836 345.049 182.025Z" fill="#E6E6E6"/>
<path d="M373.681 344.998L368.462 344.998L365.979 324.848L373.682 324.848L373.681 344.998Z" fill="#FFB6B6"/>
<path d="M373.864 350.448L357.816 350.448V350.245C357.817 348.586 358.475 346.996 359.646 345.823C360.817 344.651 362.406 343.992 364.063 343.992H364.063L366.994 341.766L372.464 343.992L373.865 343.992L373.864 350.448Z" fill="#2F2E41"/>
<path d="M350.992 320.026L346.171 322.026L336.167 304.365L343.282 301.412L350.992 320.026Z" fill="#FFB6B6"/>
<path d="M353.247 324.989L338.423 331.142L338.345 330.955C337.711 329.423 337.71 327.701 338.344 326.169C338.977 324.637 340.192 323.419 341.723 322.784L341.723 322.783L343.579 319.603L349.483 319.562L350.777 319.025L353.247 324.989Z" fill="#2F2E41"/>
<path d="M379.647 230.372L342.612 234.246L337.658 250.949L320.501 278.549L339.444 313.39L346.115 307.395L339.712 279.261L358.825 258.606L362.449 257.1L365.326 333.749L375.967 333.924L380.623 249.347C382.861 241.875 382.187 235.706 379.647 230.372Z" fill="#2F2E41"/>
<path d="M366.068 177.494L359.989 170.642L350.384 171.711L344.234 180.326C340.961 181.079 338.101 183.06 336.241 185.86C334.382 188.661 333.666 192.068 334.24 195.38C336.626 209.137 344.736 222.478 342.059 229.266C337.994 239.568 337.746 243.77 347.476 242.326C357.207 240.882 389.806 237.552 383.486 231.225C377.166 224.898 375.777 214.325 375.777 214.325L375.524 190.137C375.793 188.678 375.757 187.179 375.419 185.735C375.081 184.291 374.448 182.932 373.56 181.745C372.671 180.557 371.547 179.566 370.258 178.835C368.969 178.103 367.542 177.647 366.068 177.494L366.068 177.494Z" fill="#E6E6E6"/>
<path d="M354.19 168.889C360.079 168.889 364.852 164.11 364.852 158.215C364.852 152.321 360.079 147.542 354.19 147.542C348.301 147.542 343.527 152.321 343.527 158.215C343.527 164.11 348.301 168.889 354.19 168.889Z" fill="#FFB8B8"/>
<path d="M367.327 157.582C366.851 159.744 365.992 161.804 364.791 163.664C364.472 164.298 363.996 164.839 363.408 165.236C363.11 165.427 362.755 165.508 362.404 165.464C362.053 165.42 361.728 165.254 361.487 164.996L361.227 164.784C361.736 164.47 362.19 164.076 362.572 163.616C362.761 163.385 362.893 163.112 362.955 162.82C363.018 162.528 363.01 162.226 362.932 161.938C362.84 161.653 362.642 161.416 362.378 161.275C362.115 161.134 361.808 161.101 361.52 161.183C360.896 161.428 360.517 162.332 359.863 162.193C359.335 162.077 359.225 161.38 359.225 160.832C359.244 157.966 357.86 153.894 356.789 154.019C355.707 154.078 354.624 153.933 353.595 153.591C352.566 153.248 351.479 153.109 350.397 153.182C350.32 153.192 350.243 153.206 350.161 153.221C349.988 152.676 349.749 152.155 349.45 151.668C349.484 152.256 349.455 152.846 349.364 153.427C348.502 153.783 347.612 154.064 346.703 154.269C345.714 154.408 343.538 157.37 343.437 157.067C343.263 156.523 343.025 156.001 342.726 155.514C342.76 156.102 342.731 156.692 342.64 157.274C342.635 157.298 342.635 157.317 342.63 157.341C342.15 156.702 341.857 155.923 342.02 156.519C340.411 152.874 341.035 150.264 343.567 147.191C344.06 146.531 344.713 146.006 345.464 145.667C345.84 145.502 346.252 145.436 346.661 145.477C347.07 145.517 347.462 145.662 347.798 145.898C348.83 144.95 350.097 144.297 351.467 144.004C352.837 143.712 354.26 143.791 355.589 144.234C358.225 145.153 360.257 145.691 360.661 148.461C362.841 148.11 365.084 149.35 366.285 151.201C367.481 153.057 367.726 155.413 367.327 157.582Z" fill="#2F2E41"/>
<path d="M358.68 246.236H355.142V218.971H358.02C358.159 218.971 358.293 219.026 358.392 219.124C358.49 219.223 358.546 219.356 358.547 219.496L358.68 246.236Z" fill="#3F3D56"/>
<path d="M355.473 246.38H317.47V226.963H355.473V246.38Z" fill="white"/>
<path d="M340.493 246.308H317.541V227.035H355.4V231.386C355.396 235.342 353.824 239.135 351.029 241.932C348.234 244.73 344.445 246.304 340.493 246.308Z" fill="#FF7A31"/>
<path d="M358.104 219.745C358.085 219.781 358.07 219.82 358.06 219.859L356.75 224.916L355.328 227.611H317.613V226.939L319.761 224.916L322.265 220.119C322.376 219.908 322.521 219.716 322.695 219.552C323.092 219.179 323.616 218.971 324.16 218.971H357.638C357.729 218.971 357.818 218.994 357.897 219.039C357.977 219.084 358.043 219.148 358.09 219.226C358.137 219.304 358.163 219.393 358.165 219.484C358.168 219.575 358.147 219.665 358.104 219.745Z" fill="#3F3D56"/>
<path d="M355.473 246.38H317.47V226.963H355.473V246.38ZM317.758 246.092H355.185V227.252H317.758V246.092Z" fill="#3F3D56"/>
<path d="M357.45 222.332L356.75 224.916H319.761L320.956 222.765L357.45 222.332Z" fill="#FF7A31"/>
<path d="M321.217 233.4C322.421 233.4 323.396 232.423 323.396 231.218C323.396 230.014 322.421 229.037 321.217 229.037C320.014 229.037 319.038 230.014 319.038 231.218C319.038 232.423 320.014 233.4 321.217 233.4Z" fill="white"/>
<path d="M373.465 203.608L364.802 202.366C361.872 207.271 360.831 220.325 360.831 220.325L352.352 240.498C351.791 240.88 351.339 241.403 351.044 242.015C350.749 242.626 350.62 243.305 350.67 243.983C350.72 244.661 350.947 245.313 351.329 245.875C351.711 246.436 352.235 246.887 352.846 247.182C353.458 247.477 354.136 247.606 354.813 247.555C355.49 247.504 356.141 247.275 356.702 246.892C357.262 246.509 357.712 245.985 358.006 245.372C358.3 244.76 358.427 244.081 358.376 243.403L372.296 219.923L373.465 203.608Z" fill="#FFB8B8"/>
<path d="M368.77 179.532C370.111 179.74 371.39 180.241 372.515 181C373.641 181.758 374.585 182.756 375.282 183.922C375.978 185.088 376.41 186.393 376.545 187.744C376.68 189.096 376.516 190.461 376.065 191.742L374.226 196.958C374.226 196.958 376.542 212.665 372.726 217.098L361.014 216.037C361.014 216.037 363.155 208.113 361.512 204.279C360.505 201.931 360.561 193.821 361.553 187.224C362.31 182.186 363.741 178.752 368.77 179.532Z" fill="#E6E6E6"/>
<path d="M295.206 153.544C290.973 155.657 287.752 159.367 286.252 163.857C284.752 168.348 285.095 173.251 287.206 177.488C291.602 186.311 307.487 201.36 320.161 203.634C314.709 187.063 322.289 170.219 319.125 161.552C315.744 152.292 304.02 149.143 295.206 153.544Z" fill="#FF7A31"/>
<path d="M301.147 174.529C304.36 174.529 306.964 171.922 306.964 168.706C306.964 165.491 304.36 162.884 301.147 162.884C297.935 162.884 295.331 165.491 295.331 168.706C295.331 171.922 297.935 174.529 301.147 174.529Z" fill="white"/>
<path d="M320.049 212.979C322.153 212.979 323.858 211.272 323.858 209.165C323.858 207.059 322.153 205.352 320.049 205.352C317.945 205.352 316.239 207.059 316.239 209.165C316.239 211.272 317.945 212.979 320.049 212.979Z" fill="#FF7A31"/>
<path opacity="0.2" d="M302.92 162.586C303.684 162.559 304.445 162.684 305.161 162.952C305.876 163.22 306.532 163.627 307.091 164.149C307.65 164.671 308.1 165.298 308.416 165.995C308.733 166.691 308.909 167.443 308.935 168.208C308.96 168.972 308.836 169.734 308.567 170.451C308.299 171.167 307.892 171.823 307.37 172.382C306.848 172.941 306.221 173.391 305.525 173.707C304.829 174.023 304.078 174.199 303.314 174.224C304.608 173.742 305.689 172.815 306.363 171.608C307.037 170.401 307.259 168.994 306.991 167.637C306.723 166.281 305.982 165.065 304.9 164.206C303.817 163.347 302.465 162.902 301.085 162.949C301.673 162.73 302.293 162.607 302.92 162.586Z" fill="#231F20"/>
<path opacity="0.2" d="M319.154 161.556C322.318 170.222 314.738 187.066 320.19 203.637C318.993 203.416 317.815 203.108 316.664 202.713C312.222 186.694 319.194 170.688 316.137 162.314C313.4 154.819 305.2 151.329 297.5 152.602C305.951 149.717 316.055 153.069 319.154 161.556Z" fill="#231F20"/>
<path d="M140.61 241.965C136.229 241.86 131.985 243.501 128.812 246.528C125.64 249.555 123.798 253.72 123.693 258.106C123.474 267.239 129.97 286.455 139.366 293.815C142.074 277.878 155.574 267.371 156.734 258.9C157.973 249.848 149.734 242.184 140.61 241.965Z" fill="#FF7A31"/>
<path d="M138.913 262.356C141.889 262.356 144.302 259.941 144.302 256.961C144.302 253.981 141.889 251.566 138.913 251.566C135.936 251.566 133.523 253.981 133.523 256.961C133.523 259.941 135.936 262.356 138.913 262.356Z" fill="white"/>
<path d="M136.881 301.831C138.83 301.831 140.411 300.249 140.411 298.298C140.411 296.346 138.83 294.764 136.881 294.764C134.931 294.764 133.351 296.346 133.351 298.298C133.351 300.249 134.931 301.831 136.881 301.831Z" fill="#FF7A31"/>
<path opacity="0.2" d="M143.015 252.717C144.3 253.343 145.285 254.455 145.751 255.807C146.218 257.159 146.129 258.642 145.504 259.929C145.194 260.566 144.762 261.136 144.233 261.606C143.703 262.076 143.086 262.437 142.417 262.668C141.066 263.135 139.585 263.046 138.3 262.42C139.569 262.587 140.855 262.296 141.93 261.6C143.004 260.904 143.796 259.848 144.163 258.621C144.531 257.394 144.45 256.076 143.935 254.903C143.421 253.73 142.506 252.778 141.355 252.219C141.931 252.294 142.492 252.463 143.015 252.717Z" fill="#231F20"/>
<path opacity="0.2" d="M156.757 258.915C155.598 267.387 142.098 277.894 139.39 293.831C138.506 293.131 137.674 292.367 136.902 291.545C140.198 276.498 152.837 266.412 153.958 258.228C154.961 250.902 149.756 244.486 142.898 242.189C151.069 243.492 157.893 250.621 156.757 258.915Z" fill="#231F20"/>
<path d="M203.305 171.669C202.074 171.75 200.922 172.308 200.096 173.226C199.27 174.143 198.834 175.348 198.881 176.582C198.894 176.833 198.928 177.082 198.983 177.327L184.999 186.146L192.73 189.569L204.824 180.669C205.822 180.364 206.691 179.737 207.295 178.886C207.899 178.034 208.205 177.006 208.164 175.963C208.135 175.369 207.99 174.787 207.737 174.249C207.483 173.712 207.126 173.23 206.687 172.83C206.247 172.431 205.733 172.122 205.174 171.922C204.615 171.721 204.022 171.633 203.429 171.662C203.388 171.664 203.346 171.666 203.305 171.669Z" fill="#FFB6B6"/>
<path d="M189.82 182.138L193.286 189.296L179.583 198.123C178.608 198.757 177.487 199.13 176.328 199.208C175.168 199.286 174.007 199.065 172.957 198.568C171.679 197.956 170.635 196.944 169.982 195.687C169.328 194.429 169.101 192.992 169.334 191.594L173.781 166.183C174.079 164.405 175.047 162.809 176.485 161.723C177.923 160.637 179.722 160.144 181.512 160.346C182.384 160.441 183.229 160.708 183.998 161.13C184.767 161.552 185.445 162.122 185.994 162.806C186.543 163.491 186.952 164.277 187.198 165.12C187.444 165.963 187.521 166.846 187.426 167.719C187.418 167.788 187.409 167.856 187.4 167.925C187.366 168.169 187.319 168.411 187.26 168.651L182.406 186.722L189.82 182.138Z" fill="#FA8DEF"/>
<path d="M190.794 193.235H171.197V212.852H190.794V193.235Z" fill="#FFB8B8"/>
<path d="M237.269 251.01L244.753 248.489L248.921 268.883L243.849 270.59L237.269 251.01Z" fill="#FFB6B6"/>
<path d="M224.584 249.442L232.008 246.748L236.649 267.039L231.618 268.864L224.584 249.442Z" fill="#FFB6B6"/>
<path d="M171.901 217.977C167.973 244.19 220.279 228.693 220.279 228.693L236.679 251.341L246.281 249.593C246.281 249.593 241.96 235.997 234.245 217.771C230.818 209.677 191.911 211.654 191.911 211.654L191.103 205.308L168.846 204.871L171.901 217.977Z" fill="#2F2E41"/>
<path d="M209.684 230.45L221.779 222.909C230.633 240.609 233.243 248.274 233.243 248.274L224.872 250.631L209.684 230.45Z" fill="#2F2E41"/>
<path d="M183.096 161.356L179.151 156.281L173.524 156.036L172.963 160.81L170.175 162.097C167.391 172.684 166.961 183.754 168.915 194.525C169.289 194.878 169.562 195.323 169.706 195.816C169.851 196.309 169.861 196.832 169.736 197.33L169.555 198.052L169.572 198.078C170.165 199.015 170.366 200.148 170.132 201.232L168.801 203.601C168.323 204.453 168.036 205.398 167.961 206.372C167.885 207.346 168.022 208.325 168.362 209.24C168.703 210.156 169.238 210.986 169.931 211.673C170.625 212.36 171.459 212.888 172.377 213.22C180.561 216.19 188.233 217.296 193.909 208.963L195.694 179.923L183.096 161.356Z" fill="#FA8DEF"/>
<path d="M178.964 157.629C184.71 157.629 189.367 152.966 189.367 147.214C189.367 141.462 184.71 136.8 178.964 136.8C173.218 136.8 168.561 141.462 168.561 147.214C168.561 152.966 173.218 157.629 178.964 157.629Z" fill="#FFB8B8"/>
<path d="M173.74 134.66C169.335 134.745 165.842 138.835 165.937 143.796C162.677 147.2 161.888 163.948 164.611 168.403C169.594 168.982 172.625 156.642 176.994 158.426L177.57 155.733L178.875 159.24C179.985 159.753 181.087 160.315 182.181 160.928C182.967 157.319 182.772 153.811 180.659 150.755C178.783 148.041 183.35 144.818 186.616 145.274L186.568 142.781L187.389 145.259C188.662 146.196 190.07 145.857 191.514 145.18C193.856 132.995 175.724 129.663 173.74 134.66Z" fill="#2F2E41"/>
<path d="M241.544 274.04L244.879 273.604L245.063 270.375L246.998 273.327L255.842 272.17C256.266 272.115 256.661 271.925 256.97 271.629C257.279 271.333 257.485 270.946 257.558 270.524C257.631 270.103 257.568 269.668 257.377 269.285C257.187 268.902 256.879 268.59 256.499 268.395L248.799 264.436L248.383 261.25L241.013 262.665L241.544 274.04Z" fill="#2F2E41"/>
<path d="M232.737 274.069L235.762 272.598L234.915 269.477L237.685 271.664L245.708 267.764C246.093 267.577 246.407 267.272 246.606 266.893C246.806 266.514 246.879 266.082 246.815 265.659C246.751 265.236 246.554 264.844 246.252 264.541C245.95 264.238 245.559 264.04 245.136 263.975L236.581 262.659L235.179 259.769L228.635 263.447L232.737 274.069Z" fill="#2F2E41"/>
<path d="M187.071 204.621H190.781V176.042H187.764C187.618 176.042 187.478 176.1 187.374 176.204C187.27 176.307 187.212 176.447 187.211 176.593L187.071 204.621Z" fill="#494949"/>
<path d="M190.434 184.42H230.268V204.773H190.434V184.42Z" fill="white"/>
<path d="M190.51 189.056V184.495H230.193V204.697H206.135C201.992 204.692 198.021 203.043 195.091 200.111C192.162 197.178 190.514 193.203 190.51 189.056Z" fill="#F2F2F2"/>
<path d="M187.675 176.854C187.695 176.892 187.711 176.932 187.722 176.974L189.095 182.274L190.585 185.098H230.117V184.395L227.866 182.274L225.241 177.247C225.125 177.025 224.973 176.824 224.79 176.652C224.375 176.261 223.825 176.042 223.255 176.042H188.164C188.069 176.042 187.975 176.067 187.892 176.114C187.809 176.161 187.74 176.229 187.691 176.31C187.641 176.392 187.614 176.485 187.612 176.58C187.609 176.676 187.631 176.77 187.675 176.854Z" fill="#494949"/>
<path d="M190.434 184.42H230.268V204.773H190.434V184.42ZM229.965 204.47H190.736V184.722H229.965L229.965 204.47Z" fill="#FF7A31"/>
<path d="M188.361 179.565L189.095 182.274H227.866L226.613 180.02L188.361 179.565Z" fill="#FF7A31"/>
<path d="M226.339 191.166C227.6 191.166 228.623 190.143 228.623 188.88C228.623 187.617 227.6 186.594 226.339 186.594C225.077 186.594 224.055 187.617 224.055 188.88C224.055 190.143 225.077 191.166 226.339 191.166Z" fill="white"/>
<path d="M207.914 154.332C210.599 154.267 213.199 155.273 215.143 157.128C217.087 158.983 218.215 161.535 218.28 164.222C218.414 169.819 214.433 181.593 208.676 186.103C207.017 176.338 198.745 169.899 198.034 164.709C197.275 159.163 202.323 154.466 207.914 154.332Z" fill="#D1D3D4"/>
<path d="M208.954 166.827C210.778 166.827 212.256 165.347 212.256 163.521C212.256 161.695 210.778 160.215 208.954 160.215C207.13 160.215 205.651 161.695 205.651 163.521C205.651 165.347 207.13 166.827 208.954 166.827Z" fill="white"/>
<path d="M210.199 191.015C211.394 191.015 212.362 190.045 212.362 188.85C212.362 187.654 211.394 186.684 210.199 186.684C209.005 186.684 208.036 187.654 208.036 188.85C208.036 190.045 209.005 191.015 210.199 191.015Z" fill="#D1D3D4"/>
<path opacity="0.2" d="M206.441 160.92C206.051 161.11 205.702 161.375 205.414 161.7C205.127 162.025 204.906 162.403 204.764 162.813C204.622 163.224 204.563 163.658 204.589 164.091C204.615 164.525 204.726 164.949 204.916 165.339C205.105 165.729 205.37 166.079 205.695 166.367C206.019 166.655 206.397 166.876 206.807 167.017C207.217 167.159 207.651 167.219 208.084 167.193C208.516 167.167 208.94 167.056 209.33 166.866C208.552 166.968 207.764 166.79 207.106 166.363C206.448 165.937 205.962 165.289 205.737 164.538C205.512 163.786 205.562 162.978 205.877 162.259C206.192 161.541 206.753 160.958 207.458 160.615C207.105 160.661 206.761 160.764 206.441 160.92Z" fill="#231F20"/>
<path opacity="0.2" d="M198.02 164.718C198.731 169.909 207.003 176.347 208.662 186.113C209.204 185.684 209.714 185.216 210.186 184.712C208.167 175.492 200.422 169.312 199.736 164.297C199.121 159.808 202.311 155.877 206.513 154.469C201.506 155.268 197.324 159.636 198.02 164.718Z" fill="#231F20"/>
<path d="M202.031 181.822C200.8 181.731 199.583 182.124 198.637 182.917C197.691 183.711 197.093 184.843 196.968 186.072C196.946 186.322 196.946 186.574 196.966 186.824L181.895 193.615L189.076 198.078L202.287 190.946C203.317 190.782 204.265 190.282 204.981 189.523C205.698 188.763 206.143 187.788 206.248 186.749C206.356 185.553 205.986 184.364 205.219 183.442C204.451 182.519 203.349 181.94 202.155 181.831C202.114 181.828 202.072 181.824 202.031 181.822Z" fill="#FFB6B6"/>
<path d="M187.225 190.315L189.665 197.886L174.87 204.723C173.817 205.215 172.655 205.429 171.496 205.345C170.336 205.261 169.218 204.881 168.246 204.243C167.066 203.459 166.172 202.312 165.7 200.976C165.227 199.639 165.201 198.185 165.626 196.833L173.553 172.286C174.095 170.566 175.275 169.12 176.85 168.245C178.425 167.369 180.275 167.131 182.019 167.579C182.87 167.795 183.669 168.176 184.372 168.701C185.075 169.226 185.668 169.885 186.117 170.639C186.566 171.393 186.862 172.229 186.988 173.098C187.114 173.966 187.068 174.852 186.853 175.703C186.836 175.77 186.818 175.837 186.799 175.904C186.732 176.141 186.652 176.374 186.56 176.603L179.246 193.825L187.225 190.315Z" fill="#FA8DEF"/>
<path fill-rule="evenodd" clip-rule="evenodd" d="M340.965 235.532C340.718 235.261 340.426 235.079 340.081 234.989C339.966 234.959 339.555 234.943 338.865 234.932L338.846 234.917C338.26 234.913 337.72 234.913 337.302 234.914C337.27 234.914 337.239 234.914 337.206 234.913L337.207 234.914C336.761 234.916 336.476 234.921 336.465 234.928C336.406 234.962 336.799 235.624 337.013 235.868C337.26 236.139 337.552 236.322 337.897 236.411C338.084 236.461 339.066 236.494 340.772 236.511L340.742 236.486C341.205 236.484 341.501 236.479 341.512 236.473C341.572 236.438 341.179 235.776 340.965 235.532Z" fill="white"/>
<path fill-rule="evenodd" clip-rule="evenodd" d="M336.296 239.162C335.943 239.131 335.633 239.156 335.363 239.243C335.268 239.273 334.99 239.434 334.532 239.712C334.412 239.785 334.255 239.746 334.184 239.624C334.112 239.501 334.036 239.372 333.958 239.239C333.493 238.45 332.523 236.796 331.803 235.57C330.936 234.098 330.416 233.264 330.279 233.127C330.029 232.872 329.726 232.71 329.368 232.632C329.05 232.568 328.28 232.558 328.28 232.627C328.28 232.651 328.809 233.583 329.461 234.697C330.113 235.811 330.931 237.218 331.284 237.827C332.504 239.931 332.611 240.103 332.793 240.284C332.917 240.409 333.056 240.508 333.212 240.587C333.215 240.592 333.227 240.599 333.248 240.606C333.553 240.752 333.928 240.819 334.414 240.819C334.447 240.819 334.475 240.819 334.503 240.819C334.511 240.819 334.519 240.819 334.527 240.819C334.599 240.818 334.655 240.816 334.699 240.812C334.875 240.801 335.038 240.774 335.188 240.726C335.335 240.679 335.93 240.335 336.934 239.716L336.837 239.716C337.143 239.521 337.34 239.392 337.341 239.385C337.349 239.347 336.609 239.193 336.296 239.162Z" fill="white"/>
<path fill-rule="evenodd" clip-rule="evenodd" d="M336.069 233.452C336.294 233.699 336.56 233.864 336.874 233.945C337.045 233.991 337.938 234.022 339.491 234.036C340.785 234.047 342.528 234.06 343.362 234.068C344.199 234.074 344.91 234.075 344.948 234.069C344.999 234.059 344.975 233.991 344.812 233.708C344.467 233.109 344.116 232.796 343.653 232.671C343.428 232.611 343.243 232.604 341.031 232.599C340.392 232.597 338.911 232.592 337.737 232.585C336.564 232.577 335.59 232.584 335.57 232.595C335.516 232.627 335.874 233.229 336.069 233.452Z" fill="white"/>
<path fill-rule="evenodd" clip-rule="evenodd" d="M338.011 239.661C337.258 240.154 336.643 240.569 336.641 240.583C336.633 240.622 337.364 240.773 337.675 240.802C338.024 240.831 338.332 240.802 338.6 240.71C338.747 240.661 339.34 240.299 340.341 239.648" fill="white"/>
<path fill-rule="evenodd" clip-rule="evenodd" d="M340.708 239.518C340.993 239.141 339.935 239.206 339.628 239.206C339.274 239.205 338.965 239.2 338.696 239.287C338.605 239.315 338.352 239.46 337.94 239.71C337.828 239.778 337.683 239.742 337.617 239.629C337.544 239.504 337.468 239.373 337.389 239.239C336.924 238.45 335.953 236.796 335.233 235.57C334.367 234.098 333.847 233.264 333.71 233.127C333.46 232.872 333.156 232.71 332.799 232.632C332.48 232.568 331.711 232.558 331.711 232.627C331.711 232.651 332.24 233.583 332.892 234.697C333.543 235.811 334.362 237.218 334.714 237.827C335.934 239.931 336.042 240.103 336.223 240.284C336.596 240.657 337.085 240.819 337.845 240.819C338.202 240.819 338.281 240.804 338.261 240.75C338.254 240.731 338.159 240.563 338.01 240.307L339.298 240.306C340.054 239.836 340.691 239.54 340.708 239.518Z" fill="white"/>
<path fill-rule="evenodd" clip-rule="evenodd" d="M213.923 194.911C213.723 194.691 213.486 194.543 213.206 194.471C213.113 194.446 212.78 194.433 212.221 194.424L212.206 194.412C211.731 194.409 211.293 194.408 210.955 194.41C210.929 194.409 210.903 194.409 210.877 194.409L210.878 194.41C210.516 194.412 210.285 194.416 210.276 194.421C210.228 194.449 210.547 194.985 210.72 195.183C210.92 195.402 211.157 195.55 211.437 195.623C211.589 195.663 212.384 195.69 213.766 195.704L213.742 195.684C214.117 195.682 214.357 195.678 214.366 195.673C214.415 195.645 214.096 195.108 213.923 194.911Z" fill="white"/>
<path fill-rule="evenodd" clip-rule="evenodd" d="M210.139 197.852C209.854 197.827 209.602 197.847 209.384 197.917C209.306 197.942 209.081 198.072 208.711 198.297C208.613 198.356 208.486 198.325 208.428 198.226C208.37 198.126 208.308 198.022 208.245 197.914C207.868 197.274 207.082 195.935 206.499 194.941C205.796 193.748 205.375 193.073 205.264 192.962C205.062 192.755 204.816 192.624 204.526 192.56C204.268 192.509 203.645 192.501 203.645 192.556C203.645 192.576 204.073 193.331 204.601 194.234C205.129 195.136 205.792 196.277 206.078 196.77C207.067 198.475 207.154 198.614 207.301 198.761C207.402 198.862 207.514 198.942 207.641 199.007C207.643 199.011 207.653 199.016 207.67 199.022C207.917 199.14 208.221 199.195 208.615 199.195C208.641 199.195 208.664 199.195 208.687 199.194C208.693 199.194 208.7 199.194 208.707 199.194C208.765 199.193 208.81 199.192 208.846 199.189C208.988 199.18 209.12 199.158 209.242 199.119C209.361 199.081 209.843 198.802 210.657 198.301L210.578 198.301C210.826 198.143 210.985 198.038 210.987 198.032C210.993 198.001 210.393 197.877 210.139 197.852Z" fill="white"/>
<path fill-rule="evenodd" clip-rule="evenodd" d="M209.956 193.225C210.138 193.425 210.353 193.559 210.608 193.625C210.746 193.662 211.47 193.687 212.729 193.698C213.777 193.707 215.189 193.717 215.865 193.724C216.543 193.728 217.12 193.73 217.15 193.725C217.192 193.717 217.172 193.661 217.04 193.433C216.76 192.947 216.476 192.693 216.101 192.592C215.919 192.543 215.769 192.538 213.977 192.534C213.459 192.532 212.258 192.528 211.308 192.522C210.357 192.516 209.567 192.521 209.551 192.531C209.508 192.556 209.798 193.045 209.956 193.225Z" fill="white"/>
<path fill-rule="evenodd" clip-rule="evenodd" d="M211.53 198.256C210.919 198.655 210.421 198.992 210.419 199.003C210.412 199.034 211.005 199.157 211.257 199.181C211.54 199.204 211.789 199.181 212.006 199.106C212.125 199.066 212.607 198.773 213.417 198.246" fill="white"/>
<path fill-rule="evenodd" clip-rule="evenodd" d="M213.715 198.14C213.946 197.835 213.088 197.887 212.84 197.887C212.553 197.887 212.303 197.882 212.084 197.953C212.011 197.976 211.806 198.093 211.472 198.296C211.382 198.351 211.264 198.321 211.21 198.23C211.151 198.129 211.09 198.023 211.026 197.914C210.649 197.274 209.862 195.935 209.279 194.941C208.577 193.748 208.156 193.073 208.044 192.962C207.842 192.755 207.596 192.624 207.306 192.56C207.048 192.509 206.425 192.501 206.425 192.556C206.425 192.576 206.853 193.331 207.382 194.234C207.909 195.136 208.573 196.277 208.858 196.77C209.847 198.475 209.934 198.614 210.081 198.761C210.383 199.063 210.78 199.194 211.395 199.194C211.685 199.194 211.748 199.182 211.733 199.139C211.727 199.123 211.65 198.987 211.529 198.779L212.573 198.779C213.185 198.398 213.701 198.158 213.715 198.14Z" fill="white"/>
</g>
<defs>
<clipPath id="clip0_220_365">
<rect width="303.8" height="219.226" fill="white" transform="translate(111.28 132.426)"/>
</clipPath>
</defs>
</svg>
