<svg width="532" height="532" viewBox="0 0 532 532" fill="none" xmlns="http://www.w3.org/2000/svg">
<path d="M175.279 163.505C178.926 127.509 220.173 108.96 249.523 130.118L400.124 238.68C429.473 259.838 424.914 304.833 391.916 319.672L222.598 395.814C189.6 410.653 152.913 384.207 156.561 348.211L175.279 163.505Z" fill="#C4C4C4"/>
<g clip-path="url(#clip0_214_43)">
<path d="M195.309 295.948C193.928 306.773 188.849 316.677 183.432 326.217C183.253 326.542 183.068 326.862 182.879 327.187H126.571C125.432 326.891 124.308 326.566 123.188 326.217C116.829 324.28 110.824 321.325 105.409 317.467C84.6931 302.536 76.7216 274.323 80.3222 249.042C82.561 233.336 89.4517 217.299 102.87 208.84C109.954 204.366 119.055 202.912 127.21 204.574C127.424 204.613 127.637 204.662 127.855 204.705C134.872 206.286 141.123 210.212 144.68 216.538C151.076 227.906 147.267 241.989 144.123 254.641C140.987 267.294 139.286 282.438 148.387 291.77C145.382 282.923 148.348 272.369 155.525 266.387C160.947 261.874 168.497 260.182 175.383 261.583C176.042 261.724 176.691 261.884 177.331 262.078C178.877 262.53 180.367 263.155 181.775 263.939C192.508 269.936 196.855 283.747 195.309 295.948Z" fill="#BDE6AA"/>
<path d="M161.921 326.217C163.481 326.581 165.046 326.901 166.621 327.187H158.107C156.993 326.886 155.883 326.566 154.783 326.217C152.365 325.461 149.984 324.593 147.64 323.614C138.239 319.668 129.58 313.744 123.028 305.862C119.824 302.043 117.208 297.767 115.265 293.176C113.159 287.986 111.82 282.517 111.292 276.941C110.104 265.5 111.316 253.744 113.579 242.507C115.914 230.861 119.684 219.549 124.802 208.831C125.417 207.546 126.054 206.269 126.711 205.001C126.756 204.897 126.825 204.804 126.911 204.73C126.998 204.656 127.1 204.603 127.21 204.574C127.434 204.531 127.666 204.578 127.855 204.705C128.082 204.835 128.25 205.048 128.325 205.299C128.4 205.55 128.375 205.819 128.257 206.053C122.98 216.347 118.98 227.248 116.346 238.513C113.768 249.503 112.305 261.001 112.804 272.301C113.278 282.86 116.036 293.243 122.292 301.877C128.005 309.759 135.894 315.974 144.621 320.206C150.145 322.85 155.948 324.866 161.921 326.217Z" fill="white"/>
<path d="M180.607 327.187H178.096C177.815 326.867 177.544 326.542 177.277 326.217C171.56 319.268 167.686 310.988 166.016 302.144C163.986 291.107 165.565 279.709 170.517 269.64C171.899 266.816 173.527 264.12 175.383 261.583C176.042 261.724 176.691 261.884 177.331 262.077C172.45 268.546 169.167 276.077 167.75 284.057C166.486 291.534 166.907 299.199 168.981 306.493C171.055 313.787 174.73 320.525 179.739 326.217C180.02 326.542 180.311 326.867 180.607 327.187Z" fill="white"/>
<path d="M406.732 318.942C407.097 321.799 408.437 324.413 409.867 326.931C409.914 327.017 409.963 327.101 410.013 327.187H424.874C425.174 327.109 425.471 327.023 425.766 326.931C427.445 326.42 429.029 325.64 430.458 324.622C435.926 320.681 438.03 313.235 437.079 306.563C436.488 302.418 434.67 298.186 431.129 295.953C429.206 294.781 426.911 294.379 424.705 294.827C424.648 294.837 424.592 294.85 424.535 294.862C423.616 295.039 422.746 295.409 421.98 295.948C421.215 296.486 420.572 297.18 420.094 297.985C418.406 300.985 419.411 304.702 420.241 308.041C421.069 311.38 421.518 315.377 419.116 317.84C419.468 316.81 419.539 315.705 419.323 314.638C419.107 313.571 418.61 312.581 417.885 311.77C417.159 310.959 416.231 310.355 415.195 310.022C414.159 309.689 413.053 309.637 411.991 309.873C411.817 309.91 411.646 309.952 411.477 310.003C411.069 310.123 410.676 310.288 410.304 310.495C407.472 312.077 406.324 315.722 406.732 318.942Z" fill="#BDE5AA"/>
<path d="M415.544 326.931C415.132 327.027 414.719 327.111 414.304 327.187H416.551C416.845 327.108 417.138 327.023 417.428 326.931C418.066 326.731 418.695 326.502 419.313 326.244C421.822 325.225 424.05 323.618 425.809 321.559C426.654 320.551 427.345 319.422 427.858 318.211C428.413 316.841 428.767 315.398 428.906 313.926C429.161 310.884 428.958 307.82 428.303 304.838C427.686 301.765 426.691 298.779 425.341 295.95C425.178 295.611 425.01 295.275 424.837 294.94C424.825 294.912 424.807 294.888 424.784 294.868C424.761 294.849 424.734 294.835 424.705 294.827C424.646 294.816 424.585 294.828 424.535 294.862C424.475 294.896 424.431 294.952 424.411 295.018C424.391 295.085 424.397 295.156 424.429 295.217C425.821 297.934 426.877 300.811 427.572 303.784C428.288 306.7 428.603 309.7 428.507 312.702C428.456 315.493 427.585 318.207 426.003 320.507C424.465 322.578 422.441 324.239 420.11 325.345C418.652 326.042 417.121 326.574 415.544 326.931Z" fill="white"/>
<path d="M410.612 327.187H411.275C411.349 327.102 411.421 327.017 411.491 326.931C413 325.097 414.022 322.912 414.463 320.577C414.999 317.665 414.582 314.657 413.275 311.999C412.91 311.254 412.481 310.542 411.991 309.873C411.817 309.91 411.646 309.952 411.477 310.003C412.765 311.71 413.631 313.698 414.005 315.804C414.339 317.777 414.228 319.8 413.681 321.725C413.133 323.65 412.163 325.429 410.841 326.931C410.767 327.017 410.69 327.102 410.612 327.187Z" fill="white"/>
<path d="M272.784 253.347H226.273L225.78 239.041C225.759 238.421 225.872 237.803 226.112 237.231C226.352 236.659 226.713 236.145 227.17 235.726C227.628 235.307 228.17 234.992 228.761 234.803C229.352 234.614 229.977 234.555 230.592 234.63L257.658 237.945H257.662C261.674 237.956 265.519 239.558 268.354 242.399C271.188 245.241 272.781 249.09 272.784 253.104V253.347Z" fill="#FF7A31"/>
<path d="M252.054 202.601H219.615C219.184 202.601 218.756 202.686 218.358 202.851C217.959 203.016 217.597 203.258 217.292 203.564C216.987 203.869 216.745 204.231 216.58 204.63C216.415 205.029 216.33 205.456 216.33 205.888V238.339C216.33 238.771 216.415 239.198 216.58 239.597C216.745 239.995 216.987 240.358 217.292 240.663C217.597 240.968 217.959 241.21 218.358 241.375C218.756 241.54 219.184 241.625 219.615 241.625H252.054C252.486 241.625 252.913 241.54 253.311 241.375C253.71 241.21 254.072 240.968 254.377 240.663C254.682 240.358 254.924 239.995 255.089 239.597C255.254 239.198 255.339 238.771 255.339 238.339V205.888C255.339 205.456 255.254 205.029 255.089 204.63C254.924 204.231 254.682 203.869 254.377 203.564C254.072 203.258 253.71 203.016 253.311 202.851C252.913 202.686 252.486 202.601 252.054 202.601Z" fill="#D96666"/>
<path d="M255.339 205.888V210.201H216.33V205.888C216.33 205.456 216.415 205.029 216.58 204.63C216.745 204.231 216.987 203.869 217.292 203.564C217.597 203.258 217.959 203.016 218.358 202.851C218.756 202.686 219.184 202.601 219.615 202.601H252.054C252.486 202.601 252.913 202.686 253.311 202.851C253.71 203.016 254.072 203.258 254.377 203.564C254.682 203.869 254.924 204.231 255.089 204.63C255.254 205.029 255.339 205.456 255.339 205.888Z" fill="#B3B3B3"/>
<path d="M333.236 211.551C333.011 210.824 332.629 210.155 332.117 209.591C331.606 209.028 330.977 208.583 330.275 208.289C329.573 207.995 328.815 207.858 328.054 207.889C327.294 207.919 326.55 208.116 325.873 208.466L281.245 192.448L279.279 203.601L323.766 215.839C324.428 216.936 325.47 217.753 326.693 218.133C327.917 218.513 329.237 218.432 330.405 217.903C331.572 217.375 332.505 216.436 333.027 215.265C333.548 214.095 333.623 212.773 333.236 211.551Z" fill="#FFB8B8"/>
<path opacity="0.2" d="M333.236 211.551C333.011 210.824 332.629 210.155 332.117 209.591C331.606 209.028 330.977 208.583 330.275 208.289C329.573 207.995 328.815 207.858 328.054 207.889C327.294 207.919 326.55 208.116 325.873 208.466L281.245 192.448L279.279 203.601L323.766 215.839C324.428 216.936 325.47 217.753 326.693 218.133C327.917 218.513 329.237 218.432 330.405 217.903C331.572 217.375 332.505 216.436 333.027 215.265C333.548 214.095 333.623 212.773 333.236 211.551Z" fill="black"/>
<path d="M289.166 194.48L284.952 205.494C284.832 205.808 284.646 206.091 284.407 206.326C284.167 206.561 283.88 206.742 283.564 206.856C283.249 206.97 282.913 207.014 282.578 206.986C282.244 206.959 281.92 206.859 281.627 206.694L271.385 200.928C269.786 200.305 268.499 199.073 267.806 197.502C267.114 195.931 267.072 194.15 267.69 192.549C268.308 190.947 269.536 189.656 271.104 188.959C272.672 188.261 274.453 188.215 276.055 188.828L287.492 191.366C287.82 191.439 288.128 191.581 288.395 191.784C288.663 191.986 288.883 192.244 289.042 192.54C289.201 192.835 289.294 193.162 289.316 193.496C289.337 193.831 289.286 194.167 289.166 194.48Z" fill="#FF7A31"/>
<path d="M336.749 221.75L320.758 229.021L322.857 236.928C326.912 252.197 327.988 268.105 326.026 283.781L337.718 286.224L347.41 261.501L344.018 233.384L336.749 221.75Z" fill="#FF7A31"/>
<path d="M368.125 258.35C357.618 258.35 349.056 265.991 348.641 275.559H387.61C387.194 265.991 378.632 258.35 368.125 258.35Z" fill="#2F2E41"/>
<path d="M359.946 259.999C359.4 216.806 334.81 220.78 334.81 220.78C334.81 220.78 335.27 234.224 335.491 234.642C351.161 264.3 325.3 299.07 292.383 292.674C291.762 292.553 291.166 292.431 290.594 292.306C286.423 291.435 282.741 289.008 280.295 285.517C277.85 282.026 276.826 277.735 277.431 273.515C280.674 247.466 264.546 247.927 264.546 247.927H240.963L228.716 236.901C228.283 236.511 227.762 236.234 227.198 236.093C226.634 235.952 226.044 235.951 225.479 236.091C224.915 236.23 224.393 236.506 223.96 236.894C223.526 237.282 223.195 237.771 222.993 238.317L221.418 242.595C221.418 242.595 198.158 245.019 200.096 267.803H207.287C207.27 268.45 207.296 269.098 207.365 269.742L261.033 269.305C264.179 269.28 266.956 271.83 266.969 274.977C266.972 275.743 266.821 276.502 266.524 277.208C266.227 277.915 265.791 278.554 265.242 279.088C264.692 279.622 264.041 280.039 263.326 280.315C262.612 280.591 261.849 280.721 261.084 280.695L252.431 280.407C249.766 292.283 256.308 300.282 263.516 305.312C270.303 309.978 278.356 312.453 286.591 312.401H310.097C340.625 312.401 345.956 286.709 345.956 286.709C361.947 279.922 359.946 259.999 359.946 259.999Z" fill="#2F2E41"/>
<path d="M366.672 326.46C381.726 326.46 393.93 314.251 393.93 299.191C393.93 284.132 381.726 271.923 366.672 271.923C351.618 271.923 339.414 284.132 339.414 299.191C339.414 314.251 351.618 326.46 366.672 326.46Z" fill="#2F2E41"/>
<path d="M366.672 305.875C370.362 305.875 373.353 302.883 373.353 299.191C373.353 295.5 370.362 292.508 366.672 292.508C362.982 292.508 359.991 295.5 359.991 299.191C359.991 302.883 362.982 305.875 366.672 305.875Z" fill="white"/>
<path d="M229.051 326.46C246.38 326.46 260.427 312.406 260.427 295.071C260.427 277.735 246.38 263.682 229.051 263.682C211.722 263.682 197.674 277.735 197.674 295.071C197.674 312.406 211.722 326.46 229.051 326.46Z" fill="#2F2E41"/>
<path d="M229.05 302.764C233.297 302.764 236.74 299.32 236.74 295.071C236.74 290.822 233.297 287.377 229.05 287.377C224.802 287.377 221.359 290.822 221.359 295.071C221.359 299.32 224.802 302.764 229.05 302.764Z" fill="white"/>
<path d="M320.803 231.17L315.05 215.536C314.75 214.721 314.613 213.855 314.648 212.988C314.683 212.12 314.888 211.268 315.252 210.48C315.615 209.692 316.131 208.983 316.769 208.394C317.406 207.805 318.154 207.347 318.968 207.048L335.464 200.973C336.897 200.445 338.42 200.204 339.946 200.265C341.471 200.326 342.97 200.687 344.357 201.328C345.743 201.968 346.99 202.875 348.026 203.998C349.062 205.12 349.867 206.436 350.395 207.87C350.87 209.156 351.113 210.518 351.112 211.89C351.106 213.632 350.712 215.35 349.959 216.921C349.205 218.492 348.111 219.874 346.757 220.969C345.778 221.755 344.678 222.375 343.5 222.806L320.803 231.17Z" fill="#3F3D56"/>
<path d="M350.869 211.889C350.868 213.596 350.484 215.28 349.746 216.819C349.008 218.358 347.935 219.711 346.605 220.78C344.564 220.242 342.666 219.265 341.041 217.918C339.416 216.572 338.103 214.887 337.195 212.982C336.287 211.077 335.804 208.996 335.78 206.886C335.757 204.775 336.193 202.684 337.059 200.759C338.721 200.397 340.443 200.413 342.098 200.804C343.753 201.195 345.3 201.953 346.625 203.02C347.949 204.088 349.018 205.438 349.753 206.973C350.487 208.508 350.869 210.188 350.869 211.889Z" fill="#FF7A31"/>
<path d="M204.215 270.954C207.962 270.954 210.999 267.264 210.999 262.713C210.999 258.161 207.962 254.471 204.215 254.471C200.468 254.471 197.431 258.161 197.431 262.713C197.431 267.264 200.468 270.954 204.215 270.954Z" fill="#FF7A31"/>
<path d="M293.893 291.884H299.834L302.66 276.47L293.892 276.47L293.893 291.884Z" fill="#FFB8B8"/>
<path d="M292.377 289.944L304.077 289.943H304.077C305.056 289.943 306.026 290.136 306.93 290.511C307.835 290.886 308.657 291.435 309.349 292.128C310.042 292.82 310.591 293.643 310.966 294.548C311.34 295.452 311.533 296.422 311.533 297.402V297.644L292.377 297.645L292.377 289.944Z" fill="#2F2E41"/>
<path d="M300.789 285.557C300.719 285.557 300.65 285.554 300.58 285.547L292.358 284.949C292.026 284.918 291.705 284.811 291.42 284.636C291.136 284.462 290.895 284.224 290.716 283.942C290.538 283.659 290.427 283.34 290.392 283.008C290.356 282.675 290.398 282.339 290.512 282.026L301.516 257.296C301.594 257.075 301.626 256.841 301.61 256.607C301.594 256.374 301.529 256.146 301.421 255.939C301.312 255.729 301.161 255.544 300.976 255.397C300.791 255.25 300.578 255.144 300.349 255.086C295.175 253.733 281.9 250.13 270.408 245.915C265.485 244.109 262.384 241.499 261.192 238.158C259.621 233.753 261.946 229.735 262.045 229.567L262.123 229.435L272.937 230.418L284.659 231.415L310.349 245.196C312.501 246.361 314.136 248.294 314.928 250.61C315.72 252.926 315.611 255.456 314.622 257.696L302.778 284.265C302.607 284.649 302.328 284.976 301.975 285.206C301.622 285.435 301.21 285.557 300.789 285.557Z" fill="#2F2E41"/>
<path d="M274.817 181.491C281.39 181.491 286.719 176.16 286.719 169.584C286.719 163.008 281.39 157.678 274.817 157.678C268.244 157.678 262.915 163.008 262.915 169.584C262.915 176.16 268.244 181.491 274.817 181.491Z" fill="#FFB8B8"/>
<path d="M290.501 293.338H296.442L299.268 277.924L290.5 277.925L290.501 293.338Z" fill="#FFB8B8"/>
<path d="M288.985 291.398L300.685 291.397H300.686C301.665 291.397 302.634 291.59 303.539 291.965C304.443 292.34 305.265 292.889 305.958 293.582C306.65 294.275 307.199 295.097 307.574 296.002C307.949 296.907 308.142 297.877 308.142 298.856V299.099L288.986 299.099L288.985 291.398Z" fill="#2F2E41"/>
<path d="M297.397 287.012C297.328 287.012 297.258 287.008 297.188 287.002L288.967 286.403C288.634 286.372 288.313 286.265 288.029 286.091C287.744 285.916 287.503 285.678 287.325 285.396C287.146 285.114 287.035 284.794 287 284.462C286.965 284.13 287.006 283.794 287.121 283.48L298.124 258.75C298.203 258.529 298.235 258.295 298.218 258.062C298.202 257.828 298.138 257.6 298.029 257.393C297.921 257.183 297.769 256.999 297.584 256.852C297.4 256.705 297.186 256.599 296.957 256.54C291.783 255.187 278.508 251.584 267.017 247.369C262.093 245.563 258.993 242.953 257.801 239.612C256.229 235.207 258.554 231.19 258.654 231.021L258.732 230.889L269.545 231.872L281.268 232.87L306.957 246.651C309.11 247.815 310.745 249.748 311.537 252.064C312.329 254.381 312.219 256.911 311.23 259.15L299.387 285.719C299.215 286.104 298.936 286.431 298.583 286.66C298.23 286.889 297.818 287.012 297.397 287.012Z" fill="#2F2E41"/>
<path d="M278.488 188.242L265.889 183.879C265.889 183.879 257.979 189.958 261.779 205.039C263.763 212.821 263.185 221.035 260.131 228.463C259.764 229.382 259.34 230.277 258.862 231.144C258.862 231.144 272.915 248.111 285.999 235.507L280.911 211.026C280.911 211.026 288.906 194.786 278.488 188.242Z" fill="#FF7A31"/>
<path d="M276.294 181.896C274.6 179.359 273.264 175.842 275.129 173.429C276.97 171.046 280.601 171.397 283.42 170.343C287.347 168.875 289.625 164.26 288.914 160.126C288.204 155.993 284.887 152.567 280.936 151.165C276.985 149.763 272.529 150.219 268.66 151.833C263.897 153.821 259.811 157.665 258.098 162.535C256.384 167.405 257.3 173.252 260.855 176.996C264.665 181.009 270.646 182.078 276.179 182.013" fill="#695067"/>
<path d="M265.224 160.259C263.089 161.997 259.833 161.225 257.541 159.7C255.25 158.174 253.391 156.002 250.912 154.806C246.541 152.697 241.257 154.099 237.003 156.434C232.75 158.77 228.979 161.997 224.486 163.83C219.993 165.663 214.259 165.754 210.857 162.293C210.02 164.719 209.951 167.345 210.661 169.812C211.371 172.279 212.824 174.467 214.823 176.077C216.821 177.688 219.268 178.642 221.828 178.81C224.389 178.978 226.939 178.351 229.131 177.016C234.054 174.016 236.773 167.726 242.295 166.07C245.351 165.154 248.632 165.892 251.72 166.691C254.808 167.49 258.028 168.354 261.144 167.674C264.261 166.993 267.176 164.191 266.78 161.025L265.224 160.259Z" fill="#695067"/>
<path d="M332.644 211.066C332.331 210.372 331.869 209.756 331.292 209.259C330.715 208.763 330.036 208.4 329.303 208.194C328.57 207.989 327.801 207.947 327.05 208.071C326.3 208.195 325.585 208.483 324.957 208.913L278.694 198.526L278.119 209.836L323.775 216.49C324.568 217.497 325.702 218.179 326.963 218.405C328.224 218.632 329.524 218.388 330.618 217.719C331.711 217.05 332.521 216.004 332.894 214.778C333.268 213.552 333.179 212.231 332.644 211.066Z" fill="#FFB8B8"/>
<path d="M286.806 199.565L283.982 211.015C283.902 211.341 283.752 211.646 283.544 211.908C283.335 212.171 283.072 212.386 282.773 212.538C282.474 212.69 282.146 212.775 281.811 212.789C281.475 212.803 281.141 212.744 280.831 212.617L269.956 208.158C268.291 207.738 266.861 206.675 265.978 205.201C265.096 203.728 264.835 201.964 265.251 200.298C265.667 198.632 266.727 197.199 268.198 196.313C269.669 195.428 271.431 195.162 273.098 195.575L284.761 196.681C285.095 196.713 285.418 196.817 285.708 196.984C285.998 197.152 286.249 197.381 286.443 197.655C286.637 197.928 286.77 198.241 286.833 198.57C286.895 198.9 286.886 199.239 286.806 199.565V199.565Z" fill="#FF7A31"/>
<path d="M327.299 220.053C329.173 220.053 330.691 218.534 330.691 216.659C330.691 214.785 329.173 213.266 327.299 213.266C325.426 213.266 323.907 214.785 323.907 216.659C323.907 218.534 325.426 220.053 327.299 220.053Z" fill="#FF7A31"/>
<path d="M477.516 326.702C477.515 326.83 477.464 326.954 477.373 327.044C477.282 327.135 477.159 327.186 477.031 327.187H76.2805C76.152 327.187 76.0287 327.136 75.9378 327.045C75.847 326.954 75.7959 326.831 75.7959 326.702C75.7959 326.573 75.847 326.45 75.9378 326.359C76.0287 326.268 76.152 326.217 76.2805 326.217H477.031C477.159 326.218 477.282 326.269 477.373 326.36C477.464 326.451 477.515 326.574 477.516 326.702Z" fill="#3F3D56"/>
</g>
<path fill-rule="evenodd" clip-rule="evenodd" d="M241.741 222.474C241.413 222.114 241.024 221.871 240.565 221.752C240.413 221.712 239.865 221.691 238.947 221.676L238.923 221.656C238.142 221.651 237.424 221.65 236.868 221.652C236.825 221.651 236.784 221.651 236.74 221.651L236.742 221.652C236.148 221.655 235.769 221.662 235.754 221.67C235.675 221.716 236.198 222.597 236.483 222.922C236.811 223.282 237.2 223.525 237.66 223.644C237.909 223.71 239.214 223.755 241.485 223.776L241.445 223.744C242.061 223.741 242.455 223.734 242.47 223.726C242.549 223.68 242.027 222.799 241.741 222.474Z" fill="white"/>
<path fill-rule="evenodd" clip-rule="evenodd" d="M235.528 227.304C235.059 227.263 234.646 227.296 234.287 227.412C234.16 227.451 233.791 227.665 233.182 228.035C233.022 228.132 232.813 228.081 232.718 227.919C232.622 227.754 232.522 227.583 232.418 227.406C231.799 226.356 230.508 224.156 229.55 222.524C228.397 220.566 227.705 219.457 227.523 219.274C227.19 218.935 226.786 218.719 226.311 218.615C225.887 218.53 224.863 218.517 224.863 218.608C224.863 218.641 225.567 219.881 226.434 221.363C227.301 222.845 228.39 224.717 228.859 225.527C230.483 228.327 230.626 228.556 230.867 228.797C231.033 228.963 231.218 229.094 231.425 229.2C231.429 229.207 231.445 229.215 231.473 229.225C231.879 229.419 232.377 229.509 233.025 229.509C233.068 229.509 233.105 229.509 233.143 229.508C233.154 229.508 233.164 229.508 233.175 229.508C233.271 229.507 233.345 229.505 233.404 229.5C233.637 229.485 233.854 229.449 234.054 229.384C234.25 229.323 235.042 228.864 236.377 228.042L236.248 228.041C236.656 227.781 236.917 227.609 236.919 227.6C236.929 227.549 235.945 227.346 235.528 227.304Z" fill="white"/>
<path fill-rule="evenodd" clip-rule="evenodd" d="M235.228 219.706C235.527 220.035 235.88 220.255 236.298 220.363C236.525 220.424 237.713 220.465 239.78 220.484C241.501 220.498 243.821 220.515 244.93 220.526C246.044 220.533 246.99 220.536 247.04 220.527C247.108 220.515 247.077 220.423 246.86 220.048C246.4 219.25 245.934 218.833 245.318 218.668C245.018 218.588 244.773 218.578 241.829 218.572C240.979 218.569 239.008 218.563 237.447 218.553C235.886 218.543 234.589 218.551 234.563 218.566C234.491 218.609 234.968 219.41 235.228 219.706Z" fill="white"/>
<path fill-rule="evenodd" clip-rule="evenodd" d="M237.812 227.968C236.81 228.623 235.992 229.175 235.988 229.194C235.978 229.246 236.951 229.447 237.364 229.486C237.829 229.524 238.239 229.486 238.595 229.363C238.79 229.298 239.58 228.816 240.912 227.951" fill="white"/>
<path fill-rule="evenodd" clip-rule="evenodd" d="M241.399 227.777C241.778 227.276 240.37 227.362 239.962 227.362C239.491 227.361 239.08 227.354 238.722 227.47C238.602 227.507 238.265 227.7 237.716 228.033C237.568 228.123 237.374 228.075 237.287 227.925C237.19 227.759 237.088 227.585 236.983 227.406C236.364 226.356 235.073 224.156 234.115 222.524C232.962 220.566 232.271 219.457 232.088 219.274C231.756 218.935 231.352 218.719 230.876 218.615C230.453 218.53 229.429 218.517 229.429 218.608C229.429 218.641 230.132 219.881 231 221.363C231.867 222.845 232.956 224.717 233.425 225.527C235.048 228.327 235.191 228.556 235.432 228.797C235.928 229.293 236.579 229.508 237.59 229.508C238.066 229.508 238.17 229.489 238.144 229.417C238.135 229.392 238.008 229.168 237.81 228.827L239.524 228.826C240.529 228.201 241.377 227.807 241.399 227.777Z" fill="white"/>
<defs>
<clipPath id="clip0_214_43">
<rect width="401.72" height="176.858" fill="white" transform="translate(75.7959 150.329)"/>
</clipPath>
</defs>
</svg>
