<svg width="58" height="58" viewBox="0 0 58 58" fill="none" xmlns="http://www.w3.org/2000/svg">
<circle r="28.6406" transform="matrix(-1 0 0 1 29.3594 28.6406)" fill="#FF7A31"/>
<path d="M24.4722 18.4849C24.1701 18.7955 24.0004 19.2168 24.0004 19.6559C24.0004 20.0951 24.1701 20.5163 24.4722 20.8269L32.4484 29.0256L24.4722 37.2243C24.1787 37.5367 24.0162 37.9551 24.0199 38.3893C24.0236 38.8236 24.193 39.239 24.4918 39.5461C24.7906 39.8532 25.1947 40.0274 25.6172 40.0312C26.0397 40.035 26.4467 39.868 26.7506 39.5663L35.8661 30.1966C36.1682 29.886 36.3379 29.4648 36.3379 29.0256C36.3379 28.5864 36.1682 28.1652 35.8661 27.8546L26.7506 18.4849C26.4485 18.1744 26.0387 18 25.6114 18C25.1841 18 24.7744 18.1744 24.4722 18.4849V18.4849Z" fill="white"/>
</svg>
