<svg width="58" height="57" viewBox="0 0 58 57" fill="none" xmlns="http://www.w3.org/2000/svg">
<ellipse cx="28.64" cy="28.4229" rx="28.64" ry="28.4229" fill="#A0A0A0"/>
<path d="M33.5266 18.3444C33.8287 18.6527 33.9984 19.0707 33.9984 19.5065C33.9984 19.9424 33.8287 20.3604 33.5266 20.6686L25.5505 28.805L33.5266 36.9413C33.8201 37.2513 33.9825 37.6665 33.9788 38.0975C33.9752 38.5285 33.8057 38.9408 33.507 39.2455C33.2082 39.5503 32.8041 39.7231 32.3816 39.7269C31.9591 39.7306 31.5521 39.5649 31.2482 39.2655L22.1329 29.9671C21.8308 29.6588 21.6611 29.2408 21.6611 28.805C21.6611 28.3691 21.8308 27.9511 22.1329 27.6429L31.2482 18.3444C31.5503 18.0363 31.9601 17.8632 32.3874 17.8632C32.8146 17.8632 33.2244 18.0363 33.5266 18.3444V18.3444Z" fill="white"/>
</svg>
