<svg width="143" height="71" viewBox="0 0 143 71" fill="none" xmlns="http://www.w3.org/2000/svg">
<path fill-rule="evenodd" clip-rule="evenodd" d="M108.661 25.6165C106.549 23.2965 104.046 21.7327 101.086 20.9672C100.107 20.7058 96.5825 20.5704 90.6714 20.477L90.5129 20.3463C85.4876 20.3137 80.8631 20.309 77.2829 20.323C77.0079 20.3183 76.7421 20.3183 76.4578 20.3137L76.4718 20.323C72.6491 20.3417 70.2064 20.3837 70.1132 20.4397C69.605 20.7338 72.9708 26.4054 74.8075 28.4966C76.9193 30.8166 79.4226 32.3804 82.3828 33.1459C83.9865 33.5754 92.3916 33.8601 107.011 34.0001L106.754 33.7901C110.717 33.7714 113.258 33.7294 113.351 33.6734C113.864 33.3793 110.498 27.7077 108.661 25.6165Z" fill="white"/>
<path fill-rule="evenodd" clip-rule="evenodd" d="M68.6629 56.7144C65.642 56.4483 62.9849 56.6631 60.6773 57.4053C59.8568 57.662 57.4793 59.0391 53.5588 61.4197C52.5286 62.0452 51.1813 61.7138 50.5706 60.6729C49.9553 59.6132 49.3073 58.5069 48.6407 57.3726C44.6549 50.6087 36.343 36.4461 30.1755 25.9385C22.7493 13.3304 18.2974 6.18837 17.1226 5.01204C14.9829 2.82744 12.3816 1.44105 9.31883 0.768866C6.59171 0.222714 0 0.138689 0 0.726852C0 0.936911 4.53122 8.91913 10.116 18.4605C15.6961 28.0018 22.7074 40.0591 25.7282 45.2732C36.1798 63.3009 37.1028 64.7713 38.6552 66.3258C39.7227 67.3947 40.9115 68.2396 42.2494 68.9212C42.2727 68.9632 42.3753 69.0192 42.5571 69.0845C45.1723 70.3309 48.3796 70.9097 52.5472 70.9097C52.8269 70.9097 53.0647 70.9097 53.3071 70.905C53.377 70.905 53.4469 70.905 53.5168 70.905C54.1322 70.8957 54.6124 70.8817 54.99 70.849C56.491 70.7557 57.8896 70.5223 59.1715 70.1068C60.4349 69.71 65.5348 66.7599 74.1311 61.4617L73.3013 61.4571C75.9259 59.7859 77.6088 58.6796 77.6227 58.619C77.6833 58.2922 71.348 56.9805 68.6629 56.7144Z" fill="white"/>
<path fill-rule="evenodd" clip-rule="evenodd" d="M66.7374 7.79424C68.6627 9.90883 70.9376 11.3279 73.6321 12.0234C75.0912 12.4155 82.7411 12.6769 96.0504 12.803C107.131 12.8917 122.063 13.0037 129.205 13.0737C136.379 13.1204 142.472 13.1344 142.794 13.0784C143.232 12.999 143.027 12.4109 141.633 9.99285C138.673 4.85809 135.671 2.17402 131.703 1.10972C129.774 0.591576 128.193 0.530895 109.243 0.488883C103.766 0.47488 91.0764 0.432867 81.0256 0.367515C70.9749 0.302164 62.6257 0.358181 62.4579 0.456208C61.9964 0.72695 65.0638 5.88971 66.7374 7.79424Z" fill="white"/>
<path fill-rule="evenodd" clip-rule="evenodd" d="M83.3705 60.9856C76.9186 65.2054 71.6508 68.7624 71.6275 68.8838C71.5576 69.2152 77.8277 70.5129 80.4849 70.7603C83.4777 71.0077 86.1163 70.7603 88.4099 69.9714C89.6686 69.5513 94.7545 66.4471 103.328 60.8782" fill="white"/>
<path fill-rule="evenodd" clip-rule="evenodd" d="M106.469 59.7579C108.907 56.5324 99.8448 57.0878 97.2156 57.0878C94.1854 57.0832 91.5376 57.0365 89.23 57.7787C88.4561 58.0214 86.2884 59.2631 82.7548 61.4057C81.7992 61.9845 80.5545 61.6765 79.9904 60.7102C79.3658 59.6412 78.7131 58.5209 78.0372 57.3726C74.0514 50.6087 65.7395 36.4461 59.572 25.9385C52.1458 13.3304 47.6938 6.18837 46.5191 5.01204C44.3793 2.82744 41.7781 1.44105 38.7153 0.768866C35.9882 0.222714 29.3965 0.138689 29.3965 0.726852C29.3965 0.936911 33.9277 8.91913 39.5125 18.4605C45.0926 28.0018 52.1039 40.0591 55.1247 45.2732C65.5763 63.3009 66.4993 64.7713 68.0517 66.3258C71.2403 69.5186 75.4359 70.905 81.9437 70.905C85.0065 70.905 85.6778 70.779 85.5099 70.3169C85.4493 70.1535 84.6335 68.7157 83.3609 66.5171L94.3952 66.5125C100.866 62.4887 106.325 59.9493 106.469 59.7579Z" fill="white"/>
</svg>
