<svg width="195" height="38" viewBox="0 0 195 38" fill="none" xmlns="http://www.w3.org/2000/svg">
<path fill-rule="evenodd" clip-rule="evenodd" d="M55.5935 12.9554C54.5131 11.7672 53.2323 10.9663 51.7178 10.5742C51.2169 10.4403 49.4138 10.371 46.3896 10.3232L46.3085 10.2562C43.7374 10.2395 41.3714 10.2371 39.5397 10.2443C39.3989 10.2419 39.263 10.2419 39.1175 10.2395L39.1246 10.2443C37.1689 10.2538 35.9191 10.2754 35.8714 10.3041C35.6114 10.4547 37.3335 13.3595 38.2732 14.4306C39.3536 15.6188 40.6344 16.4197 42.1489 16.8118C42.9694 17.0317 47.2696 17.1776 54.7492 17.2493L54.618 17.1417C56.6453 17.1322 57.9452 17.1106 57.9929 17.0819C58.2553 16.9313 56.5332 14.0265 55.5935 12.9554Z" fill="#F47936"/>
<path fill-rule="evenodd" clip-rule="evenodd" d="M35.1297 28.8829C33.5841 28.7466 32.2246 28.8566 31.044 29.2367C30.6243 29.3682 29.4079 30.0735 27.402 31.2928C26.8749 31.6132 26.1856 31.4434 25.8732 30.9103C25.5584 30.3676 25.2269 29.8009 24.8858 29.22C22.8466 25.7557 18.594 18.5021 15.4385 13.1204C11.6391 6.6629 9.36139 3.00499 8.76035 2.40251C7.6656 1.28363 6.33474 0.573563 4.76775 0.22929C3.37248 -0.0504324 0 -0.0934676 0 0.207772C0 0.315357 2.31828 4.4036 5.17559 9.29037C8.03052 14.1771 11.6177 20.3525 13.1632 23.0231C18.5105 32.2563 18.9827 33.0094 19.777 33.8055C20.3232 34.353 20.9313 34.7857 21.6159 35.1348C21.6278 35.1563 21.6803 35.185 21.7733 35.2185C23.1113 35.8568 24.7522 36.1533 26.8845 36.1533C27.0276 36.1533 27.1492 36.1533 27.2732 36.1509C27.309 36.1509 27.3448 36.1509 27.3806 36.1509C27.6954 36.1461 27.9411 36.1389 28.1343 36.1222C28.9022 36.0744 29.6178 35.9548 30.2737 35.742C30.92 35.5388 33.5293 34.0279 37.9273 31.3143L37.5028 31.3119C38.8456 30.456 39.7066 29.8894 39.7137 29.8583C39.7448 29.691 36.5034 29.0191 35.1297 28.8829Z" fill="#F47936"/>
<path fill-rule="evenodd" clip-rule="evenodd" d="M34.1446 3.82746C35.1297 4.91049 36.2936 5.63729 37.6721 5.99352C38.4187 6.19434 42.3326 6.32823 49.1419 6.39278C54.8112 6.4382 62.4506 6.49558 66.1045 6.53144C69.7751 6.55535 72.8924 6.56252 73.057 6.53383C73.2812 6.49319 73.1762 6.19195 72.4631 4.95352C70.9486 2.32365 69.4126 0.94895 67.3829 0.40385C66.3955 0.138473 65.587 0.107394 55.8917 0.0858766C53.0892 0.0787043 46.5971 0.0571867 41.4549 0.0237156C36.3127 -0.00975543 32.041 0.0189346 31.9551 0.0691412C31.719 0.207807 33.2884 2.85202 34.1446 3.82746Z" fill="#F47936"/>
<path fill-rule="evenodd" clip-rule="evenodd" d="M42.6546 31.0705C39.3536 33.2318 36.6585 35.0535 36.6466 35.1157C36.6108 35.2854 39.8187 35.9501 41.1782 36.0768C42.7094 36.2035 44.0594 36.0768 45.2328 35.6728C45.8768 35.4576 48.4789 33.8677 52.865 31.0155" fill="#F47936"/>
<path fill-rule="evenodd" clip-rule="evenodd" d="M54.4725 30.4417C55.7199 28.7896 51.0834 29.0741 49.7382 29.0741C48.1879 29.0717 46.8332 29.0478 45.6526 29.428C45.2566 29.5523 44.1476 30.1882 42.3397 31.2856C41.8508 31.5821 41.214 31.4243 40.9254 30.9294C40.6058 30.3819 40.2719 29.8081 39.926 29.22C37.8868 25.7557 33.6342 18.5021 30.4788 13.1204C26.6794 6.6629 24.4016 3.00499 23.8006 2.40251C22.7058 1.28363 21.375 0.573563 19.808 0.22929C18.4127 -0.0504324 15.0402 -0.0934676 15.0402 0.207772C15.0402 0.315357 17.3585 4.4036 20.2158 9.29037C23.0708 14.1771 26.6579 20.3525 28.2034 23.0231C33.5507 32.2563 34.023 33.0094 34.8172 33.8055C36.4486 35.4408 38.5952 36.1509 41.9247 36.1509C43.4917 36.1509 43.8352 36.0863 43.7493 35.8496C43.7183 35.766 43.3009 35.0296 42.6498 33.9035L48.2952 33.9011C51.6057 31.8403 54.3986 30.5397 54.4725 30.4417Z" fill="#F47936"/>
<path d="M129.21 9.248L124.53 26H120.57L117.426 14.072L114.138 26L110.202 26.024L105.69 9.248H109.29L112.242 22.256L115.65 9.248H119.394L122.61 22.184L125.586 9.248H129.21ZM141.748 9.248V11.96H134.764V16.256H140.116V18.92H134.764V26H131.404V9.248H141.748ZM150.035 26.216C148.755 26.216 147.603 25.936 146.579 25.376C145.555 24.8 144.747 23.992 144.155 22.952C143.579 21.912 143.291 20.712 143.291 19.352C143.291 17.992 143.587 16.792 144.179 15.752C144.787 14.712 145.611 13.912 146.651 13.352C147.691 12.776 148.851 12.488 150.131 12.488C151.411 12.488 152.571 12.776 153.611 13.352C154.651 13.912 155.467 14.712 156.059 15.752C156.667 16.792 156.971 17.992 156.971 19.352C156.971 20.712 156.659 21.912 156.035 22.952C155.427 23.992 154.595 24.8 153.539 25.376C152.499 25.936 151.331 26.216 150.035 26.216ZM150.035 23.288C150.643 23.288 151.211 23.144 151.739 22.856C152.283 22.552 152.715 22.104 153.035 21.512C153.355 20.92 153.515 20.2 153.515 19.352C153.515 18.088 153.179 17.12 152.507 16.448C151.851 15.76 151.043 15.416 150.083 15.416C149.123 15.416 148.315 15.76 147.659 16.448C147.019 17.12 146.699 18.088 146.699 19.352C146.699 20.616 147.011 21.592 147.635 22.28C148.275 22.952 149.075 23.288 150.035 23.288ZM165.34 26.216C164.06 26.216 162.908 25.936 161.884 25.376C160.86 24.8 160.052 23.992 159.46 22.952C158.884 21.912 158.596 20.712 158.596 19.352C158.596 17.992 158.892 16.792 159.484 15.752C160.092 14.712 160.916 13.912 161.956 13.352C162.996 12.776 164.156 12.488 165.436 12.488C166.716 12.488 167.876 12.776 168.916 13.352C169.956 13.912 170.772 14.712 171.364 15.752C171.972 16.792 172.276 17.992 172.276 19.352C172.276 20.712 171.964 21.912 171.34 22.952C170.732 23.992 169.9 24.8 168.844 25.376C167.804 25.936 166.636 26.216 165.34 26.216ZM165.34 23.288C165.948 23.288 166.516 23.144 167.044 22.856C167.588 22.552 168.02 22.104 168.34 21.512C168.66 20.92 168.82 20.2 168.82 19.352C168.82 18.088 168.484 17.12 167.812 16.448C167.156 15.76 166.348 15.416 165.388 15.416C164.428 15.416 163.62 15.76 162.964 16.448C162.324 17.12 162.004 18.088 162.004 19.352C162.004 20.616 162.316 21.592 162.94 22.28C163.58 22.952 164.38 23.288 165.34 23.288ZM173.876 19.304C173.876 17.96 174.14 16.768 174.668 15.728C175.212 14.688 175.948 13.888 176.876 13.328C177.804 12.768 178.836 12.488 179.972 12.488C180.836 12.488 181.66 12.68 182.444 13.064C183.228 13.432 183.852 13.928 184.316 14.552V8.24H187.724V26H184.316V24.032C183.9 24.688 183.316 25.216 182.564 25.616C181.812 26.016 180.94 26.216 179.948 26.216C178.828 26.216 177.804 25.928 176.876 25.352C175.948 24.776 175.212 23.968 174.668 22.928C174.14 21.872 173.876 20.664 173.876 19.304ZM184.34 19.352C184.34 18.536 184.18 17.84 183.86 17.264C183.54 16.672 183.108 16.224 182.564 15.92C182.02 15.6 181.436 15.44 180.812 15.44C180.188 15.44 179.612 15.592 179.084 15.896C178.556 16.2 178.124 16.648 177.788 17.24C177.468 17.816 177.308 18.504 177.308 19.304C177.308 20.104 177.468 20.808 177.788 21.416C178.124 22.008 178.556 22.464 179.084 22.784C179.628 23.104 180.204 23.264 180.812 23.264C181.436 23.264 182.02 23.112 182.564 22.808C183.108 22.488 183.54 22.04 183.86 21.464C184.18 20.872 184.34 20.168 184.34 19.352Z" fill="white"/>
</svg>
