<svg width="45" height="45" viewBox="0 0 45 45" fill="none" xmlns="http://www.w3.org/2000/svg">
<path d="M22.4994 0.899902C10.5699 0.899902 0.899414 10.5704 0.899414 22.4999C0.899414 34.4294 10.5699 44.0999 22.4994 44.0999C34.4289 44.0999 44.0994 34.4294 44.0994 22.4999C44.0994 10.5704 34.4289 0.899902 22.4994 0.899902ZM31.2857 18.5939C31.2947 18.7784 31.2969 18.9629 31.2969 19.1429C31.2969 24.7679 27.0197 31.2502 19.1942 31.2502C16.8818 31.254 14.6176 30.5899 12.6737 29.3377C13.0044 29.3782 13.3442 29.3939 13.6884 29.3939C15.6819 29.3939 17.5157 28.7167 18.9714 27.5737C18.0843 27.5562 17.2247 27.2625 16.5124 26.7333C15.8002 26.2042 15.2707 25.466 14.9979 24.6217C15.635 24.7428 16.2913 24.7174 16.9172 24.5474C15.9543 24.3527 15.0884 23.831 14.4663 23.0707C13.8442 22.3103 13.5042 21.3583 13.5039 20.3759V20.3242C14.0777 20.6414 14.7347 20.8349 15.4322 20.8574C14.5295 20.2565 13.8904 19.3334 13.6458 18.277C13.4011 17.2205 13.5693 16.1105 14.1159 15.1739C15.1846 16.4879 16.5173 17.5628 18.0277 18.3291C19.5381 19.0954 21.1927 19.5359 22.8842 19.6222C22.6691 18.7093 22.7617 17.7511 23.1474 16.8963C23.5332 16.0415 24.1906 15.3381 25.0173 14.8955C25.8441 14.4529 26.7939 14.2958 27.7192 14.4487C28.6444 14.6016 29.4932 15.0558 30.1337 15.7409C31.0858 15.5525 31.9989 15.2033 32.8337 14.7082C32.5163 15.694 31.8519 16.531 30.9639 17.0639C31.8073 16.9623 32.6309 16.7356 33.4074 16.3912C32.837 17.2459 32.1185 17.9919 31.2857 18.5939Z" fill="white"/>
</svg>
