<svg width="45" height="45" viewBox="0 0 45 45" fill="none" xmlns="http://www.w3.org/2000/svg">
<circle cx="22.5" cy="22.5" r="22.5" fill="white"/>
<path fill-rule="evenodd" clip-rule="evenodd" d="M17.1296 9.55179C18.5186 9.48784 18.9615 9.47363 22.4999 9.47363C26.0384 9.47363 26.4813 9.48903 27.8692 9.55179C29.2571 9.61455 30.2044 9.836 31.0334 10.1569C31.9014 10.4849 32.6889 10.9977 33.3402 11.6609C34.0034 12.311 34.5149 13.0973 34.8418 13.9665C35.1639 14.7955 35.3842 15.7428 35.4481 17.1284C35.5121 18.5198 35.5263 18.9627 35.5263 22.4999C35.5263 26.0384 35.5109 26.4813 35.4481 27.8703C35.3853 29.2559 35.1639 30.2032 34.8418 31.0322C34.5149 31.9015 34.0025 32.6891 33.3402 33.3402C32.6889 34.0034 31.9014 34.5149 31.0334 34.8418C30.2044 35.1639 29.2571 35.3842 27.8715 35.4481C26.4813 35.5121 26.0384 35.5263 22.4999 35.5263C18.9615 35.5263 18.5186 35.5109 17.1296 35.4481C15.744 35.3853 14.7967 35.1639 13.9677 34.8418C13.0984 34.5149 12.3108 34.0025 11.6597 33.3402C10.997 32.6897 10.4841 31.9024 10.1569 31.0334C9.836 30.2044 9.61574 29.2571 9.55179 27.8715C9.48784 26.4801 9.47363 26.0372 9.47363 22.4999C9.47363 18.9615 9.48903 18.5186 9.55179 17.1307C9.61455 15.7428 9.836 14.7955 10.1569 13.9665C10.4846 13.0974 10.9979 12.3102 11.6609 11.6597C12.311 10.9971 13.0979 10.4843 13.9665 10.1569C14.7955 9.836 15.7428 9.61574 17.1284 9.55179H17.1296ZM27.7638 11.8965C26.3901 11.8338 25.978 11.8207 22.4999 11.8207C19.0219 11.8207 18.6098 11.8338 17.2361 11.8965C15.9655 11.9546 15.2763 12.1665 14.8168 12.3453C14.2093 12.5822 13.7747 12.8628 13.3188 13.3188C12.8866 13.7392 12.554 14.2511 12.3453 14.8168C12.1665 15.2763 11.9546 15.9655 11.8965 17.2361C11.8338 18.6098 11.8207 19.0219 11.8207 22.4999C11.8207 25.978 11.8338 26.3901 11.8965 27.7638C11.9546 29.0344 12.1665 29.7236 12.3453 30.1831C12.5538 30.748 12.8865 31.2607 13.3188 31.6811C13.7392 32.1134 14.2519 32.4461 14.8168 32.6546C15.2763 32.8334 15.9655 33.0453 17.2361 33.1034C18.6098 33.1661 19.0207 33.1792 22.4999 33.1792C25.9792 33.1792 26.3901 33.1661 27.7638 33.1034C29.0344 33.0453 29.7236 32.8334 30.1831 32.6546C30.7906 32.4177 31.2252 32.1371 31.6811 31.6811C32.1134 31.2607 32.4461 30.748 32.6546 30.1831C32.8334 29.7236 33.0453 29.0344 33.1034 27.7638C33.1661 26.3901 33.1792 25.978 33.1792 22.4999C33.1792 19.0219 33.1661 18.6098 33.1034 17.2361C33.0453 15.9655 32.8334 15.2763 32.6546 14.8168C32.4177 14.2093 32.1371 13.7747 31.6811 13.3188C31.2607 12.8866 30.7488 12.554 30.1831 12.3453C29.7236 12.1665 29.0344 11.9546 27.7638 11.8965ZM20.8361 26.5156C21.7653 26.9024 22.8 26.9546 23.7634 26.6633C24.7268 26.372 25.5592 25.7552 26.1184 24.9184C26.6776 24.0815 26.929 23.0765 26.8295 22.0749C26.73 21.0734 26.2859 20.1374 25.573 19.4269C25.1185 18.9727 24.569 18.625 23.964 18.4087C23.359 18.1924 22.7136 18.1129 22.0742 18.1759C21.4348 18.239 20.8174 18.4431 20.2663 18.7734C19.7152 19.1037 19.2443 19.5521 18.8873 20.0864C18.5303 20.6206 18.2962 21.2273 18.2019 21.8628C18.1075 22.4983 18.1553 23.1469 18.3416 23.7617C18.528 24.3766 18.8484 24.9425 19.2797 25.4187C19.7111 25.8949 20.2426 26.2695 20.8361 26.5156ZM17.7655 17.7655C18.3872 17.1437 19.1253 16.6505 19.9377 16.3141C20.75 15.9776 21.6207 15.8044 22.4999 15.8044C23.3792 15.8044 24.2499 15.9776 25.0622 16.3141C25.8746 16.6505 26.6127 17.1437 27.2344 17.7655C27.8562 18.3872 28.3494 19.1253 28.6858 19.9377C29.0223 20.75 29.1955 21.6207 29.1955 22.4999C29.1955 23.3792 29.0223 24.2499 28.6858 25.0622C28.3494 25.8746 27.8562 26.6127 27.2344 27.2344C25.9788 28.4901 24.2757 29.1955 22.4999 29.1955C20.7242 29.1955 19.0211 28.4901 17.7655 27.2344C16.5098 25.9788 15.8044 24.2757 15.8044 22.4999C15.8044 20.7242 16.5098 19.0211 17.7655 17.7655ZM30.6805 16.8015C30.8345 16.6562 30.9579 16.4814 31.0432 16.2875C31.1285 16.0937 31.1741 15.8847 31.1772 15.6729C31.1802 15.4611 31.1408 15.2509 31.0612 15.0546C30.9816 14.8583 30.8634 14.68 30.7136 14.5303C30.5638 14.3805 30.3855 14.2623 30.1893 14.1827C29.993 14.103 29.7827 14.0636 29.571 14.0667C29.3592 14.0698 29.1502 14.1153 28.9563 14.2006C28.7624 14.286 28.5877 14.4093 28.4423 14.5634C28.1597 14.863 28.0049 15.261 28.0109 15.6729C28.0169 16.0848 28.1832 16.4781 28.4745 16.7694C28.7657 17.0606 29.1591 17.2269 29.571 17.2329C29.9828 17.2389 30.3808 17.0842 30.6805 16.8015Z" fill="#FF7A31"/>
</svg>
