<svg width="45" height="45" viewBox="0 0 45 45" fill="none" xmlns="http://www.w3.org/2000/svg">
<circle cx="22.5" cy="22.5" r="22.5" fill="white"/>
<path d="M26.6446 11.8421H23.4852C19.4612 11.8018 18.9473 14.2922 18.9473 16.9875V18.9473H17.171C17.0907 18.9366 17.009 18.9445 16.9323 18.9705C16.8555 18.9965 16.7858 19.0398 16.7286 19.097C16.6713 19.1543 16.628 19.224 16.602 19.3008C16.5761 19.3775 16.5681 19.4592 16.5789 19.5394V23.0921C16.5681 23.1724 16.5761 23.254 16.602 23.3308C16.628 23.4075 16.6713 23.4772 16.7286 23.5345C16.7858 23.5917 16.8555 23.635 16.9323 23.661C17.009 23.687 17.0907 23.6949 17.171 23.6842H18.9473V32.5658C18.9374 32.6462 18.9461 32.7278 18.9726 32.8044C18.9991 32.881 19.0427 32.9505 19.1002 33.0076C19.1577 33.0647 19.2274 33.108 19.3042 33.134C19.3809 33.1601 19.4626 33.1682 19.5429 33.1579H23.1607C23.51 33.1981 23.7931 32.9151 23.6818 32.5658L23.6841 23.6842H26.6446C26.7249 23.6949 26.8066 23.687 26.8833 23.661C26.9601 23.635 27.0298 23.5917 27.087 23.5345C27.1443 23.4772 27.1876 23.4075 27.2136 23.3308C27.2395 23.254 27.2475 23.1724 27.2368 23.0921V19.5394C27.2475 19.4592 27.2395 19.3775 27.2136 19.3008C27.1876 19.224 27.1443 19.1543 27.087 19.097C27.0298 19.0398 26.9601 18.9965 26.8833 18.9705C26.8066 18.9445 26.7249 18.9366 26.6446 18.9473H23.6806L23.6841 17.171C23.799 16.4143 23.799 16.5375 24.5012 16.5789H26.6198C26.7844 16.5422 26.9596 16.5623 27.0828 16.4427C27.206 16.3231 27.277 16.1597 27.2356 15.9868V12.4342C27.2465 12.354 27.2388 12.2723 27.2129 12.1956C27.1871 12.1188 27.1439 12.0491 27.0868 11.9918C27.0296 11.9345 26.9599 11.8911 26.8832 11.8652C26.8065 11.8392 26.7249 11.8313 26.6446 11.8421ZM26.0111 15.3284L24.5261 15.2715C22.687 15.2715 22.5331 16.2698 22.5331 17.2918L22.5283 19.5371C22.5282 19.6202 22.5444 19.7026 22.5761 19.7794C22.6078 19.8563 22.6544 19.9261 22.7131 19.985C22.7719 20.0438 22.8416 20.0905 22.9184 20.1224C22.9952 20.1542 23.0776 20.1706 23.1607 20.1706H26.0525V22.4585H23.1631C22.9952 22.4585 22.8343 22.5251 22.7155 22.6437C22.5967 22.7622 22.5298 22.9231 22.5295 23.0909L22.5283 31.9737H20.1315V23.0921C20.1315 22.7427 19.8935 22.4597 19.5429 22.4597H17.7631V20.1718H19.5429C19.626 20.1719 19.7083 20.1557 19.7851 20.124C19.8619 20.0923 19.9318 20.0458 19.9906 19.9871C20.109 19.8675 20.1303 19.7064 20.1303 19.5383V16.9863C20.1303 14.3313 20.6668 13.0665 23.484 13.0665H26.0099V15.3284H26.0111Z" fill="#FF7A31"/>
</svg>
