<svg width="143" height="71" viewBox="0 0 143 71" fill="none" xmlns="http://www.w3.org/2000/svg">
<path fill-rule="evenodd" clip-rule="evenodd" d="M108.661 26.0507C106.549 23.7505 104.046 22.2001 101.086 21.4411C100.107 21.1819 96.5825 21.0477 90.6714 20.9551L90.5129 20.8255C85.4876 20.7931 80.8631 20.7885 77.2829 20.8024C77.0079 20.7977 76.7421 20.7977 76.4578 20.7931L76.4718 20.8024C72.6491 20.8209 70.2064 20.8625 70.1132 20.9181C69.605 21.2097 72.9708 26.8329 74.8075 28.9063C76.9193 31.2065 79.4226 32.7569 82.3828 33.5159C83.9865 33.9417 92.3916 34.224 107.011 34.3629L106.754 34.1546C110.717 34.1361 113.258 34.0945 113.351 34.0389C113.864 33.7473 110.498 28.1241 108.661 26.0507Z" fill="white"/>
<path fill-rule="evenodd" clip-rule="evenodd" d="M68.6629 56.8835C65.642 56.6197 62.9849 56.8326 60.6773 57.5685C59.8568 57.823 57.4793 59.1883 53.5588 61.5487C52.5286 62.1688 51.1813 61.8403 50.5706 60.8082C49.9553 59.7576 49.3073 58.6607 48.6407 57.5361C44.6549 50.8299 36.343 36.788 30.1755 26.37C22.7493 13.8694 18.2974 6.78829 17.1226 5.62199C14.9829 3.45601 12.3816 2.08145 9.31883 1.415C6.59171 0.873502 0 0.790193 0 1.37334C0 1.58161 4.53122 9.49576 10.116 18.9557C15.6961 28.4157 22.7074 40.3702 25.7282 45.5399C36.1798 63.4138 37.1028 64.8717 38.6552 66.4129C39.7227 67.4727 40.9115 68.3104 42.2494 68.9861C42.2727 69.0278 42.3753 69.0833 42.5571 69.1481C45.1723 70.3838 48.3796 70.9577 52.5472 70.9577C52.8269 70.9577 53.0647 70.9577 53.3071 70.9531C53.377 70.9531 53.4469 70.9531 53.5168 70.9531C54.1322 70.9438 54.6124 70.93 54.99 70.8976C56.491 70.805 57.8896 70.5736 59.1715 70.1617C60.4349 69.7683 65.5348 66.8433 74.1311 61.5903L73.3013 61.5857C75.9259 59.9288 77.6087 58.8319 77.6227 58.7718C77.6833 58.4478 71.348 57.1473 68.6629 56.8835Z" fill="white"/>
<path fill-rule="evenodd" clip-rule="evenodd" d="M66.7374 8.38046C68.6627 10.477 70.9376 11.884 73.6321 12.5736C75.0912 12.9623 82.7411 13.2215 96.0504 13.3465C107.131 13.4344 122.063 13.5455 129.205 13.6149C136.379 13.6612 142.472 13.6751 142.794 13.6195C143.232 13.5409 143.027 12.9577 141.633 10.5603C138.673 5.46935 135.671 2.80816 131.703 1.75294C129.774 1.23922 128.193 1.17905 109.243 1.1374C103.766 1.12352 91.0764 1.08186 81.0256 1.01707C70.9749 0.952273 62.6257 1.00781 62.4579 1.105C61.9964 1.37344 65.0638 6.49218 66.7374 8.38046Z" fill="white"/>
<path fill-rule="evenodd" clip-rule="evenodd" d="M83.3705 61.1182C76.9186 65.3021 71.6508 68.8287 71.6275 68.9491C71.5576 69.2777 77.8277 70.5643 80.4849 70.8096C83.4777 71.0549 86.1163 70.8096 88.4099 70.0274C89.6686 69.6109 94.7545 66.5332 103.328 61.0118" fill="white"/>
<path fill-rule="evenodd" clip-rule="evenodd" d="M106.469 59.901C108.907 56.703 99.8448 57.2537 97.2156 57.2537C94.1854 57.2491 91.5376 57.2028 89.23 57.9387C88.4561 58.1794 86.2884 59.4105 82.7548 61.5348C81.7992 62.1087 80.5545 61.8032 79.9904 60.8452C79.3658 59.7853 78.7131 58.6746 78.0372 57.536C74.0514 50.8298 65.7395 36.788 59.572 26.37C52.1458 13.8694 47.6938 6.78829 46.5191 5.62199C44.3793 3.45601 41.7781 2.08145 38.7153 1.415C35.9882 0.873502 29.3965 0.790193 29.3965 1.37334C29.3965 1.58161 33.9277 9.49576 39.5125 18.9557C45.0926 28.4157 52.1039 40.3702 55.1247 45.5399C65.5763 63.4138 66.4993 64.8717 68.0517 66.4129C71.2403 69.5785 75.4359 70.9531 81.9437 70.9531C85.0065 70.9531 85.6778 70.8281 85.5099 70.3699C85.4493 70.208 84.6335 68.7825 83.3609 66.6026L94.3952 66.598C100.866 62.6085 106.325 60.0908 106.469 59.901Z" fill="white"/>
</svg>
