<svg width="38" height="38" viewBox="0 0 38 38" fill="none" xmlns="http://www.w3.org/2000/svg">
<circle cx="19" cy="19" r="19" fill="black"/>
<path d="M22.5 10H19.832C16.434 9.96604 16 12.069 16 14.345V16H14.5C14.4322 15.991 14.3632 15.9977 14.2985 16.0196C14.2337 16.0415 14.1748 16.0781 14.1264 16.1265C14.0781 16.1748 14.0415 16.2337 14.0196 16.2985C13.9976 16.3633 13.991 16.4322 14 16.5V19.5C13.991 19.5678 13.9976 19.6368 14.0196 19.7016C14.0415 19.7664 14.0781 19.8253 14.1264 19.8736C14.1748 19.922 14.2337 19.9586 14.2985 19.9805C14.3632 20.0024 14.4322 20.0091 14.5 20H16V27.5C15.9917 27.568 15.999 27.6369 16.0214 27.7016C16.0437 27.7662 16.0806 27.8249 16.1291 27.8732C16.1777 27.9214 16.2366 27.9579 16.3014 27.9799C16.3662 28.0019 16.4351 28.0088 16.503 28H19.558C19.853 28.034 20.092 27.795 19.998 27.5L20 20H22.5C22.5678 20.0091 22.6368 20.0024 22.7016 19.9805C22.7664 19.9586 22.8252 19.922 22.8736 19.8736C22.922 19.8253 22.9585 19.7664 22.9804 19.7016C23.0024 19.6368 23.0091 19.5678 23 19.5V16.5C23.0091 16.4322 23.0024 16.3633 22.9804 16.2985C22.9585 16.2337 22.922 16.1748 22.8736 16.1265C22.8252 16.0781 22.7664 16.0415 22.7016 16.0196C22.6368 15.9977 22.5678 15.991 22.5 16H19.997L20 14.5C20.097 13.861 20.097 13.965 20.69 14H22.479C22.618 13.969 22.766 13.986 22.87 13.885C22.974 13.784 23.034 13.646 22.999 13.5V10.5C23.0082 10.4323 23.0017 10.3633 22.9799 10.2985C22.9581 10.2337 22.9216 10.1748 22.8733 10.1265C22.8251 10.0781 22.7662 10.0415 22.7015 10.0195C22.6367 9.99762 22.5678 9.99095 22.5 10ZM21.965 12.944L20.711 12.896C19.158 12.896 19.028 13.739 19.028 14.602L19.024 16.498C19.0239 16.5683 19.0376 16.6378 19.0644 16.7027C19.0912 16.7676 19.1305 16.8266 19.1801 16.8763C19.2297 16.926 19.2886 16.9654 19.3534 16.9923C19.4183 17.0192 19.4878 17.033 19.558 17.033H22V18.965H19.56C19.4183 18.965 19.2824 19.0213 19.1821 19.1214C19.0818 19.2215 19.0253 19.3573 19.025 19.499L19.024 27H17V19.5C17 19.205 16.799 18.966 16.503 18.966H15V17.034H16.503C16.5732 17.0341 16.6427 17.0204 16.7075 16.9937C16.7724 16.9669 16.8313 16.9276 16.881 16.878C16.981 16.777 16.999 16.641 16.999 16.499V14.344C16.999 12.102 17.452 11.034 19.831 11.034H21.964V12.944H21.965Z" fill="white"/>
</svg>
