<svg width="38" height="38" viewBox="0 0 38 38" fill="none" xmlns="http://www.w3.org/2000/svg">
<circle cx="19" cy="19" r="19" fill="white"/>
<path fill-rule="evenodd" clip-rule="evenodd" d="M26.9129 17.0578C26.487 16.5939 25.9822 16.2813 25.3852 16.1282C25.1878 16.076 24.4771 16.0489 23.2851 16.0302L23.2531 16.0041C22.2397 15.9976 21.3072 15.9966 20.5852 15.9994C20.5297 15.9985 20.4761 15.9985 20.4188 15.9976L20.4216 15.9994C19.6507 16.0032 19.1581 16.0116 19.1393 16.0228C19.0368 16.0816 19.7156 17.2155 20.086 17.6337C20.5118 18.0975 21.0167 18.4102 21.6136 18.5632C21.937 18.6491 23.632 18.706 26.5801 18.734L26.5284 18.692C27.3275 18.6883 27.8398 18.6799 27.8586 18.6687C27.962 18.6099 27.2833 17.4759 26.9129 17.0578Z" fill="#353535"/>
<path fill-rule="evenodd" clip-rule="evenodd" d="M18.8465 23.2753C18.2374 23.2221 17.7015 23.265 17.2362 23.4134C17.0707 23.4647 16.5913 23.7401 15.8007 24.2161C15.5929 24.3411 15.3212 24.2749 15.1981 24.0667C15.074 23.8549 14.9433 23.6337 14.8089 23.4069C14.0051 22.0545 12.3289 19.2228 11.0852 17.1219C9.58762 14.6011 8.68984 13.1731 8.45294 12.9379C8.02144 12.5011 7.49687 12.2239 6.87923 12.0895C6.32928 11.9803 5 11.9635 5 12.0811C5 12.1231 5.91376 13.7191 7.03999 15.6268C8.16527 17.5345 9.57916 19.9452 10.1883 20.9877C12.296 24.5922 12.4821 24.8862 12.7952 25.197C13.0105 25.4107 13.2502 25.5796 13.52 25.7159C13.5247 25.7243 13.5454 25.7355 13.582 25.7486C14.1094 25.9977 14.7562 26.1135 15.5967 26.1135C15.6531 26.1135 15.701 26.1135 15.7499 26.1125C15.764 26.1125 15.7781 26.1125 15.7922 26.1125C15.9163 26.1107 16.0131 26.1079 16.0893 26.1013C16.392 26.0827 16.674 26.036 16.9325 25.9529C17.1873 25.8736 18.2157 25.2838 19.9493 24.2245L19.7819 24.2235C20.3112 23.8894 20.6506 23.6682 20.6534 23.6561C20.6656 23.5907 19.388 23.3285 18.8465 23.2753Z" fill="#353535"/>
<path fill-rule="evenodd" clip-rule="evenodd" d="M18.4584 13.4942C18.8466 13.917 19.3054 14.2007 19.8488 14.3398C20.143 14.4182 21.6857 14.4704 24.3696 14.4956C26.6042 14.5134 29.6153 14.5358 31.0555 14.5498C32.5023 14.5591 33.731 14.5619 33.7959 14.5507C33.8843 14.5348 33.8429 14.4172 33.5618 13.9338C32.9648 12.9071 32.3594 12.3705 31.5594 12.1577C31.1702 12.0541 30.8515 12.042 27.0301 12.0336C25.9255 12.0308 23.3666 12.0224 21.3397 12.0093C19.3129 11.9962 17.6292 12.0074 17.5954 12.027C17.5023 12.0812 18.1209 13.1134 18.4584 13.4942Z" fill="#353535"/>
<path fill-rule="evenodd" clip-rule="evenodd" d="M21.8125 24.1294C20.5115 24.9731 19.4492 25.6843 19.4445 25.7085C19.4304 25.7748 20.6948 26.0343 21.2306 26.0837C21.8342 26.1332 22.3663 26.0837 22.8288 25.926C23.0826 25.842 24.1082 25.2214 25.8371 24.1079" fill="#353535"/>
<path fill-rule="evenodd" clip-rule="evenodd" d="M26.4702 23.8838C26.9619 23.2389 25.1343 23.3499 24.6041 23.3499C23.9931 23.349 23.4591 23.3397 22.9937 23.4881C22.8377 23.5366 22.4006 23.7849 21.688 24.2132C21.4952 24.329 21.2442 24.2674 21.1305 24.0742C21.0045 23.8605 20.8729 23.6365 20.7366 23.4069C19.9328 22.0545 18.2566 19.2228 17.0129 17.1219C15.5154 14.6011 14.6176 13.1731 14.3807 12.9379C13.9492 12.5011 13.4246 12.2239 12.807 12.0895C12.257 11.9803 10.9277 11.9635 10.9277 12.0811C10.9277 12.1231 11.8415 13.7191 12.9677 15.6268C14.093 17.5345 15.5069 19.9452 16.1161 20.9877C18.2237 24.5922 18.4099 24.8862 18.7229 25.197C19.366 25.8353 20.212 26.1125 21.5244 26.1125C22.142 26.1125 22.2774 26.0873 22.2436 25.9949C22.2313 25.9623 22.0668 25.6748 21.8102 25.2352L24.0354 25.2343C25.3402 24.4298 26.441 23.9221 26.4702 23.8838Z" fill="#353535"/>
</svg>
