<svg width="38" height="38" viewBox="0 0 38 38" fill="none" xmlns="http://www.w3.org/2000/svg">
<circle cx="19" cy="19" r="19" fill="black"/>
<path fill-rule="evenodd" clip-rule="evenodd" d="M28.2566 17.7727C27.8308 17.3049 27.3259 16.9895 26.729 16.8352C26.5316 16.7824 25.8209 16.7551 24.6288 16.7363L24.5969 16.71C23.5835 16.7034 22.6509 16.7024 21.9289 16.7053C21.8735 16.7043 21.8199 16.7043 21.7625 16.7034L21.7653 16.7053C20.9945 16.709 20.5019 16.7175 20.4831 16.7288C20.3806 16.7881 21.0593 17.9318 21.4297 18.3535C21.8556 18.8214 22.3604 19.1367 22.9574 19.2911C23.2808 19.3777 24.9757 19.4351 27.9238 19.4634L27.8721 19.421C28.6712 19.4173 29.1836 19.4088 29.2024 19.3975C29.3058 19.3382 28.627 18.1945 28.2566 17.7727Z" fill="white"/>
<path fill-rule="evenodd" clip-rule="evenodd" d="M20.1903 24.0436C19.5811 23.99 19.0453 24.0333 18.5799 24.183C18.4145 24.2347 17.935 24.5124 17.1444 24.9925C16.9366 25.1186 16.665 25.0518 16.5418 24.8419C16.4177 24.6282 16.287 24.4051 16.1526 24.1764C15.3488 22.8124 13.6727 19.9563 12.4289 17.8374C10.9314 15.2948 10.0336 13.8546 9.79669 13.6173C9.36519 13.1768 8.84062 12.8972 8.22298 12.7617C7.67303 12.6515 6.34375 12.6346 6.34375 12.7532C6.34375 12.7956 7.25751 14.4052 8.38374 16.3293C9.50902 18.2534 10.9229 20.6849 11.5321 21.7364C13.6398 25.3719 13.8259 25.6684 14.1389 25.9819C14.3542 26.1974 14.594 26.3678 14.8638 26.5052C14.8685 26.5137 14.8891 26.525 14.9258 26.5382C15.4532 26.7895 16.1 26.9062 16.9404 26.9062C16.9968 26.9062 17.0448 26.9062 17.0936 26.9053C17.1077 26.9053 17.1218 26.9053 17.1359 26.9053C17.26 26.9034 17.3569 26.9006 17.433 26.894C17.7357 26.8752 18.0177 26.8281 18.2763 26.7443C18.531 26.6643 19.5595 26.0694 21.293 25.001L21.1257 25C21.6549 24.663 21.9943 24.4399 21.9971 24.4277C22.0094 24.3618 20.7318 24.0973 20.1903 24.0436Z" fill="white"/>
<path fill-rule="evenodd" clip-rule="evenodd" d="M19.8021 14.1784C20.1904 14.6048 20.6491 14.891 21.1925 15.0313C21.4868 15.1103 23.0294 15.163 25.7134 15.1885C27.948 15.2063 30.9591 15.2289 32.3993 15.2431C33.8461 15.2525 35.0748 15.2553 35.1396 15.244C35.228 15.228 35.1866 15.1094 34.9055 14.6218C34.3086 13.5863 33.7032 13.045 32.9032 12.8304C32.514 12.7259 32.1953 12.7137 28.3738 12.7052C27.2692 12.7024 24.7103 12.6939 22.6835 12.6807C20.6567 12.6676 18.973 12.6789 18.9391 12.6986C18.846 12.7532 19.4646 13.7943 19.8021 14.1784Z" fill="white"/>
<path fill-rule="evenodd" clip-rule="evenodd" d="M23.1563 24.9052C21.8552 25.7562 20.7929 26.4735 20.7882 26.4979C20.7741 26.5648 22.0385 26.8265 22.5744 26.8764C23.1779 26.9263 23.71 26.8764 24.1725 26.7173C24.4264 26.6326 25.452 26.0066 27.1808 24.8835" fill="white"/>
<path fill-rule="evenodd" clip-rule="evenodd" d="M27.8139 24.6574C28.3056 24.0069 26.4781 24.1189 25.9479 24.1189C25.3368 24.118 24.8028 24.1086 24.3375 24.2583C24.1814 24.3072 23.7443 24.5576 23.0317 24.9897C22.839 25.1064 22.588 25.0443 22.4742 24.8494C22.3483 24.6339 22.2167 24.4079 22.0803 24.1764C21.2766 22.8124 19.6004 19.9563 18.3567 17.8374C16.8591 15.2948 15.9613 13.8546 15.7244 13.6173C15.2929 13.1768 14.7684 12.8972 14.1507 12.7617C13.6008 12.6515 12.2715 12.6346 12.2715 12.7532C12.2715 12.7956 13.1852 14.4052 14.3115 16.3293C15.4368 18.2534 16.8506 20.6849 17.4598 21.7364C19.5675 25.3719 19.7536 25.6684 20.0667 25.9819C20.7097 26.6257 21.5558 26.9053 22.8681 26.9053C23.4858 26.9053 23.6212 26.8799 23.5873 26.7867C23.5751 26.7538 23.4106 26.4638 23.1539 26.0204L25.3791 26.0195C26.684 25.2081 27.7848 24.696 27.8139 24.6574Z" fill="white"/>
</svg>
