<svg width="38" height="38" viewBox="0 0 38 38" fill="none" xmlns="http://www.w3.org/2000/svg">
<path d="M18.9998 0.76001C8.92597 0.76001 0.759766 8.92621 0.759766 19C0.759766 29.0738 8.92597 37.24 18.9998 37.24C29.0736 37.24 37.2398 29.0738 37.2398 19C37.2398 8.92621 29.0736 0.76001 18.9998 0.76001ZM26.4193 15.7016C26.4269 15.8574 26.4288 16.0132 26.4288 16.1652C26.4288 20.9152 22.8169 26.3891 16.2087 26.3891C14.256 26.3924 12.344 25.8316 10.7025 24.7741C10.9818 24.8083 11.2687 24.8216 11.5594 24.8216C13.2428 24.8216 14.7913 24.2497 16.0206 23.2845C15.2714 23.2698 14.5455 23.0217 13.9441 22.5749C13.3426 22.1281 12.8955 21.5047 12.6652 20.7917C13.2032 20.894 13.7574 20.8726 14.2859 20.729C13.4728 20.5646 12.7415 20.124 12.2162 19.482C11.6909 18.8399 11.4038 18.036 11.4036 17.2064V17.1627C11.8881 17.4306 12.4429 17.594 13.0319 17.613C12.2696 17.1056 11.73 16.3261 11.5234 15.434C11.3167 14.5418 11.4588 13.6045 11.9204 12.8136C12.8228 13.9232 13.9482 14.8309 15.2236 15.478C16.4991 16.1251 17.8963 16.4971 19.3247 16.5699C19.1431 15.7991 19.2212 14.9899 19.547 14.2681C19.8727 13.5463 20.4278 12.9523 21.126 12.5785C21.8242 12.2047 22.6262 12.0721 23.4076 12.2012C24.1889 12.3303 24.9057 12.7139 25.4465 13.2924C26.2505 13.1333 27.0215 12.8384 27.7265 12.4203C27.4585 13.2528 26.8974 13.9596 26.1476 14.4096C26.8598 14.3238 27.5552 14.1324 28.211 13.8415C27.7293 14.5633 27.1225 15.1932 26.4193 15.7016Z" fill="black"/>
</svg>
